<svg xmlns="http://www.w3.org/2000/svg" viewBox="0 0 750 500"><g id="freepik--background-complete--inject-9"><path d="M686.77,122.44l5.89-9.49-2.91-1.8a2.66,2.66,0,0,1-1.23-2.5,15.45,15.45,0,0,0,.05-1.67,2.66,2.66,0,0,1,1.39-2.41l3-1.61-5.28-9.85-3,1.62a2.68,2.68,0,0,1-2.78-.18,16,16,0,0,0-1.42-.88,2.66,2.66,0,0,1-1.4-2.41l.11-3.42L668,87.5l-.1,3.43a2.67,2.67,0,0,1-1.56,2.31c-.25.11-.49.24-.74.37s-.48.26-.71.4a2.63,2.63,0,0,1-2.77,0l-2.93-1.81-5.89,9.49,2.91,1.81a2.64,2.64,0,0,1,1.23,2.5c0,.55-.06,1.1-.05,1.66a2.66,2.66,0,0,1-1.39,2.41l-3,1.61,5.28,9.85,3-1.62a2.68,2.68,0,0,1,2.78.18,15.81,15.81,0,0,0,1.41.88,2.65,2.65,0,0,1,1.4,2.4l-.1,3.43,11.16.35.11-3.43a2.63,2.63,0,0,1,1.55-2.3l.74-.38c.24-.13.48-.26.71-.4a2.67,2.67,0,0,1,2.79,0Zm-9.45-7A9.15,9.15,0,1,1,681.06,103,9.14,9.14,0,0,1,677.32,115.39Z" style="fill:#ebebeb"></path><path d="M126.77,255.29l-3.91-6.78-2.07,1.2a1.85,1.85,0,0,1-2-.07,10.29,10.29,0,0,0-1-.58,1.87,1.87,0,0,1-1-1.66V245H109v2.39a1.87,1.87,0,0,1-1,1.66,9.12,9.12,0,0,0-1,.58,1.85,1.85,0,0,1-2,.07l-2.08-1.2L99,255.29l2.08,1.2a1.86,1.86,0,0,1,.92,1.72c0,.19,0,.38,0,.58s0,.38,0,.57a1.87,1.87,0,0,1-.91,1.72L99,262.29l3.91,6.78,2.08-1.2a1.85,1.85,0,0,1,2,.06,10.23,10.23,0,0,0,1,.59,1.85,1.85,0,0,1,1,1.65v2.4h7.82v-2.4a1.87,1.87,0,0,1,1-1.65,9.19,9.19,0,0,0,1-.59,1.85,1.85,0,0,1,2-.06l2.08,1.2,3.91-6.78-2.08-1.2a1.87,1.87,0,0,1-.91-1.72c0-.19,0-.39,0-.58s0-.39,0-.58a1.89,1.89,0,0,1,.91-1.73Zm-7.48,3.5a6.41,6.41,0,1,1-6.41-6.41A6.4,6.4,0,0,1,119.29,258.79Z" style="fill:#ebebeb"></path><path d="M89.9,301.23a30.48,30.48,0,1,0,30.47,30.48A30.47,30.47,0,0,0,89.9,301.23Zm0,44.7a14.23,14.23,0,1,1,14.23-14.22A14.23,14.23,0,0,1,89.9,345.93Z" style="fill:#ebebeb"></path><polygon points="95.76 302.5 84.04 302.5 84.69 294.2 95.11 294.2 95.76 302.5" style="fill:#ebebeb"></polygon><polygon points="73.45 306.44 65.17 314.73 59.76 308.41 67.13 301.04 73.45 306.44" style="fill:#ebebeb"></polygon><polygon points="60.47 325.01 60.47 336.73 52.18 336.08 52.18 325.66 60.47 325.01" style="fill:#ebebeb"></polygon><polygon points="64.42 347.31 72.71 355.6 66.39 361 59.02 353.63 64.42 347.31" style="fill:#ebebeb"></polygon><polygon points="82.98 360.29 94.7 360.29 94.06 368.59 83.63 368.59 82.98 360.29" style="fill:#ebebeb"></polygon><polygon points="105.29 356.34 113.58 348.06 118.98 354.38 111.61 361.75 105.29 356.34" style="fill:#ebebeb"></polygon><polygon points="118.27 337.78 118.27 326.06 126.56 326.71 126.56 337.13 118.27 337.78" style="fill:#ebebeb"></polygon><polygon points="114.32 315.48 106.03 307.19 112.36 301.78 119.73 309.15 114.32 315.48" style="fill:#ebebeb"></polygon><path d="M636.73,381.56c5.72-.1,20.4-.35,25.92-.41l8.54,0-.45.46,0-11.19.5.5c-5.72,0-20.32-.07-25.84-.15l-8.62-.11.24-.24-.24,11.19Zm0,0-.24-11.19v-.24h.25c4.3-.06,12.93-.16,17.23-.19l17.23-.07h.5v.5l0,11.19V382h-.45l-8.69,0c-5.49-.06-20.1-.31-25.77-.41Z" style="fill:#ebebeb"></path><path d="M656,395.67c5.73-.1,20.4-.35,25.93-.41l8.53-.05-.45.46-.05-11.19.5.5c-5.72,0-20.31-.08-25.84-.15l-8.62-.11.24-.24L656,395.67Zm0,0-.24-11.19v-.24H656c4.3-.06,12.94-.16,17.23-.19l17.23-.07h.51v.5l0,11.19v.45h-.46l-8.69,0c-5.49-.06-20.1-.31-25.77-.41Z" style="fill:#ebebeb"></path><path d="M619.86,209c5.72-.09,20.4-.34,25.92-.41l8.54,0-.46.45,0-11.19.5.5c-5.73,0-20.32-.07-25.85-.15l-8.61-.1.24-.25L619.86,209Zm0,0-.24-11.19v-.23h.25l17.23-.19,17.23-.06h.5v.5L654.77,209v.46h-.45l-8.7,0c-5.49-.07-20.09-.32-25.76-.42Z" style="fill:#ebebeb"></path><path d="M639.08,223.15c5.72-.09,20.4-.34,25.92-.41l8.54,0-.46.45L673,212l.5.5c-5.72,0-20.32-.07-25.85-.15l-8.61-.1.24-.25-.24,11.19Zm0,0L638.84,212v-.23h.25l17.23-.19,17.23-.06h.5v.5l0,11.19v.46h-.45l-8.69,0c-5.49-.07-20.1-.32-25.77-.42Z" style="fill:#ebebeb"></path><rect x="600.63" y="211.96" width="34.46" height="11.19" transform="translate(1235.73 435.12) rotate(180)" style="fill:#ebebeb"></rect><rect x="75.47" y="384.48" width="34.46" height="11.19" transform="translate(185.4 780.15) rotate(180)" style="fill:#ebebeb"></rect><rect x="75.47" y="43.24" width="34.46" height="11.19" transform="translate(185.4 97.68) rotate(180)" style="fill:#ebebeb"></rect><path d="M56.25,68.54c5.72-.1,20.4-.34,25.92-.41l8.54,0-.46.45,0-11.19.5.5c-5.72,0-20.32-.07-25.85-.15l-8.61-.11.24-.24-.24,11.19Zm0,0L56,57.35v-.23h.25l17.23-.19,17.23-.07h.5v.5l0,11.19V69h-.45L82,69c-5.49-.06-20.09-.31-25.76-.41Z" style="fill:#ebebeb"></path><path d="M659.29,54.45c5.73-.1,20.4-.35,25.93-.42l8.53,0-.45.46,0-11.19.5.49c-5.72,0-20.31-.07-25.84-.15l-8.62-.1.24-.24-.24,11.19Zm0,0-.24-11.19V43h.24l17.23-.19,17.23-.06h.5v.51l0,11.19v.45h-.46l-8.69,0c-5.49-.06-20.1-.32-25.77-.41Z" style="fill:#ebebeb"></path><rect x="306.73" y="80.44" width="34.46" height="11.19" style="fill:#ebebeb"></rect><path d="M322,66.33c-5.72.1-20.4.35-25.92.41l-8.54.05.46-.46,0,11.19-.5-.5c5.72,0,20.32.07,25.85.15l8.61.11-.24.24L322,66.33Zm0,0,.24,11.19v.24H322c-4.3.06-12.93.16-17.23.19L287.51,78H287v-.5l0-11.19v-.46h.45l8.69,0c5.49.06,20.1.31,25.77.41Z" style="fill:#ebebeb"></path><rect x="82.57" y="175.1" width="54.36" height="65.94" style="fill:#ebebeb"></rect><rect x="88.78" y="181.12" width="41.94" height="53.9" style="fill:#fff"></rect><rect x="88.78" y="181.12" width="1.64" height="53.9" style="fill:#c7c7c7"></rect><rect x="136.93" y="175.1" width="1.64" height="65.94" style="fill:#c7c7c7"></rect><rect x="102.84" y="193.58" width="9.89" height="29.46" style="fill:#dbdbdb"></rect><path d="M125.39,203.48H98V188.05h27.37Zm-26.37-1h25.37V189.05H99Z" style="fill:#ebebeb"></path><rect x="50.72" y="93.69" width="54.36" height="65.94" style="fill:#ebebeb"></rect><rect x="56.93" y="99.71" width="41.94" height="53.9" style="fill:#fff"></rect><rect x="56.93" y="99.71" width="1.64" height="53.9" style="fill:#c7c7c7"></rect><rect x="105.08" y="93.69" width="1.64" height="65.94" style="fill:#c7c7c7"></rect><rect x="73.84" y="113.65" width="8.47" height="21.42" style="fill:#ebebeb"></rect><path d="M91.73,141.93H68V126.17H91.73Zm-22.76-1H90.73V127.17H69Z" style="fill:#dbdbdb"></path></g><g id="freepik--Floor--inject-9"><polygon points="50.72 441.6 131.79 441.36 212.86 441.27 375 441.11 537.14 441.27 618.21 441.36 699.28 441.6 618.21 441.85 537.14 441.94 375 442.1 212.86 441.94 131.79 441.85 50.72 441.6" style="fill:#263238"></polygon></g><g id="freepik--Plant--inject-9"><path d="M658.61,356.17a68.61,68.61,0,0,0-2.22,12.52c.12.21.09,1,0,.77,0,.69-1.07.56-1.07-.12,0-.44,0-.88,0-1.31-2.44-3-6-5-8.86-7.6a16.58,16.58,0,0,1-4.86-7.73c-2.38-8.2-.15-16.9-3-25.08-2.46-7.05-6.89-13.19-10.64-19.58-4-6.76-6.87-13.86-7.16-21.78-.23-6.06.49-14.14,5.11-18.68,4.89-4.82,11-1.21,14.71,3.09,10.87,12.47,15.89,28.23,17.93,44.34,1.12,8.92,2.28,17.89,2,26.89A72.93,72.93,0,0,1,658.61,356.17Z" style="fill:#FA57AE"></path><path d="M656.44,372a153.25,153.25,0,0,0-.3-25.26s0-.05,0-.1c.14-6.83.68-13.63.42-20.46a122.27,122.27,0,0,0-3-22c0-.08-.15-.06-.13,0a143.33,143.33,0,0,1,2.37,21.47q.21,5.79-.09,11.58c-.07,1.25-.18,2.52-.27,3.78h0a135.1,135.1,0,0,0-20.32-53.77c-.14-.22-.53,0-.39.24a140.52,140.52,0,0,1,16.54,39.87c-5.23-9.68-13.12-17.64-19-26.94,0-.05-.11,0-.09.05,5.26,10.36,13.95,18.52,19.49,28.73,1,4.15,1.75,8.35,2.34,12.58a141.83,141.83,0,0,1,1.26,17.47c-3.19-5.95-6.49-11.64-9.09-17.93-.07-.17-.31-.05-.26.11,2.22,6.54,5.2,13.58,9.36,19.15,0,4.14-.1,8.28-.34,12.41-.65,11-2.53,21.91-3.4,32.91a.25.25,0,0,0,.5.05A252.34,252.34,0,0,0,656.44,372Z" style="fill:#263238"></path><path d="M644.73,286.9a.07.07,0,1,0-.12.05c2,5.57,3.15,11.22,4.6,16.93a.21.21,0,0,0,.42-.07C649,298,647,292.24,644.73,286.9Z" style="fill:#263238"></path><path d="M695.89,310.25a83.55,83.55,0,0,1-4.64,9.51c-3.62,6.59-7.41,12.63-8.09,20.3-.31,3.43-.42,6.87-1.46,10.17a30.81,30.81,0,0,1-4.05,8c-3.94,5.72-8.85,10.66-12.49,16.6a69.76,69.76,0,0,0-8.3,20c-.09.39-.7.29-.61-.1a.24.24,0,0,0,0-.09.15.15,0,0,1,0-.08c-.58-16.45.73-33,5.75-48.78a168.08,168.08,0,0,1,8-20.29c2.69-5.72,6-11.21,10.76-15.48,3.06-2.76,9.7-8,14.06-5.22C696.87,306.09,696.71,308.19,695.89,310.25Z" style="fill:#FA57AE"></path><path d="M679.36,347.53a134.38,134.38,0,0,1-9.56,13.75c-1.6,2.07-3.21,4.14-4.8,6.22-.75,1-1.59,2-2.28,3q.64-2.59,1.3-5.19c2.12-8.31,4.16-16.7,7.32-24.69a167.22,167.22,0,0,1,11.42-22.39c.11-.19-.2-.33-.31-.14-3.47,5.72-7,11.42-9.92,17.45a91.65,91.65,0,0,0-4.22,10.35,161.41,161.41,0,0,1,5.61-22.12c0-.06-.07-.11-.1-.05a75.84,75.84,0,0,0-5.82,23s0,0,0,0c-.71,2.14-1.36,4.3-2,6.47-2.6,9.2-4.87,18.5-7,27.83a99.4,99.4,0,0,1,1.59-18.29.11.11,0,0,0-.22,0,58,58,0,0,0-1.59,19.29q-1.19,5.32-2.33,10.65c-1.62,7.58-3.6,15.3-4.55,23a.16.16,0,0,0,.31.05c1.12-4.15,1.81-8.45,2.73-12.65s1.88-8.43,2.86-12.63q2.14-9.18,4.45-18.32c1-2.23,3-4.22,4.46-6.09,1.62-2.06,3.24-4.12,4.82-6.21a92.73,92.73,0,0,0,7.91-12.25C679.55,347.51,679.41,347.45,679.36,347.53Z" style="fill:#263238"></path><path d="M680.06,340.5a86,86,0,0,0-9.36,14.86c0,.07.07.14.12.08,3.15-4.94,6.24-9.91,9.38-14.85C680.26,340.51,680.12,340.42,680.06,340.5Z" style="fill:#263238"></path><path d="M610,325.84c2.13,3.67,4.56,8.08,3.65,12.49-.58,2.79-2.63,5.05-3,7.9-.82,6.28,5.44,10.44,10,13.4,11.3,7.42,26.79,14,28.84,29.16.08.53,1,.4.94-.13a.44.44,0,0,0,0-.1s.05,0,.05-.09a58,58,0,0,0-.21-23.11c-1.69-7.8-5.09-14.81-9.11-21.66-6.79-11.6-14-23.47-24.27-32.36-2.85-2.45-8.67-6.87-10.94-1.33S607.43,321.37,610,325.84Z" style="fill:#FA57AE"></path><path d="M620.37,350.43c7.49,8.1,19.4,12.65,25.84,21.73a91,91,0,0,0-19.86-37.31.29.29,0,0,1,.42-.41A73.66,73.66,0,0,1,643,358a105.35,105.35,0,0,0-7-17.88.19.19,0,0,1,.33-.19A67.93,67.93,0,0,1,643.87,360c8.5,20.56,9.28,44.68,7.5,66.35a.25.25,0,0,1-.49,0c.49-17.08.22-34.46-3.88-51.14-.08-.35-.18-.69-.27-1-7-9.77-18.86-14.3-26.48-23.58C620.17,350.47,620.29,350.34,620.37,350.43Z" style="fill:#263238"></path><path d="M618.64,343.46c3.93,3.61,7.8,7.3,11.74,10.9,0,0,0,.11-.06.08A57.46,57.46,0,0,1,618.4,343.7.17.17,0,0,1,618.64,343.46Z" style="fill:#263238"></path><path d="M618,327.84A123.43,123.43,0,0,0,629.78,344a.07.07,0,1,1-.1.09A56.85,56.85,0,0,1,617.81,328,.12.12,0,1,1,618,327.84Z" style="fill:#263238"></path><polygon points="635.72 441.6 670.15 441.6 665.51 395.28 641.02 395.28 635.72 441.6" style="fill:#455a64"></polygon><polygon points="640.15 402.81 666.27 402.81 665.51 395.28 641.02 395.28 640.15 402.81" style="fill:#263238"></polygon><rect x="636.79" y="390.14" width="32.28" height="7.4" transform="translate(1305.87 787.68) rotate(180)" style="fill:#455a64"></rect></g><g id="freepik--Device--inject-9"><rect x="68.63" y="419.29" width="612.74" height="22.32" style="fill:#c7c7c7"></rect><rect x="122.94" y="82.07" width="504.11" height="337.22" style="fill:#dbdbdb"></rect><rect x="126.61" y="86.18" width="496.79" height="328.99" style="fill:#263238"></rect><rect x="148.6" y="107.33" width="452.79" height="286.69" style="fill:#fff"></rect><rect x="148.6" y="107.33" width="452.79" height="11.03" style="fill:#455a64"></rect><path d="M159,112.85a2.09,2.09,0,1,1-2.09-2.09A2.09,2.09,0,0,1,159,112.85Z" style="fill:#c7c7c7"></path><path d="M167.51,112.85a2.09,2.09,0,1,1-2.08-2.09A2.08,2.08,0,0,1,167.51,112.85Z" style="fill:#fff"></path><path d="M176,112.85a2.09,2.09,0,1,1-2.09-2.09A2.09,2.09,0,0,1,176,112.85Z" style="fill:#FA57AE"></path><polygon points="293.26 325.21 290.89 325.21 290.89 322.83 291.64 322.83 291.64 324.46 293.26 324.46 293.26 325.21" style="fill:#c7c7c7"></polygon><path d="M452.75,325.21h-4v-.75h4Zm-8,0h-4v-.75h4Zm-8,0h-4v-.75h4Zm-8,0h-4v-.75h4Zm-8,0h-4v-.75h4Zm-8,0h-4v-.75h4Zm-8,0h-4v-.75h4Zm-8,0h-4v-.75h4Zm-8,0h-4v-.75h4Zm-8,0h-4v-.75h4Zm-8,0h-4v-.75h4Zm-8,0h-4v-.75h4Zm-8,0h-4v-.75h4Zm-8,0h-4v-.75h4Zm-8,0h-4v-.75h4Zm-8,0h-4v-.75h4Zm-8,0h-4v-.75h4Zm-8,0h-4v-.75h4Zm-8,0h-4v-.75h4Zm-8,0h-4v-.75h4Z" style="fill:#c7c7c7"></path><polygon points="459.11 325.21 456.74 325.21 456.74 324.46 458.36 324.46 458.36 322.83 459.11 322.83 459.11 325.21" style="fill:#c7c7c7"></polygon><path d="M459.11,318.84h-.75v-4h.75Zm0-8h-.75v-4h.75Zm0-8h-.75v-4h.75Zm0-8h-.75v-4h.75Zm0-8h-.75v-4h.75Zm0-8h-.75v-4h.75Zm0-8h-.75v-4h.75Zm0-8h-.75v-4h.75Zm0-8h-.75v-4h.75Zm0-8h-.75v-4h.75Zm0-8h-.75v-4h.75Zm0-8h-.75v-4h.75Zm0-8h-.75v-4h.75Zm0-8h-.75v-4h.75Zm0-8h-.75v-4h.75Zm0-8h-.75v-4h.75Zm0-8h-.75v-4h.75Zm0-8h-.75v-4h.75Zm0-8h-.75v-4h.75Zm0-8h-.75v-4h.75Z" style="fill:#c7c7c7"></path><polygon points="459.11 159.36 458.36 159.36 458.36 157.73 456.74 157.73 456.74 156.98 459.11 156.98 459.11 159.36" style="fill:#c7c7c7"></polygon><path d="M452.75,157.73h-4V157h4Zm-8,0h-4V157h4Zm-8,0h-4V157h4Zm-8,0h-4V157h4Zm-8,0h-4V157h4Zm-8,0h-4V157h4Zm-8,0h-4V157h4Zm-8,0h-4V157h4Zm-8,0h-4V157h4Zm-8,0h-4V157h4Zm-8,0h-4V157h4Zm-8,0h-4V157h4Zm-8,0h-4V157h4Zm-8,0h-4V157h4Zm-8,0h-4V157h4Zm-8,0h-4V157h4Zm-8,0h-4V157h4Zm-8,0h-4V157h4Zm-8,0h-4V157h4Zm-8,0h-4V157h4Z" style="fill:#c7c7c7"></path><polygon points="291.64 159.36 290.89 159.36 290.89 156.98 293.26 156.98 293.26 157.73 291.64 157.73 291.64 159.36" style="fill:#c7c7c7"></polygon><path d="M291.64,318.84h-.75v-4h.75Zm0-8h-.75v-4h.75Zm0-8h-.75v-4h.75Zm0-8h-.75v-4h.75Zm0-8h-.75v-4h.75Zm0-8h-.75v-4h.75Zm0-8h-.75v-4h.75Zm0-8h-.75v-4h.75Zm0-8h-.75v-4h.75Zm0-8h-.75v-4h.75Zm0-8h-.75v-4h.75Zm0-8h-.75v-4h.75Zm0-8h-.75v-4h.75Zm0-8h-.75v-4h.75Zm0-8h-.75v-4h.75Zm0-8h-.75v-4h.75Zm0-8h-.75v-4h.75Zm0-8h-.75v-4h.75Zm0-8h-.75v-4h.75Zm0-8h-.75v-4h.75Z" style="fill:#c7c7c7"></path><polygon points="411.71 282.25 338.29 282.25 338.29 259.64 343.04 259.64 343.04 277.49 406.96 277.49 406.96 260.78 411.71 260.78 411.71 282.25" style="fill:#FA57AE"></polygon><path d="M416.55,250.22H328.62v-.14a16.35,16.35,0,0,1,2.14-32.56c.54,0,1.07,0,1.59.08a19.06,19.06,0,0,1,18.91-16.8,18.68,18.68,0,0,1,7.52,1.55,31.4,31.4,0,0,1,60.42,10,19,19,0,0,1-2.65,37.9Zm-86.31-2h86.31a17,17,0,0,0,1.59-34l-.88-.08,0-.88a29.4,29.4,0,0,0-57-9.2l-.39,1.06-1-.51a16.82,16.82,0,0,0-7.62-1.8,17.05,17.05,0,0,0-17,16l-.06,1.11-1.1-.19a13.65,13.65,0,0,0-2.33-.19,14.35,14.35,0,0,0-1.07,28.66Z" style="fill:#FA57AE"></path><rect x="363.72" y="239.15" width="22.55" height="29.02" style="fill:#FA57AE"></rect><polygon points="352.2 239.15 397.8 239.15 375 215.58 352.2 239.15" style="fill:#FA57AE"></polygon><rect x="266.3" y="340.68" width="217.4" height="17.67" style="fill:#ebebeb"></rect><rect x="271.42" y="344.77" width="126.49" height="9.49" style="fill:#FA57AE"></rect><polygon points="285.07 354.26 278.6 354.26 271.42 344.77 277.89 344.77 285.07 354.26" style="fill:#fff;opacity:0.2"></polygon><polygon points="298.73 354.26 292.26 354.26 285.07 344.77 291.55 344.77 298.73 354.26" style="fill:#fff;opacity:0.2"></polygon><polygon points="312.39 354.26 305.91 354.26 298.73 344.77 305.21 344.77 312.39 354.26" style="fill:#fff;opacity:0.2"></polygon><polygon points="326.05 354.26 319.57 354.26 312.39 344.77 318.87 344.77 326.05 354.26" style="fill:#fff;opacity:0.2"></polygon><polygon points="339.71 354.26 333.23 354.26 326.05 344.77 332.53 344.77 339.71 354.26" style="fill:#fff;opacity:0.2"></polygon><polygon points="353.37 354.26 346.89 354.26 339.71 344.77 346.19 344.77 353.37 354.26" style="fill:#fff;opacity:0.2"></polygon><polygon points="367.02 354.26 360.55 354.26 353.37 344.77 359.84 344.77 367.02 354.26" style="fill:#fff;opacity:0.2"></polygon><polygon points="380.68 354.26 374.21 354.26 367.02 344.77 373.5 344.77 380.68 354.26" style="fill:#fff;opacity:0.2"></polygon><polygon points="394.34 354.26 387.86 354.26 380.68 344.77 387.16 344.77 394.34 354.26" style="fill:#fff;opacity:0.2"></polygon><polygon points="397.91 344.77 397.91 349.49 394.34 344.77 397.91 344.77" style="fill:#fff;opacity:0.2"></polygon><rect x="474.01" y="162.71" width="40.87" height="40.87" transform="translate(988.9 366.28) rotate(180)" style="fill:#ebebeb"></rect><rect x="476.42" y="165.11" width="36.06" height="36.06" transform="translate(988.9 366.28) rotate(180)" style="fill:#dbdbdb"></rect><path d="M482.23,173.72a3.4,3.4,0,1,0,2.67-2.67A3.4,3.4,0,0,0,482.23,173.72Z" style="fill:#c7c7c7"></path><polygon points="486.42 191.81 512.48 191.81 499.45 177.2 486.42 191.81" style="fill:#c7c7c7"></polygon><polygon points="476.42 191.81 497.93 191.81 487.18 182.3 476.42 191.81" style="fill:#a6a6a6"></polygon><rect x="476.42" y="191.81" width="36.06" height="9.36" style="fill:#a6a6a6"></rect><path d="M580.23,209.3h-4v-.75h4Zm-8,0h-4v-.75h4Zm-8,0h-4v-.75h4Zm-8,0h-4v-.75h4Zm-8,0h-4v-.75h4Zm-8,0h-4v-.75h4Zm-8,0h-4v-.75h4Zm-8,0h-4v-.75h4Zm-8,0h-4v-.75h4Zm-8,0h-4v-.75h4Zm-8,0h-4v-.75h4Zm-8,0h-4v-.75h4Zm-8,0h-4v-.75h4Zm-8,0h-4v-.75h4Zm-7.15-.85h-.75v-4h.75Zm111.52-1.71h-.75v-4h.75Zm-111.52-6.29h-.75v-4h.75Zm111.52-1.71h-.75v-4h.75Zm-111.52-6.29h-.75v-4h.75Zm111.52-1.71h-.75v-4h.75Zm-111.52-6.29h-.75v-4h.75Zm111.52-1.71h-.75v-4h.75Zm-111.52-6.29h-.75v-4h.75Zm111.52-1.71h-.75v-4h.75Zm-111.52-6.29h-.75v-4h.75Zm111.52-1.71h-.75v-4h.75Zm-111.52-6.29h-.75V157h1.28v.75h-.53Zm111.52-1.71h-.75v-1h-2.24V157h3Zm-7-1h-4V157h4Zm-8,0h-4V157h4Zm-8,0h-4V157h4Zm-8,0h-4V157h4Zm-8,0h-4V157h4Zm-8,0h-4V157h4Zm-8,0h-4V157h4Zm-8,0h-4V157h4Zm-8,0h-4V157h4Zm-8,0h-4V157h4Zm-8,0h-4V157h4Zm-8,0h-4V157h4Zm-8,0h-4V157h4Z" style="fill:#c7c7c7"></path><path d="M519.83,164.77a.52.52,0,0,1,.53-.53.54.54,0,0,1,.54.53v5.68a.54.54,0,0,1-.54.53.52.52,0,0,1-.53-.53Z" style="fill:#ebebeb"></path><path d="M526.62,168.16v2.31a.51.51,0,0,1-.51.51.53.53,0,0,1-.52-.51v-2.31a1,1,0,0,0-2,0v2.28s0,.05,0,.07v0s0,0,0,.06v0a.53.53,0,0,1-.48.31H523a.53.53,0,0,1-.42-.5v-2.28h0v-1.49a.51.51,0,0,1,.51-.52.49.49,0,0,1,.47.29,1.93,1.93,0,0,1,1-.29,2,2,0,0,1,1.51.66,2,2,0,0,1,1.51-.66,2,2,0,0,1,2,2v2.28a.51.51,0,0,1-.51.51.52.52,0,0,1-.52-.51v-2.28a1,1,0,0,0-1-1A1,1,0,0,0,526.62,168.16Z" style="fill:#ebebeb"></path><path d="M535.83,168.58v1.89a.52.52,0,0,1-.51.51.53.53,0,0,1-.51-.41,2.15,2.15,0,0,1-1.28.41,2.23,2.23,0,0,1-1.63-.7,2.44,2.44,0,0,1-.66-1.7,2.4,2.4,0,0,1,.66-1.69,2.21,2.21,0,0,1,1.63-.72,2.16,2.16,0,0,1,1.28.42.53.53,0,0,1,.51-.42.52.52,0,0,1,.51.52Zm-1,0a1.42,1.42,0,0,0-.37-1,1.19,1.19,0,0,0-.9-.39,1.15,1.15,0,0,0-.89.39,1.42,1.42,0,0,0-.37,1,1.46,1.46,0,0,0,.37,1,1.21,1.21,0,0,0,.89.37,1.25,1.25,0,0,0,.9-.37A1.46,1.46,0,0,0,534.8,168.58Z" style="fill:#ebebeb"></path><path d="M542.36,168.6v1.79a2.32,2.32,0,0,1-2.32,2.32,2.19,2.19,0,0,1-1-.25.51.51,0,0,1-.23-.69.53.53,0,0,1,.7-.24,1.09,1.09,0,0,0,.54.14,1.31,1.31,0,0,0,1.27-1A2.24,2.24,0,0,1,540,171a2.22,2.22,0,0,1-1.63-.73,2.39,2.39,0,0,1-.68-1.7,2.5,2.5,0,0,1,.68-1.71,2.28,2.28,0,0,1,1.63-.71,2.17,2.17,0,0,1,1.29.4.52.52,0,0,1,.52-.4.51.51,0,0,1,.51.51v1.91Zm-1,0a1.51,1.51,0,0,0-.37-1,1.2,1.2,0,0,0-.92-.41,1.15,1.15,0,0,0-.88.41,1.45,1.45,0,0,0,0,2,1.16,1.16,0,0,0,.88.39,1.22,1.22,0,0,0,.92-.39A1.5,1.5,0,0,0,541.33,168.59Z" style="fill:#ebebeb"></path><path d="M544.07,168.57a2.38,2.38,0,0,1,2.35-2.4,2.3,2.3,0,0,1,2.32,2.23v0a.28.28,0,0,1,0,.09.46.46,0,0,1-.5.38h-3.06a1.27,1.27,0,0,0,.33.64,1.47,1.47,0,0,0,.92.43,1.57,1.57,0,0,0,1-.24.55.55,0,0,1,.72,0,.43.43,0,0,1,0,.63,2.44,2.44,0,0,1-1.72.63A2.39,2.39,0,0,1,544.07,168.57Zm1-.47h2.73a1.59,1.59,0,0,0-1.43-1A1.35,1.35,0,0,0,545.12,168.1Z" style="fill:#ebebeb"></path><path d="M549.15,172.07a.45.45,0,0,1,.45-.45h5.82a.45.45,0,1,1,0,.9H549.6A.45.45,0,0,1,549.15,172.07Z" style="fill:#ebebeb"></path><path d="M560.93,169.19a.53.53,0,0,1-.54.53h-.09v.73a.53.53,0,0,1-1.06,0v-.73h-3a.45.45,0,0,1-.33-.12.52.52,0,0,1-.09-.74l3.56-4.43h0l0,0,.05,0,0,0,.06,0s0,0,0,0l.06,0h.25l.06,0h0l0,0,.05,0a0,0,0,0,1,0,0l0,0,0,0,0,0,0,.05a.08.08,0,0,0,0,0l0,.06s0,0,0,0a.09.09,0,0,1,0,.05s0,0,0,.05v3.92h.09A.54.54,0,0,1,560.93,169.19Zm-1.69-2.91-1.92,2.38h1.92Z" style="fill:#ebebeb"></path><rect x="474.01" y="220.66" width="40.87" height="40.87" transform="translate(988.9 482.19) rotate(180)" style="fill:#ebebeb"></rect><rect x="476.42" y="223.06" width="36.06" height="36.06" transform="translate(988.9 482.19) rotate(180)" style="fill:#dbdbdb"></rect><path d="M482.23,231.67A3.4,3.4,0,1,0,484.9,229,3.4,3.4,0,0,0,482.23,231.67Z" style="fill:#c7c7c7"></path><polygon points="486.42 249.77 512.48 249.77 499.45 235.15 486.42 249.77" style="fill:#c7c7c7"></polygon><polygon points="476.42 249.77 497.93 249.77 487.18 240.25 476.42 249.77" style="fill:#a6a6a6"></polygon><rect x="476.42" y="249.77" width="36.06" height="9.36" style="fill:#a6a6a6"></rect><path d="M580.23,267.25h-4v-.75h4Zm-8,0h-4v-.75h4Zm-8,0h-4v-.75h4Zm-8,0h-4v-.75h4Zm-8,0h-4v-.75h4Zm-8,0h-4v-.75h4Zm-8,0h-4v-.75h4Zm-8,0h-4v-.75h4Zm-8,0h-4v-.75h4Zm-8,0h-4v-.75h4Zm-8,0h-4v-.75h4Zm-8,0h-4v-.75h4Zm-8,0h-4v-.75h4Zm-8,0h-4v-.75h4Zm-7.15-.85h-.75v-4h.75Zm111.52-1.71h-.75v-4h.75ZM469.08,258.4h-.75v-4h.75Zm111.52-1.71h-.75v-4h.75ZM469.08,250.4h-.75v-4h.75Zm111.52-1.71h-.75v-4h.75ZM469.08,242.4h-.75v-4h.75Zm111.52-1.71h-.75v-4h.75ZM469.08,234.4h-.75v-4h.75Zm111.52-1.71h-.75v-4h.75ZM469.08,226.4h-.75v-4h.75Zm111.52-1.71h-.75v-4h.75ZM469.08,218.4h-.75v-3.46h1.28v.75h-.53Zm111.52-1.71h-.75v-1h-2.24v-.75h3Zm-7-1h-4v-.75h4Zm-8,0h-4v-.75h4Zm-8,0h-4v-.75h4Zm-8,0h-4v-.75h4Zm-8,0h-4v-.75h4Zm-8,0h-4v-.75h4Zm-8,0h-4v-.75h4Zm-8,0h-4v-.75h4Zm-8,0h-4v-.75h4Zm-8,0h-4v-.75h4Zm-8,0h-4v-.75h4Zm-8,0h-4v-.75h4Zm-8,0h-4v-.75h4Z" style="fill:#c7c7c7"></path><path d="M519.83,222a.52.52,0,0,1,.53-.52.53.53,0,0,1,.54.52v5.69a.54.54,0,0,1-.54.53.53.53,0,0,1-.53-.53Z" style="fill:#ebebeb"></path><path d="M526.62,225.36v2.31a.52.52,0,0,1-.51.52.54.54,0,0,1-.52-.52v-2.31a1,1,0,0,0-2,0v2.28s0,.05,0,.07v0s0,0,0,.06v0a.55.55,0,0,1-.48.31H523a.53.53,0,0,1-.42-.51v-2.28h0v-1.49a.51.51,0,0,1,.51-.52.5.5,0,0,1,.47.29,2,2,0,0,1,1-.29,2,2,0,0,1,1.51.67,2,2,0,0,1,1.51-.67,2,2,0,0,1,2,2v2.28a.52.52,0,0,1-.51.52.53.53,0,0,1-.52-.52v-2.28a1,1,0,0,0-1-1A1,1,0,0,0,526.62,225.36Z" style="fill:#ebebeb"></path><path d="M535.83,225.79v1.88a.53.53,0,0,1-.51.52.54.54,0,0,1-.51-.42,2.16,2.16,0,0,1-1.28.42,2.2,2.2,0,0,1-1.63-.71,2.51,2.51,0,0,1,0-3.39,2.21,2.21,0,0,1,1.63-.72,2.16,2.16,0,0,1,1.28.42.53.53,0,0,1,.51-.42.52.52,0,0,1,.51.52Zm-1,0a1.4,1.4,0,0,0-.37-1,1.2,1.2,0,0,0-.9-.4,1.16,1.16,0,0,0-.89.4,1.4,1.4,0,0,0-.37,1,1.46,1.46,0,0,0,.37,1,1.21,1.21,0,0,0,.89.37,1.25,1.25,0,0,0,.9-.37A1.46,1.46,0,0,0,534.8,225.79Z" style="fill:#ebebeb"></path><path d="M542.36,225.81v1.79a2.31,2.31,0,0,1-3.33,2.07.52.52,0,0,1-.23-.7.54.54,0,0,1,.7-.24,1.09,1.09,0,0,0,.54.14,1.3,1.3,0,0,0,1.27-1,2.24,2.24,0,0,1-1.27.38,2.22,2.22,0,0,1-1.63-.73,2.38,2.38,0,0,1-.68-1.69,2.52,2.52,0,0,1,.68-1.72,2.28,2.28,0,0,1,1.63-.71,2.11,2.11,0,0,1,1.29.41.52.52,0,0,1,.52-.41.51.51,0,0,1,.51.51v1.92Zm-1,0a1.54,1.54,0,0,0-.37-1,1.23,1.23,0,0,0-.92-.41,1.18,1.18,0,0,0-.88.41,1.45,1.45,0,0,0-.39,1,1.4,1.4,0,0,0,.39,1,1.16,1.16,0,0,0,.88.39,1.22,1.22,0,0,0,.92-.39A1.48,1.48,0,0,0,541.33,225.8Z" style="fill:#ebebeb"></path><path d="M544.07,225.78a2.39,2.39,0,0,1,2.35-2.41,2.3,2.3,0,0,1,2.32,2.23v.05a.28.28,0,0,1,0,.09.46.46,0,0,1-.5.38h-3.06a1.2,1.2,0,0,0,.33.64,1.47,1.47,0,0,0,.92.43,1.51,1.51,0,0,0,1-.24.55.55,0,0,1,.72,0,.43.43,0,0,1,0,.63,2.45,2.45,0,0,1-1.72.64A2.39,2.39,0,0,1,544.07,225.78Zm1-.47h2.73a1.57,1.57,0,0,0-1.43-1A1.33,1.33,0,0,0,545.12,225.31Z" style="fill:#ebebeb"></path><path d="M549.15,229.27a.45.45,0,0,1,.45-.45h5.82a.45.45,0,0,1,.45.45.46.46,0,0,1-.45.46H549.6A.46.46,0,0,1,549.15,229.27Z" style="fill:#ebebeb"></path><path d="M559.33,224.1a2.34,2.34,0,0,1,.71,1.7,2.42,2.42,0,0,1-2.39,2.39h0a2.33,2.33,0,0,1-1.67-.71.52.52,0,0,1,0-.77.55.55,0,0,1,.77,0,1.27,1.27,0,0,0,1.83,0,1.28,1.28,0,0,0,0-1.84,1.22,1.22,0,0,0-.91-.37,1.26,1.26,0,0,0-.92.37.53.53,0,0,1-.77,0l-.11-.12s0,0,0,0a.08.08,0,0,0,0-.05s0,0,0-.07v0a.43.43,0,0,1,0-.16l.29-2.49a.61.61,0,0,1,.24-.39l0,0,0,0a.51.51,0,0,1,.25-.05h2.84a.54.54,0,0,1,.55.54.55.55,0,0,1-.55.54h-2.37l-.12,1a2.48,2.48,0,0,1,.65-.09A2.34,2.34,0,0,1,559.33,224.1Z" style="fill:#ebebeb"></path><rect x="474.01" y="278.61" width="40.87" height="40.87" transform="translate(988.9 598.09) rotate(180)" style="fill:#ebebeb"></rect><rect x="476.42" y="281.02" width="36.06" height="36.06" transform="translate(988.9 598.09) rotate(180)" style="fill:#dbdbdb"></rect><path d="M482.23,289.62A3.4,3.4,0,1,0,484.9,287,3.4,3.4,0,0,0,482.23,289.62Z" style="fill:#c7c7c7"></path><polygon points="486.42 307.72 512.48 307.72 499.45 293.11 486.42 307.72" style="fill:#c7c7c7"></polygon><polygon points="476.42 307.72 497.93 307.72 487.18 298.2 476.42 307.72" style="fill:#a6a6a6"></polygon><rect x="476.42" y="307.72" width="36.06" height="9.36" style="fill:#a6a6a6"></rect><path d="M580.23,325.21h-4v-.75h4Zm-8,0h-4v-.75h4Zm-8,0h-4v-.75h4Zm-8,0h-4v-.75h4Zm-8,0h-4v-.75h4Zm-8,0h-4v-.75h4Zm-8,0h-4v-.75h4Zm-8,0h-4v-.75h4Zm-8,0h-4v-.75h4Zm-8,0h-4v-.75h4Zm-8,0h-4v-.75h4Zm-8,0h-4v-.75h4Zm-8,0h-4v-.75h4Zm-8,0h-4v-.75h4Zm-7.15-.85h-.75v-4h.75Zm111.52-1.72h-.75v-4h.75Zm-111.52-6.28h-.75v-4h.75Zm111.52-1.72h-.75v-4h.75Zm-111.52-6.28h-.75v-4h.75Zm111.52-1.72h-.75v-4h.75Zm-111.52-6.28h-.75v-4h.75Zm111.52-1.72h-.75v-4h.75Zm-111.52-6.28h-.75v-4h.75Zm111.52-1.72h-.75v-4h.75Zm-111.52-6.28h-.75v-4h.75Zm111.52-1.72h-.75v-4h.75Zm-111.52-6.28h-.75v-3.47h1.28v.75h-.53Zm111.52-1.72h-.75v-1h-2.24v-.75h3Zm-7-1h-4v-.75h4Zm-8,0h-4v-.75h4Zm-8,0h-4v-.75h4Zm-8,0h-4v-.75h4Zm-8,0h-4v-.75h4Zm-8,0h-4v-.75h4Zm-8,0h-4v-.75h4Zm-8,0h-4v-.75h4Zm-8,0h-4v-.75h4Zm-8,0h-4v-.75h4Zm-8,0h-4v-.75h4Zm-8,0h-4v-.75h4Zm-8,0h-4v-.75h4Z" style="fill:#c7c7c7"></path><path d="M519.83,279.41a.53.53,0,0,1,.53-.53.54.54,0,0,1,.54.53v5.68a.54.54,0,0,1-.54.53.52.52,0,0,1-.53-.53Z" style="fill:#ebebeb"></path><path d="M526.62,282.8v2.31a.51.51,0,0,1-.51.51.53.53,0,0,1-.52-.51V282.8a1,1,0,0,0-2,0v2.28s0,.05,0,.07v0s0,0,0,.06v.05a.54.54,0,0,1-.48.3H523a.52.52,0,0,1-.42-.5v-2.28h0v-1.49a.51.51,0,0,1,.51-.52.5.5,0,0,1,.47.29,2,2,0,0,1,2.54.37,2,2,0,0,1,1.51-.66,2,2,0,0,1,2,2v2.28a.51.51,0,0,1-.51.51.52.52,0,0,1-.52-.51v-2.28a1,1,0,0,0-1-1A1,1,0,0,0,526.62,282.8Z" style="fill:#ebebeb"></path><path d="M535.83,283.23v1.88a.52.52,0,0,1-.51.51.53.53,0,0,1-.51-.41,2.15,2.15,0,0,1-1.28.41,2.23,2.23,0,0,1-1.63-.7,2.43,2.43,0,0,1-.66-1.69,2.41,2.41,0,0,1,.66-1.7,2.21,2.21,0,0,1,1.63-.72,2.16,2.16,0,0,1,1.28.42.53.53,0,0,1,.51-.42.52.52,0,0,1,.51.52Zm-1,0a1.44,1.44,0,0,0-.37-1,1.19,1.19,0,0,0-.9-.39,1.15,1.15,0,0,0-.89.39,1.52,1.52,0,0,0,0,2,1.21,1.21,0,0,0,.89.37,1.25,1.25,0,0,0,.9-.37A1.46,1.46,0,0,0,534.8,283.23Z" style="fill:#ebebeb"></path><path d="M542.36,283.25V285a2.31,2.31,0,0,1-3.33,2.07.52.52,0,0,1-.23-.7.54.54,0,0,1,.7-.24,1.09,1.09,0,0,0,.54.14,1.31,1.31,0,0,0,1.27-1,2.24,2.24,0,0,1-1.27.38,2.22,2.22,0,0,1-1.63-.73,2.38,2.38,0,0,1-.68-1.69,2.51,2.51,0,0,1,.68-1.72,2.28,2.28,0,0,1,1.63-.71,2.17,2.17,0,0,1,1.29.4.52.52,0,0,1,.52-.4.51.51,0,0,1,.51.51v1.92Zm-1,0a1.54,1.54,0,0,0-.37-1,1.2,1.2,0,0,0-.92-.41,1.15,1.15,0,0,0-.88.41,1.45,1.45,0,0,0-.39,1,1.4,1.4,0,0,0,.39,1,1.16,1.16,0,0,0,.88.39,1.22,1.22,0,0,0,.92-.39A1.48,1.48,0,0,0,541.33,283.24Z" style="fill:#ebebeb"></path><path d="M544.07,283.22a2.39,2.39,0,0,1,2.35-2.41,2.3,2.3,0,0,1,2.32,2.23v0a.28.28,0,0,1,0,.09.46.46,0,0,1-.5.38h-3.06a1.2,1.2,0,0,0,.33.64,1.47,1.47,0,0,0,.92.43,1.57,1.57,0,0,0,1-.24.55.55,0,0,1,.72,0,.43.43,0,0,1,0,.63,2.44,2.44,0,0,1-1.72.63A2.38,2.38,0,0,1,544.07,283.22Zm1-.47h2.73a1.59,1.59,0,0,0-1.43-1A1.35,1.35,0,0,0,545.12,282.75Z" style="fill:#ebebeb"></path><path d="M549.15,286.71a.45.45,0,0,1,.45-.45h5.82a.45.45,0,1,1,0,.9H549.6A.45.45,0,0,1,549.15,286.71Z" style="fill:#ebebeb"></path><path d="M560.46,283.29a2.34,2.34,0,0,1-4.66.25s0,0,0,0c0-.19,0-.37,0-.55a5.69,5.69,0,0,1,.34-2,3.39,3.39,0,0,1,1.24-1.64,2.8,2.8,0,0,1,1.45-.46.54.54,0,0,1,.55.51.56.56,0,0,1-.52.56,1.8,1.8,0,0,0-.9.27,2.13,2.13,0,0,0-.61.68,1.45,1.45,0,0,0-.12.25,2.17,2.17,0,0,1,.92-.2A2.33,2.33,0,0,1,560.46,283.29Zm-1.07,0a1.27,1.27,0,1,0-2.53,0,1.27,1.27,0,1,0,2.53,0Z" style="fill:#ebebeb"></path><rect x="175.08" y="162.71" width="40.87" height="40.87" transform="translate(391.03 366.28) rotate(180)" style="fill:#ebebeb"></rect><rect x="177.49" y="165.11" width="36.06" height="36.06" transform="translate(391.03 366.28) rotate(180)" style="fill:#dbdbdb"></rect><path d="M183.29,173.72a3.41,3.41,0,1,0,2.68-2.67A3.41,3.41,0,0,0,183.29,173.72Z" style="fill:#c7c7c7"></path><polygon points="187.49 191.81 213.55 191.81 200.52 177.2 187.49 191.81" style="fill:#c7c7c7"></polygon><polygon points="177.49 191.81 199 191.81 188.24 182.3 177.49 191.81" style="fill:#a6a6a6"></polygon><rect x="177.49" y="191.81" width="36.06" height="9.36" style="fill:#a6a6a6"></rect><path d="M281.3,209.3h-4v-.75h4Zm-8,0h-4v-.75h4Zm-8,0h-4v-.75h4Zm-8,0h-4v-.75h4Zm-8,0h-4v-.75h4Zm-8,0h-4v-.75h4Zm-8,0h-4v-.75h4Zm-8,0h-4v-.75h4Zm-8,0h-4v-.75h4Zm-8,0h-4v-.75h4Zm-8,0h-4v-.75h4Zm-8,0h-4v-.75h4Zm-8,0h-4v-.75h4Zm-8,0h-4v-.75h4Zm-7.15-.85h-.75v-4h.75Zm111.52-1.71h-.75v-4h.75Zm-111.52-6.29h-.75v-4h.75Zm111.52-1.71h-.75v-4h.75Zm-111.52-6.29h-.75v-4h.75Zm111.52-1.71h-.75v-4h.75Zm-111.52-6.29h-.75v-4h.75Zm111.52-1.71h-.75v-4h.75Zm-111.52-6.29h-.75v-4h.75Zm111.52-1.71h-.75v-4h.75Zm-111.52-6.29h-.75v-4h.75Zm111.52-1.71h-.75v-4h.75Zm-111.52-6.29h-.75V157h1.28v.75h-.53Zm111.52-1.71h-.75v-1h-2.24V157h3Zm-7-1h-4V157h4Zm-8,0h-4V157h4Zm-8,0h-4V157h4Zm-8,0h-4V157h4Zm-8,0h-4V157h4Zm-8,0h-4V157h4Zm-8,0h-4V157h4Zm-8,0h-4V157h4Zm-8,0h-4V157h4Zm-8,0h-4V157h4Zm-8,0h-4V157h4Zm-8,0h-4V157h4Zm-8,0h-4V157h4Z" style="fill:#c7c7c7"></path><path d="M220.9,164.77a.52.52,0,0,1,.53-.53.54.54,0,0,1,.54.53v5.68a.54.54,0,0,1-.54.53.52.52,0,0,1-.53-.53Z" style="fill:#ebebeb"></path><path d="M227.69,168.16v2.31a.51.51,0,0,1-.51.51.53.53,0,0,1-.52-.51v-2.31a1,1,0,0,0-2,0v2.28s0,.05,0,.07v0s0,0,0,.06v0a.54.54,0,0,1-.48.31h-.09a.52.52,0,0,1-.42-.5v-2.28h0v-1.49a.51.51,0,0,1,.51-.52.47.47,0,0,1,.46.29,2,2,0,0,1,1-.29,2,2,0,0,1,1.52.66,2,2,0,0,1,1.51-.66,2,2,0,0,1,2,2v2.28a.51.51,0,0,1-.51.51.52.52,0,0,1-.52-.51v-2.28a1,1,0,0,0-1-1A1,1,0,0,0,227.69,168.16Z" style="fill:#ebebeb"></path><path d="M236.89,168.58v1.89a.51.51,0,0,1-.51.51.52.52,0,0,1-.5-.41,2.17,2.17,0,0,1-1.28.41,2.23,2.23,0,0,1-1.63-.7,2.44,2.44,0,0,1-.66-1.7,2.4,2.4,0,0,1,.66-1.69,2.21,2.21,0,0,1,1.63-.72,2.18,2.18,0,0,1,1.28.42.52.52,0,0,1,.5-.42.51.51,0,0,1,.51.52Zm-1,0a1.42,1.42,0,0,0-.37-1,1.19,1.19,0,0,0-.9-.39,1.15,1.15,0,0,0-.89.39,1.42,1.42,0,0,0-.37,1,1.46,1.46,0,0,0,.37,1,1.21,1.21,0,0,0,.89.37,1.25,1.25,0,0,0,.9-.37A1.46,1.46,0,0,0,235.87,168.58Z" style="fill:#ebebeb"></path><path d="M243.42,168.6v1.79a2.32,2.32,0,0,1-2.31,2.32,2.19,2.19,0,0,1-1-.25.51.51,0,0,1-.23-.69.52.52,0,0,1,.69-.24,1.15,1.15,0,0,0,.55.14,1.29,1.29,0,0,0,1.26-1,2.22,2.22,0,0,1-2.89-.35,2.39,2.39,0,0,1-.68-1.7,2.5,2.5,0,0,1,.68-1.71,2.28,2.28,0,0,1,1.63-.71,2.17,2.17,0,0,1,1.29.4.52.52,0,0,1,.51-.4.51.51,0,0,1,.51.51v1.91Zm-1,0a1.5,1.5,0,0,0-.36-1,1.2,1.2,0,0,0-.92-.41,1.15,1.15,0,0,0-.88.41,1.45,1.45,0,0,0,0,2,1.16,1.16,0,0,0,.88.39,1.22,1.22,0,0,0,.92-.39A1.5,1.5,0,0,0,242.39,168.59Z" style="fill:#ebebeb"></path><path d="M245.14,168.57a2.38,2.38,0,0,1,2.35-2.4,2.3,2.3,0,0,1,2.32,2.23v0a.28.28,0,0,1,0,.09.46.46,0,0,1-.5.38h-3.06a1.26,1.26,0,0,0,.32.64,1.53,1.53,0,0,0,.93.43,1.57,1.57,0,0,0,1-.24.55.55,0,0,1,.72,0,.44.44,0,0,1,0,.63,2.44,2.44,0,0,1-1.72.63A2.39,2.39,0,0,1,245.14,168.57Zm1.05-.47h2.72a1.57,1.57,0,0,0-1.42-1A1.35,1.35,0,0,0,246.19,168.1Z" style="fill:#ebebeb"></path><path d="M250.21,172.07a.46.46,0,0,1,.46-.45h5.81a.45.45,0,1,1,0,.9h-5.81A.46.46,0,0,1,250.21,172.07Z" style="fill:#ebebeb"></path><path d="M258.85,164.77v5.68a.54.54,0,0,1-.54.53.53.53,0,0,1-.53-.53v-4.73l-.38.22a.54.54,0,0,1-.27.07.49.49,0,0,1-.45-.27.51.51,0,0,1,.17-.72l1.18-.7,0,0s0,0,.05,0h.31l.06,0h0s0,0,.05,0l0,0,0,0,0,0,0,0,0,0v.05s0,0,0,.05a.07.07,0,0,0,0,0,.43.43,0,0,0,0,.05.07.07,0,0,0,0,.06Z" style="fill:#ebebeb"></path><rect x="175.08" y="220.66" width="40.87" height="40.87" transform="translate(391.03 482.19) rotate(180)" style="fill:#ebebeb"></rect><rect x="177.49" y="223.06" width="36.06" height="36.06" transform="translate(391.03 482.19) rotate(180)" style="fill:#dbdbdb"></rect><path d="M183.29,231.67A3.41,3.41,0,1,0,186,229,3.41,3.41,0,0,0,183.29,231.67Z" style="fill:#c7c7c7"></path><polygon points="187.49 249.77 213.55 249.77 200.52 235.15 187.49 249.77" style="fill:#c7c7c7"></polygon><polygon points="177.49 249.77 199 249.77 188.24 240.25 177.49 249.77" style="fill:#a6a6a6"></polygon><rect x="177.49" y="249.77" width="36.06" height="9.36" style="fill:#a6a6a6"></rect><path d="M281.3,267.25h-4v-.75h4Zm-8,0h-4v-.75h4Zm-8,0h-4v-.75h4Zm-8,0h-4v-.75h4Zm-8,0h-4v-.75h4Zm-8,0h-4v-.75h4Zm-8,0h-4v-.75h4Zm-8,0h-4v-.75h4Zm-8,0h-4v-.75h4Zm-8,0h-4v-.75h4Zm-8,0h-4v-.75h4Zm-8,0h-4v-.75h4Zm-8,0h-4v-.75h4Zm-8,0h-4v-.75h4Zm-7.15-.85h-.75v-4h.75Zm111.52-1.71h-.75v-4h.75ZM170.15,258.4h-.75v-4h.75Zm111.52-1.71h-.75v-4h.75ZM170.15,250.4h-.75v-4h.75Zm111.52-1.71h-.75v-4h.75ZM170.15,242.4h-.75v-4h.75Zm111.52-1.71h-.75v-4h.75ZM170.15,234.4h-.75v-4h.75Zm111.52-1.71h-.75v-4h.75ZM170.15,226.4h-.75v-4h.75Zm111.52-1.71h-.75v-4h.75ZM170.15,218.4h-.75v-3.46h1.28v.75h-.53Zm111.52-1.71h-.75v-1h-2.24v-.75h3Zm-7-1h-4v-.75h4Zm-8,0h-4v-.75h4Zm-8,0h-4v-.75h4Zm-8,0h-4v-.75h4Zm-8,0h-4v-.75h4Zm-8,0h-4v-.75h4Zm-8,0h-4v-.75h4Zm-8,0h-4v-.75h4Zm-8,0h-4v-.75h4Zm-8,0h-4v-.75h4Zm-8,0h-4v-.75h4Zm-8,0h-4v-.75h4Zm-8,0h-4v-.75h4Z" style="fill:#c7c7c7"></path><path d="M220.9,222a.52.52,0,0,1,.53-.52.53.53,0,0,1,.54.52v5.69a.54.54,0,0,1-.54.53.53.53,0,0,1-.53-.53Z" style="fill:#ebebeb"></path><path d="M227.69,225.36v2.31a.52.52,0,0,1-.51.52.54.54,0,0,1-.52-.52v-2.31a1,1,0,0,0-2,0v2.28s0,.05,0,.07v0s0,0,0,.06v0a.56.56,0,0,1-.48.31h-.09a.52.52,0,0,1-.42-.51v-2.28h0v-1.49a.51.51,0,0,1,.51-.52.49.49,0,0,1,.46.29,2.08,2.08,0,0,1,1-.29,2,2,0,0,1,1.52.67,2,2,0,0,1,1.51-.67,2,2,0,0,1,2,2v2.28a.52.52,0,0,1-.51.52.53.53,0,0,1-.52-.52v-2.28a1,1,0,0,0-1-1A1,1,0,0,0,227.69,225.36Z" style="fill:#ebebeb"></path><path d="M236.89,225.79v1.88a.52.52,0,0,1-.51.52.53.53,0,0,1-.5-.42,2.18,2.18,0,0,1-1.28.42,2.2,2.2,0,0,1-1.63-.71,2.51,2.51,0,0,1,0-3.39,2.21,2.21,0,0,1,1.63-.72,2.18,2.18,0,0,1,1.28.42.52.52,0,0,1,.5-.42.51.51,0,0,1,.51.52Zm-1,0a1.4,1.4,0,0,0-.37-1,1.2,1.2,0,0,0-.9-.4,1.16,1.16,0,0,0-.89.4,1.4,1.4,0,0,0-.37,1,1.46,1.46,0,0,0,.37,1,1.21,1.21,0,0,0,.89.37,1.25,1.25,0,0,0,.9-.37A1.46,1.46,0,0,0,235.87,225.79Z" style="fill:#ebebeb"></path><path d="M243.42,225.81v1.79a2.3,2.3,0,0,1-3.32,2.07.52.52,0,0,1,.46-.94,1.15,1.15,0,0,0,.55.14,1.28,1.28,0,0,0,1.26-1,2.22,2.22,0,0,1-2.89-.35,2.38,2.38,0,0,1-.68-1.69,2.52,2.52,0,0,1,.68-1.72,2.28,2.28,0,0,1,1.63-.71,2.11,2.11,0,0,1,1.29.41.52.52,0,0,1,.51-.41.51.51,0,0,1,.51.51v1.92Zm-1,0a1.53,1.53,0,0,0-.36-1,1.23,1.23,0,0,0-.92-.41,1.18,1.18,0,0,0-.88.41,1.45,1.45,0,0,0-.39,1,1.4,1.4,0,0,0,.39,1,1.16,1.16,0,0,0,.88.39,1.22,1.22,0,0,0,.92-.39A1.47,1.47,0,0,0,242.39,225.8Z" style="fill:#ebebeb"></path><path d="M245.14,225.78a2.39,2.39,0,0,1,2.35-2.41,2.3,2.3,0,0,1,2.32,2.23v.05a.28.28,0,0,1,0,.09.46.46,0,0,1-.5.38h-3.06a1.18,1.18,0,0,0,.32.64,1.56,1.56,0,0,0,1.93.19.55.55,0,0,1,.72,0,.44.44,0,0,1,0,.63,2.45,2.45,0,0,1-1.72.64A2.39,2.39,0,0,1,245.14,225.78Zm1.05-.47h2.72a1.54,1.54,0,0,0-1.42-1A1.33,1.33,0,0,0,246.19,225.31Z" style="fill:#ebebeb"></path><path d="M250.21,229.27a.46.46,0,0,1,.46-.45h5.81a.46.46,0,0,1,.46.45.47.47,0,0,1-.46.46h-5.81A.47.47,0,0,1,250.21,229.27Z" style="fill:#ebebeb"></path><path d="M261.2,227.66a.53.53,0,0,1-.53.53h-3.42a.52.52,0,0,1-.4-.18.53.53,0,0,1,0-.75l2.85-2.58a1.2,1.2,0,0,0,.4-.92,1.25,1.25,0,0,0-.31-.84,1.23,1.23,0,0,0-.93-.41,1.28,1.28,0,0,0-.84.32l-.29.27a.53.53,0,1,1-.72-.79l.3-.27a2.28,2.28,0,0,1,1.55-.59,2.34,2.34,0,0,1,1.72.76,2.28,2.28,0,0,1,.59,1.55,2.32,2.32,0,0,1-.76,1.71l-1.82,1.65h2.05A.53.53,0,0,1,261.2,227.66Z" style="fill:#ebebeb"></path><rect x="175.08" y="278.61" width="40.87" height="40.87" transform="translate(391.03 598.09) rotate(180)" style="fill:#ebebeb"></rect><rect x="177.49" y="281.02" width="36.06" height="36.06" transform="translate(391.03 598.09) rotate(180)" style="fill:#dbdbdb"></rect><path d="M183.29,289.62A3.41,3.41,0,1,0,186,287,3.41,3.41,0,0,0,183.29,289.62Z" style="fill:#c7c7c7"></path><polygon points="187.49 307.72 213.55 307.72 200.52 293.11 187.49 307.72" style="fill:#c7c7c7"></polygon><polygon points="177.49 307.72 199 307.72 188.24 298.2 177.49 307.72" style="fill:#a6a6a6"></polygon><rect x="177.49" y="307.72" width="36.06" height="9.36" style="fill:#a6a6a6"></rect><path d="M281.3,325.21h-4v-.75h4Zm-8,0h-4v-.75h4Zm-8,0h-4v-.75h4Zm-8,0h-4v-.75h4Zm-8,0h-4v-.75h4Zm-8,0h-4v-.75h4Zm-8,0h-4v-.75h4Zm-8,0h-4v-.75h4Zm-8,0h-4v-.75h4Zm-8,0h-4v-.75h4Zm-8,0h-4v-.75h4Zm-8,0h-4v-.75h4Zm-8,0h-4v-.75h4Zm-8,0h-4v-.75h4Zm-7.15-.85h-.75v-4h.75Zm111.52-1.72h-.75v-4h.75Zm-111.52-6.28h-.75v-4h.75Zm111.52-1.72h-.75v-4h.75Zm-111.52-6.28h-.75v-4h.75Zm111.52-1.72h-.75v-4h.75Zm-111.52-6.28h-.75v-4h.75Zm111.52-1.72h-.75v-4h.75Zm-111.52-6.28h-.75v-4h.75Zm111.52-1.72h-.75v-4h.75Zm-111.52-6.28h-.75v-4h.75Zm111.52-1.72h-.75v-4h.75Zm-111.52-6.28h-.75v-3.47h1.28v.75h-.53Zm111.52-1.72h-.75v-1h-2.24v-.75h3Zm-7-1h-4v-.75h4Zm-8,0h-4v-.75h4Zm-8,0h-4v-.75h4Zm-8,0h-4v-.75h4Zm-8,0h-4v-.75h4Zm-8,0h-4v-.75h4Zm-8,0h-4v-.75h4Zm-8,0h-4v-.75h4Zm-8,0h-4v-.75h4Zm-8,0h-4v-.75h4Zm-8,0h-4v-.75h4Zm-8,0h-4v-.75h4Zm-8,0h-4v-.75h4Z" style="fill:#c7c7c7"></path><path d="M220.9,279.41a.53.53,0,0,1,.53-.53.54.54,0,0,1,.54.53v5.68a.54.54,0,0,1-.54.53.52.52,0,0,1-.53-.53Z" style="fill:#ebebeb"></path><path d="M227.69,282.8v2.31a.51.51,0,0,1-.51.51.53.53,0,0,1-.52-.51V282.8a1,1,0,0,0-2,0v2.28s0,.05,0,.07v0s0,0,0,.06v.05a.55.55,0,0,1-.48.3h-.09a.51.51,0,0,1-.42-.5v-2.28h0v-1.49a.51.51,0,0,1,.51-.52.49.49,0,0,1,.46.29,2.08,2.08,0,0,1,1-.29,2,2,0,0,1,1.52.66,2,2,0,0,1,1.51-.66,2,2,0,0,1,2,2v2.28a.51.51,0,0,1-.51.51.52.52,0,0,1-.52-.51v-2.28a1,1,0,0,0-1-1A1,1,0,0,0,227.69,282.8Z" style="fill:#ebebeb"></path><path d="M236.89,283.23v1.88a.51.51,0,0,1-.51.51.52.52,0,0,1-.5-.41,2.17,2.17,0,0,1-1.28.41,2.23,2.23,0,0,1-1.63-.7,2.43,2.43,0,0,1-.66-1.69,2.41,2.41,0,0,1,.66-1.7,2.21,2.21,0,0,1,1.63-.72,2.18,2.18,0,0,1,1.28.42.52.52,0,0,1,.5-.42.51.51,0,0,1,.51.52Zm-1,0a1.44,1.44,0,0,0-.37-1,1.19,1.19,0,0,0-.9-.39,1.15,1.15,0,0,0-.89.39,1.52,1.52,0,0,0,0,2,1.21,1.21,0,0,0,.89.37,1.25,1.25,0,0,0,.9-.37A1.46,1.46,0,0,0,235.87,283.23Z" style="fill:#ebebeb"></path><path d="M243.42,283.25V285a2.3,2.3,0,0,1-3.32,2.07.52.52,0,0,1,.46-.94,1.15,1.15,0,0,0,.55.14,1.29,1.29,0,0,0,1.26-1,2.22,2.22,0,0,1-2.89-.35,2.38,2.38,0,0,1-.68-1.69,2.51,2.51,0,0,1,.68-1.72,2.28,2.28,0,0,1,1.63-.71,2.17,2.17,0,0,1,1.29.4.52.52,0,0,1,.51-.4.51.51,0,0,1,.51.51v1.92Zm-1,0a1.53,1.53,0,0,0-.36-1,1.2,1.2,0,0,0-.92-.41,1.15,1.15,0,0,0-.88.41,1.45,1.45,0,0,0-.39,1,1.4,1.4,0,0,0,.39,1,1.16,1.16,0,0,0,.88.39,1.22,1.22,0,0,0,.92-.39A1.47,1.47,0,0,0,242.39,283.24Z" style="fill:#ebebeb"></path><path d="M245.14,283.22a2.39,2.39,0,0,1,2.35-2.41,2.3,2.3,0,0,1,2.32,2.23v0a.28.28,0,0,1,0,.09.46.46,0,0,1-.5.38h-3.06a1.18,1.18,0,0,0,.32.64,1.53,1.53,0,0,0,.93.43,1.57,1.57,0,0,0,1-.24.55.55,0,0,1,.72,0,.44.44,0,0,1,0,.63,2.44,2.44,0,0,1-1.72.63A2.38,2.38,0,0,1,245.14,283.22Zm1.05-.47h2.72a1.56,1.56,0,0,0-1.42-1A1.35,1.35,0,0,0,246.19,282.75Z" style="fill:#ebebeb"></path><path d="M250.21,286.71a.46.46,0,0,1,.46-.45h5.81a.45.45,0,1,1,0,.9h-5.81A.46.46,0,0,1,250.21,286.71Z" style="fill:#ebebeb"></path><path d="M260.5,281.53a2.36,2.36,0,0,1,.7,1.69,2.39,2.39,0,0,1-4.08,1.69.54.54,0,1,1,.77-.77,1.29,1.29,0,0,0,.92.38,1.33,1.33,0,0,0,.92-.38,1.29,1.29,0,0,0,.38-.92,1.25,1.25,0,0,0-.38-.92,1.29,1.29,0,0,0-.92-.38.47.47,0,0,1-.39-.18h0a.55.55,0,0,1,0-.77l1-1h-1.56a.54.54,0,1,1,0-1.08h2.84a.54.54,0,0,1,.55.53.66.66,0,0,1-.06.26.71.71,0,0,1-.1.14l-1.21,1.25A2.25,2.25,0,0,1,260.5,281.53Z" style="fill:#ebebeb"></path></g><g id="freepik--Character--inject-9"><path d="M225,134.38c7.54,6.81,5.14,16.39,8.23,21.7,1.88,3.24,8.21,6.79,9.39,10.5,1.93,6.11-3.25,8.15-2.19,11.47,1.5,4.7,7.75,4.5,8.68,12.15s-7.67,15.55-27.64,17.23-30.71-5.89-31.25-12.38,6.13-8.47,6.7-13.29c.37-3.08-3.66-5.33-3.72-11s5.52-7.39,6.44-12.19-1.33-16.59,5.91-22.39S221.27,131,225,134.38Z" style="fill:#263238"></path><path d="M224.09,134.53a16.38,16.38,0,0,1,5,6,35.89,35.89,0,0,1,2.64,7.89,21.53,21.53,0,0,0,1.43,4.73,11.92,11.92,0,0,0,2.58,3.37c2.11,2,4.64,3.55,6.52,5.79s3.13,4.93,2.32,7.73c-.44,1.53-1.48,2.75-2.15,4.17s-.91,3,.22,4.19c1,1,2.41,1.47,3.52,2.29a12.73,12.73,0,0,1,2.83,2.89,9.72,9.72,0,0,1,1.63,7.7c-1.33,6.16-7.23,9.53-12.65,11.61l-2.28.85c-.11.05-.21-.12-.09-.17,5.45-2.27,11.77-4.94,14-10.9a9.11,9.11,0,0,0-.72-8,11.4,11.4,0,0,0-2.77-3.06c-1.06-.83-2.3-1.35-3.38-2.14a3.69,3.69,0,0,1-1.61-3.32,9,9,0,0,1,1.59-3.92,7.35,7.35,0,0,0,1.38-4.13,8.05,8.05,0,0,0-1.49-4c-1.62-2.42-4.06-4-6.23-5.89a13.47,13.47,0,0,1-4.68-6.83c-.37-1.43-.59-2.9-.91-4.34a38.83,38.83,0,0,0-1.09-4,18.6,18.6,0,0,0-4-7,11.22,11.22,0,0,0-1.61-1.4C224,134.59,224,134.48,224.09,134.53Z" style="fill:#263238"></path><path d="M189.44,190.28a7.55,7.55,0,0,1,1.46-2.86c.71-.86,1.57-1.58,2.36-2.37a5.68,5.68,0,0,0,1.69-2.64,5.36,5.36,0,0,0-.78-3.61,25.85,25.85,0,0,1-1.69-3.52,12.45,12.45,0,0,1-.66-3.73A12.76,12.76,0,0,1,194,164.2c.71-1.09,1.5-2.13,2.21-3.22a16.12,16.12,0,0,0,1.87-3.82c1-3,1.25-6.13,2.06-9.15a46.89,46.89,0,0,1,3.47-8.94c0-.08.14,0,.1.06a41.5,41.5,0,0,0-3,8.09c-.7,2.64-1,5.35-1.55,8A20.45,20.45,0,0,1,198,159.1a20.69,20.69,0,0,1-1.82,3.29c-1.4,2.16-2.84,4.28-3.28,6.88a12.09,12.09,0,0,0,1.09,7.48c1,2,2.4,4.23,1.43,6.52-.83,1.94-2.73,3.07-4,4.66a7.84,7.84,0,0,0-1.51,6.26c.92,5.6,6.44,8.51,11.66,8.92a.13.13,0,0,1,0,.26c-4.55-.18-9.44-2.3-11.46-6.61A9.67,9.67,0,0,1,189.44,190.28Z" style="fill:#263238"></path><path d="M218.91,179.81c8.52,4.46,38.1,17.17,46.56,12.64,5.56-3,31.9-25.74,32.75-30.31.59-3.12-17.45-18.17-19.52-15.48s-22.1,24.17-24.43,25.21-27.36-3.5-36-3.05C203.42,169.6,214.32,177.4,218.91,179.81Z" style="fill:#f7a9a0"></path><path d="M272.25,151.52l19.81,20.35S269.46,194.26,263,194.6s-31.11-6.77-45.05-14.75-8.11-13.53,3.81-12,30.61,3.9,31.92,3S272.25,151.52,272.25,151.52Z" style="fill:#FA57AE"></path><path d="M285.1,174.46q-4.12-4-8.05-8.15c-1.29-1.37-2.6-2.73-3.86-4.13s-2.51-3-3.81-4.41c-.1-.1.05-.26.15-.16,1.31,1.35,2.71,2.61,4,3.94s2.67,2.82,4,4.23q3.93,4.18,7.66,8.56C285.29,174.42,285.18,174.54,285.1,174.46Z" style="fill:#263238"></path><path d="M247.24,191.52c-9.63-2.75-21.24-7.06-29.29-11.67-11.1-6.34-9.67-11.15-2.63-12.06Z" style="opacity:0.1"></path><path d="M218,167.94c2.35,3.43,11.24,17.2,14.23,24.95s20,95.7,16.43,99.78-35.64,3.22-40.38-3.21c-9-12.21-1.73-68.07-1.73-68.07s-1.36-30.31,4.93-45.88C214.16,168.76,218,167.94,218,167.94Z" style="fill:#FA57AE"></path><path d="M298.58,181.16a31.36,31.36,0,0,1,.57-11.3,31.15,31.15,0,0,1-.57,11.3Z" style="fill:#263238"></path><path d="M290,182.84a31.19,31.19,0,0,1-5.16-10.08A31.39,31.39,0,0,1,290,182.84Z" style="fill:#263238"></path><path d="M283.48,188.56a31.37,31.37,0,0,1-9.51-6.14,31.3,31.3,0,0,1,9.51,6.14Z" style="fill:#263238"></path><path d="M280.66,196.8a31.2,31.2,0,0,1-11.31-.57,31.42,31.42,0,0,1,11.31.57Z" style="fill:#263238"></path><path d="M282.33,205.35a31.36,31.36,0,0,1-10.08,5.15,31.27,31.27,0,0,1,10.08-5.15Z" style="fill:#263238"></path><path d="M288.06,211.91a31.67,31.67,0,0,1-6.15,9.5,31.1,31.1,0,0,1,6.15-9.5Z" style="fill:#263238"></path><path d="M296.29,214.73a31.13,31.13,0,0,1-.57,11.3,31.38,31.38,0,0,1,.57-11.3Z" style="fill:#263238"></path><path d="M304.84,213.05A31.59,31.59,0,0,1,310,223.13a31.39,31.39,0,0,1-5.16-10.08Z" style="fill:#263238"></path><path d="M311.4,207.33a31.21,31.21,0,0,1,9.51,6.15,31.4,31.4,0,0,1-9.51-6.15Z" style="fill:#263238"></path><path d="M314.22,199.09a31.42,31.42,0,0,1,11.31.57,31.42,31.42,0,0,1-11.31-.57Z" style="fill:#263238"></path><path d="M312.54,190.54a31.47,31.47,0,0,1,10.08-5.15,31.16,31.16,0,0,1-10.08,5.15Z" style="fill:#263238"></path><path d="M306.82,184a31.29,31.29,0,0,1,6.15-9.5,31.35,31.35,0,0,1-6.15,9.5Z" style="fill:#263238"></path><path d="M264.42,441.16c-1.89.61-55.74-.1-57.78-1.43-.78-.5-1.13-8.34-1.29-17.84,0-2.05-.06-4.17-.07-6.32-.09-14,.14-28.78.14-28.78l35,.19-.07,28.95-.25,6.32s20.5,9.49,22.58,11.18S266.31,440.56,264.42,441.16Z" style="fill:#f7a9a0"></path><path d="M264.42,441.16c-1.89.61-55.74-.1-57.78-1.43-.94-.61-1.27-12.07-1.36-24.16l35,.36-.25,6.32s20.5,9.49,22.58,11.18S266.31,440.56,264.42,441.16Z" style="fill:#ebebeb"></path><path d="M264.42,441.16c-1.89.61-55.74-.1-57.78-1.43-.78-.5-1.13-8.34-1.29-17.84l34.72.36s20.5,9.49,22.58,11.18S266.31,440.56,264.42,441.16Z" style="fill:#FA57AE"></path><path d="M263.67,439c-9-.34-45.45-.86-54.4-.52-.07,0-.07.06,0,.06,8.94.53,45.37.76,54.4.61C263.86,439.14,263.86,439,263.67,439Z" style="fill:#263238"></path><path d="M259.21,431.45a7.26,7.26,0,0,0-5.43,2.13,7,7,0,0,0-2.08,4.8c0,.05.1.05.11,0a8.38,8.38,0,0,1,7.4-6.82A.06.06,0,0,0,259.21,431.45Z" style="fill:#263238"></path><path d="M243.56,423.19c-3.61-.1-7.82,1.12-10.1,4.05-.09.11.07.24.18.18a49.89,49.89,0,0,1,10-3.78A.23.23,0,0,0,243.56,423.19Z" style="fill:#263238"></path><path d="M246.34,424.31c-3.62-.09-7.82,1.13-10.11,4.05-.08.12.08.24.19.19a49.83,49.83,0,0,1,10-3.79A.23.23,0,0,0,246.34,424.31Z" style="fill:#263238"></path><path d="M249.11,425.44c-3.61-.1-7.82,1.12-10.1,4.05-.09.11.07.23.18.18a50.54,50.54,0,0,1,10-3.79A.22.22,0,0,0,249.11,425.44Z" style="fill:#263238"></path><path d="M251.89,426.56c-3.62-.09-7.82,1.13-10.11,4.05-.08.11.08.24.19.18a50,50,0,0,1,10-3.78A.23.23,0,0,0,251.89,426.56Z" style="fill:#263238"></path><path d="M211.69,429.94c-4.06,0-4.13,6.26-.07,6.3S215.75,430,211.69,429.94Z" style="fill:#fff"></path><path d="M247.59,413.6c-1.8-1.54-4.13-.09-5.28,1.47a19,19,0,0,0-3.4,9.2.09.09,0,0,0,.11.1.44.44,0,0,0,.65.3c2.59-1.74,5.58-3.29,7.57-5.78C248.39,417.44,249.31,415.06,247.59,413.6Zm-4.53,7.62c-1.26.89-2.55,1.71-3.77,2.65.67-1.79,1.26-3.6,2.11-5.33a19.12,19.12,0,0,1,1.35-2.42c.8-1.18,4.39-4.15,4.69-.22C247.61,418.07,244.56,420.16,243.06,421.22Z" style="fill:#263238"></path><path d="M229.91,425.49c3.14.52,6.4-.33,9.5-.77a.44.44,0,0,0,.28-.65.1.1,0,0,0,0-.16,19,19,0,0,0-8.68-4.56c-1.9-.39-4.6.09-4.91,2.44S228.08,425.18,229.91,425.49Zm-2.15-2.09c-2.4-3.13,2.25-3.32,3.64-3a20.2,20.2,0,0,1,2.62.89c1.78.71,3.43,1.67,5.13,2.55-1.54.12-3.05.38-4.57.56C232.75,424.64,229.08,425.13,227.76,423.4Z" style="fill:#263238"></path><path d="M196.41,220.53s6.86,97.38,8.14,104.83c.29,1.69.33,10.88.24,22.7-.17,25.78-.32,72.27-.32,72.27l37.27.68s2.68-80.51,1.16-95.37-11.37-104.47-11.37-104.47Z" style="fill:#37474f"></path><path d="M240,413.91c-5.79-.24-4.12-.26-9.92-.42-2.84-.09-21.47-.6-24.13-.17-.06,0-.06.11,0,.13,2.65.52,21.29.69,24.13.71,5.8,0,4.13,0,9.93-.06C240.08,414.1,240.08,413.92,240,413.91Z" style="fill:#263238"></path><path d="M212.27,367.35q.09-8.82.19-17.65c.06-5.7.18-11.4,0-17.1-.34-11.53-2.47-22.91-3.93-34.34s-2.63-22.89-3.68-34.37c-1.17-12.88-2.18-25.77-3.27-38.65,0-.09-.14-.09-.13,0,1.49,23,3.2,46,6,68.87q1,8.53,2.28,17c.85,5.75,1.68,11.49,2,17.29s.3,11.36.26,17l-.15,17.64c-.11,13.06-.35,33.16-.46,46.22a.2.2,0,0,0,.39,0C211.89,397.69,212.15,379,212.27,367.35Z" style="fill:#263238"></path><path d="M187.86,220.37s15.41,97.54,16.69,105c.29,1.69.33,10.88.24,22.7v0l21.66-127Z" style="fill:#263238"></path><path d="M168.26,441.57c-1.91-.53-46.59-30.6-47.57-32.82-.38-.84,3.62-7.61,8.68-15.64,1.1-1.74,2.24-3.52,3.4-5.33,7.57-11.73,15.87-24,15.87-24l29.17,19.3L161.9,407.26l-3.66,5.15s12,19.16,12.77,21.72S170.17,442.1,168.26,441.57Z" style="fill:#f7a9a0"></path><path d="M168.26,441.57c-1.91-.53-46.59-30.6-47.57-32.82-.46-1,5.54-10.8,12.08-21l29.13,19.48-3.66,5.15s12,19.16,12.77,21.72S170.17,442.1,168.26,441.57Z" style="fill:#ebebeb"></path><path d="M168.26,441.57c-1.91-.53-46.59-30.6-47.57-32.82-.38-.84,3.62-7.61,8.68-15.64l28.87,19.3s12,19.16,12.77,21.72S170.17,442.1,168.26,441.57Z" style="fill:#FA57AE"></path><path d="M168.82,439.35c-7.36-5.23-37.57-25.6-45.25-30.2-.06,0-.09,0,0,0,7.19,5.34,37.56,25.47,45.2,30.28C168.9,439.57,169,439.46,168.82,439.35Z" style="fill:#263238"></path><path d="M169.22,430.59a7.27,7.27,0,0,0-5.71-1.19,7,7,0,0,0-4.37,2.87c0,.05.05.11.09.07a8.37,8.37,0,0,1,9.92-1.66C169.22,430.72,169.28,430.63,169.22,430.59Z" style="fill:#263238"></path><path d="M160.64,415.11c-3-2.06-7.16-3.34-10.67-2.14-.13,0-.07.24.05.25a49.87,49.87,0,0,1,10.43,2.3A.23.23,0,0,0,160.64,415.11Z" style="fill:#263238"></path><path d="M162.35,417.57c-3-2.06-7.16-3.34-10.67-2.14-.14.05-.07.24,0,.25A50.25,50.25,0,0,1,162.15,418,.23.23,0,0,0,162.35,417.57Z" style="fill:#263238"></path><path d="M164.06,420c-3-2.06-7.16-3.34-10.67-2.14-.14.05-.07.24.05.25a50.25,50.25,0,0,1,10.42,2.29A.23.23,0,0,0,164.06,420Z" style="fill:#263238"></path><path d="M165.76,422.49c-3-2.06-7.15-3.34-10.67-2.14-.13,0-.06.24.06.25a50.4,50.4,0,0,1,10.42,2.29A.22.22,0,0,0,165.76,422.49Z" style="fill:#263238"></path><path d="M130.27,403.32c-3.37-2.26-6.88,3-3.5,5.23S133.64,405.57,130.27,403.32Z" style="fill:#fff"></path><path d="M169.27,409.29c-.68-2.28-3.41-2.33-5.23-1.66a18.88,18.88,0,0,0-7.88,5.84.09.09,0,0,0,0,.14.45.45,0,0,0,.38.61c3.13,0,6.48.3,9.5-.7C167.83,412.94,169.9,411.45,169.27,409.29Zm-8,3.9c-1.54.06-3.07,0-4.61.15,1.55-1.13,3-2.33,4.68-3.3a19.2,19.2,0,0,1,2.46-1.29c1.32-.55,5.95-1.08,4,2.38C166.83,413,163.13,413.12,161.3,413.19Z" style="fill:#263238"></path><path d="M148,409.57c2.34,2.15,5.53,3.22,8.37,4.55.29.14.56-.13.59-.4a.09.09,0,0,0,.09-.12,18.86,18.86,0,0,0-4.77-8.56c-1.37-1.37-3.89-2.45-5.44-.65S146.59,408.31,148,409.57Zm-.66-2.93c-.3-3.94,3.7-1.55,4.67-.5a19.2,19.2,0,0,1,1.71,2.19c1.1,1.57,2,3.27,2.9,4.94-1.36-.74-2.76-1.36-4.14-2C150.8,410.41,147.46,408.81,147.3,406.64Z" style="fill:#263238"></path><path d="M161.34,410.74l-31.44-19.5s40-60,40.29-65.48c.45-8.11,5-41.58,8.73-68.67,0,0-5.94-14.81,6.08-36.8l46.56.85s-3.51,21.07-9.09,34.37A62.39,62.39,0,0,0,212,260.05s-5.74,60.45-6.05,68C205.36,343,161.34,410.74,161.34,410.74Z" style="fill:#37474f"></path><path d="M164.8,402.49c-4.92-3.22-3.46-2.37-8.41-5.53-2.43-1.55-18.38-11.71-20.92-12.72-.05,0-.11.07-.07.11,2,1.82,18.17,11.68,20.63,13.18,5,3.06,3.62,2.12,8.67,5.12C164.8,402.7,164.89,402.55,164.8,402.49Z" style="fill:#263238"></path><path d="M224.25,254.62A77.08,77.08,0,0,0,212,260.05a.14.14,0,0,0,.11.25c4.11-1.68,8.31-3.28,12.32-5.18A.27.27,0,0,0,224.25,254.62Z" style="fill:#263238"></path><path d="M218.67,247.78c.45-2.43.82-4.86,1.07-7.32a66.52,66.52,0,0,0,.1-13.75.12.12,0,0,0-.23,0,125.31,125.31,0,0,1-1.46,19c-.51,3-2.12,7.54,1,8.06s5.43-7.05,5.86-9.13a69.45,69.45,0,0,0,1-18c0-.14-.25-.18-.26,0a135.28,135.28,0,0,1-.93,13.63c-.23,2.1-2.13,13.69-5.76,12.77-.61-.15-.91-.76-1-1.68a14.42,14.42,0,0,1,.55-3.55" style="fill:#263238"></path><path d="M219.2,253.33a18.44,18.44,0,0,0-.87,2.39,5.61,5.61,0,0,0-.37,2c0,.12.18.14.25.05a6.78,6.78,0,0,0,.88-1.91c.29-.74.6-1.47.87-2.22A.41.41,0,0,0,219.2,253.33Z" style="fill:#263238"></path><path d="M190.41,223.32a43.79,43.79,0,0,0-3.63,7.6,47.85,47.85,0,0,0-2.22,8.12c-.29,1.38-.41,2.78-.58,4.17s-.22,2.8-.17,4.2a44.07,44.07,0,0,0,.82,8.34v.09q-1.94,17.58-4,35.16t-4.11,35.14l-.14,1.1-.06.55a1.86,1.86,0,0,1-.13.59,17.28,17.28,0,0,1-1.11,2c-.76,1.27-1.55,2.51-2.35,3.76-1.59,2.48-3.21,4.95-4.83,7.41-3.25,4.92-22.11,33.36-28.83,43.05l28.18-43.48c1.61-2.46,3.22-4.93,4.8-7.42.79-1.24,1.57-2.48,2.33-3.74.36-.61.77-1.3,1-1.85a1.41,1.41,0,0,0,.09-.48l.07-.55.12-1.1q2-17.56,4.12-35.12t4.24-35.11v.09a44.39,44.39,0,0,1-.73-8.45c0-1.42.13-2.83.22-4.24s.36-2.81.68-4.19a47,47,0,0,1,2.39-8.12A43.26,43.26,0,0,1,190.41,223.32Z" style="fill:#263238"></path><path d="M231.53,221.17l1.31-11.95A13.37,13.37,0,0,0,235.37,195c-1.45-3.51-10.51-21.72-16.53-25.78-5.65-3.81-10.22-2.5-13.28.56-9.79,9.8-16.3,26.79-20.56,50.56Z" style="fill:#ebebeb"></path><path d="M221,206a28.09,28.09,0,0,1,5.62,1.05c.92.29,1.83.64,2.74,1,.45.19.9.35,1.36.52a4.67,4.67,0,0,0,1.45.32s0,.09,0,.09a5.81,5.81,0,0,1-2.71-.26c-.93-.28-1.86-.63-2.8-.92-1.88-.6-3.77-1.19-5.67-1.6C220.88,206.22,220.89,206,221,206Z" style="fill:#263238"></path><path d="M216.49,208.62a28.84,28.84,0,0,1,4.62-.55,20,20,0,0,1,2.32.09l1.11.13c.41.05.82.19,1.23.23,0,0,0,.1,0,.1-.39,0-.77,0-1.16,0h-1.15c-.78,0-1.55,0-2.32,0-1.55,0-3.09,0-4.64.1C216.42,208.8,216.41,208.63,216.49,208.62Z" style="fill:#263238"></path><path d="M208.68,167.56c1.2,4,6.27,25.06,6.76,33.36s-8.53,95.87-13.2,98.67-34.93-7.78-37.49-15.36c-4.86-14.37,19.08-65.36,19.08-65.36s6.72-32.26,17.46-45.17C205.94,168.1,208.68,167.56,208.68,167.56Z" style="fill:#FA57AE"></path><rect x="242.06" y="144.62" width="114.85" height="114.85" transform="translate(0.58 -0.85) rotate(0.16)" style="fill:#ebebeb"></rect><rect x="248.82" y="151.38" width="101.33" height="101.33" transform="translate(0.58 -0.85) rotate(0.16)" style="fill:#FA57AE"></rect><path d="M333.9,175.65a9.56,9.56,0,1,1-7.48-7.52A9.57,9.57,0,0,1,333.9,175.65Z" style="opacity:0.1"></path><polygon points="321.98 226.47 248.75 226.26 285.48 185.31 321.98 226.47" style="opacity:0.1"></polygon><polygon points="350.08 226.55 289.62 226.38 319.93 199.73 350.08 226.55" style="fill:#FA57AE"></polygon><g style="opacity:0.2"><polygon points="350.08 226.55 289.62 226.38 319.93 199.73 350.08 226.55"></polygon></g><rect x="248.71" y="226.41" width="101.33" height="26.3" transform="translate(598.07 479.97) rotate(-179.84)" style="fill:#FA57AE"></rect><rect x="248.71" y="226.41" width="101.33" height="26.3" transform="translate(598.07 479.97) rotate(-179.84)" style="opacity:0.2"></rect><path d="M200.88,179.27c-5.88,14.6-12.49,45.69-9.08,50.94,5.9,9.08,20.31,19.59,29,24,2.94,1.5,14.32-21.13,10.89-22-4.1-1-20.37-13.69-20.5-14.59-.18-1.21-1-20.63-1.54-33.92C208.94,167.83,203.23,173.44,200.88,179.27Z" style="fill:#f7a9a0"></path><path d="M218.55,253.19c7.54,4.68,16.64,11,26.65,11.21a4.92,4.92,0,0,0,3.11-.91c4.49.19,5.92-1.87,5.92-1.87,4.23-1.11,5.41-3.42,5.41-3.42s5.27.16,5.9-3c.71-3.55-6.83-3.09-11.13-5.36-9.86-5.22-22.41-15.4-25.1-17.19Z" style="fill:#f7a9a0"></path><path d="M240.24,251.63a74.19,74.19,0,0,0,8.88,4.08,73.21,73.21,0,0,0,10.45,2.39.09.09,0,0,1,0,.18,38,38,0,0,1-19.38-6.52C240,251.67,240.09,251.55,240.24,251.63Z" style="fill:#263238"></path><path d="M236.22,257.12c2.93,1.28,8.1,3.49,18,4.39,0,0,0,.06,0,.06a34,34,0,0,1-18.09-4.31C236,257.16,236,257,236.22,257.12Z" style="fill:#263238"></path><path d="M234.12,260.11c5.07,2,8.51,2.6,14.17,3.36a0,0,0,0,1,0,.06c-6.52-.19-8.87-1-14.26-3.26C233.84,260.19,233.92,260,234.12,260.11Z" style="fill:#263238"></path><path d="M242.93,242.79c-1-1.18-.4-1.72,2.33-1.18s13,5,14.29,1.29-13.39-9.83-18-10.39a74.1,74.1,0,0,0-12.25.14C231.92,234.41,237.85,239.28,242.93,242.79Z" style="fill:#f7a9a0"></path><path d="M230.12,230.07l-12.83,24.87s-26.77-17.73-28.1-26.15,6.71-38.4,10.55-47.66,8.81-12.47,10.36,0,1.76,35.64,1.85,36.19S230.12,230.07,230.12,230.07Z" style="fill:#FA57AE"></path><path d="M213.67,249.2q2.34-5.22,5-10.33c.86-1.68,1.69-3.37,2.58-5s2-3.36,2.87-5.08c.06-.12.26,0,.19.09-.82,1.69-1.53,3.44-2.34,5.13s-1.75,3.47-2.63,5.2q-2.61,5.12-5.47,10.09A.08.08,0,1,1,213.67,249.2Z" style="fill:#263238"></path><path d="M217.13,221.17c-1.83-1.15-3.89-2.1-5.36-3.72a17.84,17.84,0,0,1-.37-3c-.63-9.31-.93-18.74-.77-28.05L211,191l.25,4.68c.23,4.66.62,14,.77,18.71a23.69,23.69,0,0,0,.2,2.82,33.29,33.29,0,0,0,5,3.92Z" style="fill:#263238"></path><path d="M212,189.23a5.48,5.48,0,0,1-1.15,4.07,27,27,0,0,1,1.15-4.07Z" style="fill:#263238"></path><path d="M197.23,188.22a163,163,0,0,0-4.55,17.57c-1.21,5.92-2.43,11.86-3.12,17.85a18.91,18.91,0,0,0-.08,4.44c.69,4.5,4.11,7.88,7.31,10.9,2.21,2.05,4.54,4,6.91,5.86s4.75,3.75,7.16,5.6a159.14,159.14,0,0,1-14.5-11c-4.75-4.2-8.85-9.12-7.51-15.88a176.25,176.25,0,0,1,8.38-35.35Z" style="fill:#263238"></path><path d="M195.94,189.35a14.86,14.86,0,0,0-.4,4.65,4.28,4.28,0,0,1,.4-4.65Z" style="fill:#263238"></path><path d="M208.68,170.22c.09,1,6.08,7.85,10.38,8.26,1.4.13.05-7.67.05-7.67l.21-.55,2.87-7.62-8.4-7.24-1.22-1s-.65,2.14-1.43,4.8l-.12.38c0,.15-.09.29-.13.44-.12.39-.24.8-.36,1.21s-.17.61-.25.93l-.26,1A52.46,52.46,0,0,0,208.68,170.22Z" style="fill:#f7a9a0"></path><path d="M211.14,159.23a16.29,16.29,0,0,0,8.18,11l2.87-7.62-8.4-7.24-1.22-1S211.92,156.57,211.14,159.23Z" style="fill:#263238"></path><path d="M234.9,150.36c1,14.25-7.4,16.48-10.47,16.7-2.79.19-12.32.51-14.81-13.56s3.81-19.06,10.16-19.85S233.87,136.1,234.9,150.36Z" style="fill:#f7a9a0"></path><path d="M232.37,148.71a7.94,7.94,0,0,1-1-.2,1.58,1.58,0,0,1-1-.39.5.5,0,0,1,0-.62,1.26,1.26,0,0,1,1.24-.3,1.91,1.91,0,0,1,1.17.65A.54.54,0,0,1,232.37,148.71Z" style="fill:#263238"></path><path d="M222.72,149c.33-.05.63-.16,1-.24a1.59,1.59,0,0,0,.92-.44.51.51,0,0,0,0-.62,1.27,1.27,0,0,0-1.26-.24,1.86,1.86,0,0,0-1.13.7A.54.54,0,0,0,222.72,149Z" style="fill:#263238"></path><path d="M224.86,151.53s-.08.05-.08.09c.06,1,0,2.1-.9,2.45,0,0,0,.05,0,.05C225,153.94,225.07,152.44,224.86,151.53Z" style="fill:#263238"></path><path d="M224,150.54c-1.57-.07-1.6,3.07-.15,3.14S225.27,150.6,224,150.54Z" style="fill:#263238"></path><path d="M223.34,150.7c-.28.18-.55.49-.88.52s-.67-.3-.92-.62c0,0,0,0,0,0,0,.6.21,1.22.85,1.32s1-.45,1.18-1.05C223.55,150.8,223.45,150.63,223.34,150.7Z" style="fill:#263238"></path><path d="M230.15,151.53s.07,0,.07.08c-.05,1,.06,2.1.94,2.44,0,0,0,.06,0,0C230.08,153.93,230,152.44,230.15,151.53Z" style="fill:#263238"></path><path d="M231,150.53c1.56-.09,1.63,3.05.18,3.13S229.72,150.6,231,150.53Z" style="fill:#263238"></path><path d="M231.7,150.72c.25.16.5.46.8.47s.59-.33.8-.66c0,0,0,0,0,0,0,.6-.16,1.23-.73,1.36s-.92-.39-1.08-1C231.51,150.83,231.59,150.65,231.7,150.72Z" style="fill:#263238"></path><path d="M224.81,159.39c.23.24.44.56.79.61a2.58,2.58,0,0,0,1.06-.18,0,0,0,0,1,0,.05,1.31,1.31,0,0,1-1.26.46,1,1,0,0,1-.72-.9A.05.05,0,0,1,224.81,159.39Z" style="fill:#263238"></path><path d="M228.88,155.86s.2,1.46.2,2.14c0,.07-.16.1-.4.11h0a3.26,3.26,0,0,1-3.17-1.21c-.05-.07,0-.14.1-.1a4.84,4.84,0,0,0,3,.85c.05-.19-.43-2.48-.32-2.48a5.61,5.61,0,0,1,1.55.35c-.33-3-1.15-6-1.44-9,0-.1.15-.14.18,0a49.6,49.6,0,0,1,2,9.66C230.57,156.49,229.15,156,228.88,155.86Z" style="fill:#263238"></path><path d="M228.22,157.74a3.42,3.42,0,0,1-1.35,1.15,1.65,1.65,0,0,1-1,.11c-.7-.16-.75-.79-.64-1.34a3.79,3.79,0,0,1,.27-.85A4.58,4.58,0,0,0,228.22,157.74Z" style="fill:#263238"></path><path d="M226.87,158.89a1.65,1.65,0,0,1-1,.11c-.7-.16-.75-.79-.64-1.34A1.63,1.63,0,0,1,226.87,158.89Z" style="fill:#ff9cbd"></path><path d="M211,156a5.82,5.82,0,0,0,2.92-5,15.08,15.08,0,0,0,5.82-5.39c-.07.3-.61,2.44-.91,3.52,8.81-2.29,11.09-9.31,11.09-9.31a15.51,15.51,0,0,1,4.29,5.39s-.32-5.48-3.39-8.95a8.83,8.83,0,0,0-8.39-3.07,12.64,12.64,0,0,0-12.06,4.64C205,144.56,211,156,211,156Z" style="fill:#263238"></path><path d="M225.48,147.19a16.54,16.54,0,0,1-4.46,2s0,0,0,0a14.08,14.08,0,0,0,6.28-4.41,13.71,13.71,0,0,0,1.74-2.83,9.26,9.26,0,0,0,.95-3.48.07.07,0,0,1,.14,0,10.7,10.7,0,0,1-.47,3.56,9.6,9.6,0,0,1-1.78,3.1,11,11,0,0,1-2.39,2.08" style="fill:#263238"></path><path d="M213.08,153.57s-3.06-4.5-5.1-3.42.21,7.58,2.58,8.5a2.41,2.41,0,0,0,3.25-1.25Z" style="fill:#f7a9a0"></path><path d="M208.67,152s0,.05,0,.06a6.1,6.1,0,0,1,3.1,3.87,1.33,1.33,0,0,0-2-.4s0,.1,0,.09a1.5,1.5,0,0,1,1.63.54,7.75,7.75,0,0,1,.77,1.34c.07.15.34.07.29-.1v0C212.56,155.24,211,152.24,208.67,152Z" style="fill:#263238"></path><path d="M273.49,146.81c3.37-2.06,7.33-6.76,10.2-7.41a3.38,3.38,0,0,1,3.73,1.49s1.14-3,3.83-3.2c1.39-.08,2.74,2.06,2.74,2.06a4,4,0,0,1,3.42-2.39c1.92,0,3,2.14,3,2.14s2.05-1.84,4-1.21c4,1.27,5.66,17.63-.1,20.79-2.69,1.47-2.89-2.55-2.89-2.55s-1.11,5.85-4.47,6.29-3.31-4.8-3.31-4.8-1.12,5.66-4.65,5.76c-3.68.11-2.73-5.12-2.73-5.12s-2.09,3.89-4.81,3.35c-4.49-.89.26-8.35-1-11.86l-6.14-1.36Z" style="fill:#f7a9a0"></path><path d="M278.3,143c-3.36,1.67-8.14-2.21-11.58-1.08-4.66,1.53.57,6.41,7.62,6.88l5.54-.6Z" style="fill:#f7a9a0"></path><path d="M300.61,139.82a0,0,0,0,1,.09,0,28.55,28.55,0,0,1,.75,17c-.05.18-.36.17-.34,0A58.32,58.32,0,0,0,300.61,139.82Z" style="fill:#263238"></path><path d="M294,139.67c0-.07.1-.09.12,0a26.72,26.72,0,0,1-.33,18.55c-.09.2-.37.3-.29.06C294.9,154.15,295,144.89,294,139.67Z" style="fill:#263238"></path><path d="M285.93,159c2.21-5.84,2.33-11.79,1.57-17.93,0-.08.11-.08.14,0,1.18,2.9,1.26,6.86,1.05,9.95a16.36,16.36,0,0,1-2.56,8.07C286.07,159.21,285.88,159.16,285.93,159Z" style="fill:#263238"></path></g></svg>
