<svg xmlns="http://www.w3.org/2000/svg" viewBox="0 0 500 500"><g id="freepik--Floor--inject-5"><ellipse id="freepik--floor--inject-5" cx="249.53" cy="345.84" rx="231.15" ry="133.46" style="fill:#f5f5f5"></ellipse></g><g id="freepik--Shadows--inject-5"><ellipse id="freepik--Shadow--inject-5" cx="155.92" cy="386.45" rx="66.14" ry="38.19" style="fill:#e6e6e6"></ellipse><ellipse id="freepik--shadow--inject-5" cx="300.81" cy="413.25" rx="55.19" ry="31.86" style="fill:#e6e6e6"></ellipse></g><g id="freepik--Chair--inject-5"><g id="freepik--chair--inject-5"><path d="M327.89,395.53c-14.71-8.5-38.57-8.5-53.29,0-7.36,4.25-11,9.82-11,15.38,0,.58,0,3.06,0,3.72.11,5.48,3.78,10.94,11,15.12,14.72,8.49,38.58,8.49,53.29,0,7.28-4.2,10.95-9.69,11-15.2,0-.64,0-3.12,0-3.72C338.88,405.29,335.21,399.76,327.89,395.53Z" style="fill:#FF72A8"></path><path d="M327.89,395.53c-14.71-8.5-38.57-8.5-53.29,0-7.36,4.25-11,9.82-11,15.38,0,.58,0,3.06,0,3.72.11,5.48,3.78,10.94,11,15.12,14.72,8.49,38.58,8.49,53.29,0,7.28-4.2,10.95-9.69,11-15.2,0-.64,0-3.12,0-3.72C338.88,405.29,335.21,399.76,327.89,395.53Z" style="fill:#fff;opacity:0.65"></path><ellipse cx="301.25" cy="410.91" rx="37.68" ry="21.76" style="fill:#FF72A8"></ellipse><ellipse cx="301.25" cy="410.91" rx="37.68" ry="21.76" style="fill:#fff;opacity:0.85"></ellipse><path d="M306.11,407.57h0V269.28H295.5V407.57h0a2.47,2.47,0,0,0,1.52,2.44,8.33,8.33,0,0,0,7.53,0A2.47,2.47,0,0,0,306.11,407.57Z" style="fill:#FF72A8"></path><path d="M306.11,407.57h0V269.28H295.5V407.57h0a2.47,2.47,0,0,0,1.52,2.44,8.33,8.33,0,0,0,7.53,0A2.47,2.47,0,0,0,306.11,407.57Z" style="fill:#fff;opacity:0.7000000000000001"></path><path d="M335.16,251.07c-18.73-10.81-49.1-10.82-67.83,0-9.36,5.41-14,12.49-14,19.58v8.7c0,7.09,4.67,14.18,14,19.58,18.73,10.82,49.1,10.82,67.83,0,9.37-5.4,14-12.49,14-19.58v-8.7C349.2,263.56,344.53,256.48,335.16,251.07Z" style="fill:#455a64"></path><path d="M335.16,246.84c-18.73-10.81-49.1-10.81-67.83,0-9.36,5.41-14,12.5-14,19.58v8.7c0,7.09,4.67,14.18,14,19.59,18.73,10.81,49.1,10.81,67.83,0,9.37-5.41,14-12.5,14-19.59v-8.7C349.2,259.34,344.53,252.25,335.16,246.84Z" style="fill:#FF72A8"></path><ellipse cx="301.25" cy="266.42" rx="47.96" ry="27.69" style="fill:#fff;opacity:0.5"></ellipse><path d="M331,354.63c-7-4-15.79-6.33-24.89-6.94v1.83c8.76.6,17.25,2.84,24,6.72,7.52,4.35,11.67,10.07,11.67,16.11s-4.15,11.77-11.67,16.12c-6.71,3.88-15.2,6.12-24,6.71a70,70,0,0,1-10.64-.05c-8.46-.69-16.62-2.91-23.1-6.66-7.53-4.35-11.67-10.07-11.67-16.12s4.14-11.76,11.67-16.11c6.48-3.75,14.64-6,23.1-6.66v-1.82c-8.8.68-17.29,3-24,6.87-8.13,4.7-12.6,11-12.6,17.72a16.43,16.43,0,0,0,3.26,9.63,29.12,29.12,0,0,0,9.34,8.1c6.74,3.9,15.23,6.2,24,6.88,1.91.16,3.83.23,5.75.23,1.63,0,3.26-.05,4.89-.16,9.1-.61,17.92-2.92,24.89-6.95,8.12-4.7,12.59-11,12.59-17.73S339.15,359.33,331,354.63Z" style="fill:#FF72A8"></path></g></g><g id="freepik--Mirrow--inject-5"><g id="freepik--mirrow--inject-5"><g id="freepik--Window--inject-5"><polygon points="446.24 184.88 441.38 187.68 332.22 124.61 337.07 121.8 446.24 184.88" style="fill:#FF72A8"></polygon><polygon points="446.24 184.88 441.38 187.68 332.22 124.61 337.07 121.8 446.24 184.88" style="opacity:0.2"></polygon><path d="M321.28,131.57l131,75.65V96.66L321.28,21Zm10.92-91,109.18,63v84.09l-109.18-63Z" style="fill:#FF72A8"></path><polygon points="332.2 124.66 337.05 121.85 337.05 43.36 332.2 40.56 332.2 124.66" style="fill:#FF72A8"></polygon><polygon points="332.2 124.66 337.05 121.85 337.05 43.36 332.2 40.56 332.2 124.66" style="opacity:0.4"></polygon><polygon points="321.28 21.02 326.13 18.21 457.15 93.86 452.3 96.66 321.28 21.02" style="fill:#FF72A8"></polygon><polygon points="321.28 21.02 326.13 18.21 457.15 93.86 452.3 96.66 321.28 21.02" style="opacity:0.2"></polygon><polygon points="457.15 93.86 452.3 96.66 452.3 207.22 457.15 204.42 457.15 93.86" style="fill:#FF72A8"></polygon><polygon points="457.15 93.86 452.3 96.66 452.3 207.22 457.15 204.42 457.15 93.86" style="opacity:0.4"></polygon></g><circle cx="442.24" cy="103.15" r="8.12" transform="translate(56.59 342.92) rotate(-45)" style="fill:#FF72A8"></circle><circle cx="442.24" cy="126.65" r="8.12" transform="translate(217.37 527.96) rotate(-76.72)" style="fill:#FF72A8"></circle><circle cx="442.24" cy="150.16" r="8.12" transform="translate(23.35 356.69) rotate(-45)" style="fill:#FF72A8"></circle><circle cx="442.24" cy="173.67" r="8.12" transform="translate(171.61 564.18) rotate(-76.72)" style="fill:#FF72A8"></circle><circle cx="442.24" cy="197.08" r="8.12" transform="translate(-9.83 370.43) rotate(-45)" style="fill:#FF72A8"></circle><circle cx="323.11" cy="33.12" r="8.12" transform="translate(216.64 339.97) rotate(-76.72)" style="fill:#FF72A8"></circle><circle cx="323.11" cy="57.62" r="8.12" transform="translate(53.89 245.35) rotate(-45)" style="fill:#FF72A8"></circle><circle cx="323.11" cy="82.13" r="8.12" transform="translate(168.94 377.73) rotate(-76.72)" style="fill:#FF72A8"></circle><circle cx="323.11" cy="105.64" r="8.12" transform="translate(19.93 259.41) rotate(-45)" style="fill:#FF72A8"></circle><circle cx="323.11" cy="129.05" r="8.12" transform="translate(3.39 266.27) rotate(-45)" style="fill:#FF72A8"></circle><circle cx="342.96" cy="44.79" r="8.12" transform="translate(220.58 368.28) rotate(-76.72)" style="fill:#FF72A8"></circle><circle cx="362.82" cy="56.46" r="8.12" style="fill:#FF72A8"></circle><circle cx="382.67" cy="68.13" r="8.12" transform="translate(3.06 151.63) rotate(-22.5)" style="fill:#FF72A8"></circle><circle cx="402.53" cy="79.8" r="8.12" transform="translate(232.38 453.23) rotate(-76.72)" style="fill:#FF72A8"></circle><circle cx="422.38" cy="91.47" r="8.12" transform="translate(59.03 325.46) rotate(-45)" style="fill:#FF72A8"></circle><circle cx="342.96" cy="141.34" r="8.12" transform="translate(126.61 442.65) rotate(-76.72)" style="fill:#FF72A8"></circle><circle cx="362.82" cy="153.01" r="8.12" transform="translate(-1.93 301.37) rotate(-45)" style="fill:#FF72A8"></circle><circle cx="382.67" cy="164.68" r="8.12" transform="translate(-33.89 158.98) rotate(-22.5)" style="fill:#FF72A8"></circle><circle cx="402.53" cy="176.36" r="8.12" transform="translate(-6.8 336.28) rotate(-45)" style="fill:#FF72A8"></circle><circle cx="422.38" cy="188.03" r="8.12" transform="translate(-9.24 353.74) rotate(-45)" style="fill:#FF72A8"></circle><g style="opacity:0.8"><circle cx="442.24" cy="103.15" r="8.12" transform="translate(56.59 342.92) rotate(-45)" style="fill:#fff"></circle><circle cx="442.24" cy="126.65" r="8.12" transform="translate(217.37 527.96) rotate(-76.72)" style="fill:#fff"></circle><circle cx="442.24" cy="150.16" r="8.12" transform="translate(23.35 356.69) rotate(-45)" style="fill:#fff"></circle><circle cx="442.24" cy="173.67" r="8.12" transform="translate(171.61 564.18) rotate(-76.72)" style="fill:#fff"></circle><circle cx="442.24" cy="197.08" r="8.12" transform="translate(-9.83 370.43) rotate(-45)" style="fill:#fff"></circle><circle cx="323.11" cy="33.12" r="8.12" transform="translate(216.64 339.97) rotate(-76.72)" style="fill:#fff"></circle><circle cx="323.11" cy="57.62" r="8.12" transform="translate(53.89 245.35) rotate(-45)" style="fill:#fff"></circle><circle cx="323.11" cy="82.13" r="8.12" transform="translate(168.94 377.73) rotate(-76.72)" style="fill:#fff"></circle><circle cx="323.11" cy="105.64" r="8.12" transform="translate(19.93 259.41) rotate(-45)" style="fill:#fff"></circle><circle cx="323.11" cy="129.05" r="8.12" transform="translate(3.39 266.27) rotate(-45)" style="fill:#fff"></circle><circle cx="342.96" cy="44.79" r="8.12" transform="translate(220.58 368.28) rotate(-76.72)" style="fill:#fff"></circle><circle cx="362.82" cy="56.46" r="8.12" style="fill:#fff"></circle><circle cx="382.67" cy="68.13" r="8.12" transform="translate(3.06 151.63) rotate(-22.5)" style="fill:#fff"></circle><circle cx="402.53" cy="79.8" r="8.12" transform="translate(232.38 453.23) rotate(-76.72)" style="fill:#fff"></circle><circle cx="422.38" cy="91.47" r="8.12" transform="translate(59.03 325.46) rotate(-45)" style="fill:#fff"></circle><circle cx="342.96" cy="141.34" r="8.12" transform="translate(126.61 442.65) rotate(-76.72)" style="fill:#fff"></circle><circle cx="362.82" cy="153.01" r="8.12" transform="translate(-1.93 301.37) rotate(-45)" style="fill:#fff"></circle><circle cx="382.67" cy="164.68" r="8.12" transform="translate(-33.89 158.98) rotate(-22.5)" style="fill:#fff"></circle><circle cx="402.53" cy="176.36" r="8.12" transform="translate(-6.8 336.28) rotate(-45)" style="fill:#fff"></circle><circle cx="422.38" cy="188.03" r="8.12" transform="translate(-9.24 353.74) rotate(-45)" style="fill:#fff"></circle></g><g style="opacity:0.05"><path d="M442.24,111.27a8.12,8.12,0,0,0,5.14-14.41c1.64,2.27,1.65,7.2-2.41,10.06-3.8,2.66-10.92-.06-10.85-3.77A8.12,8.12,0,0,0,442.24,111.27Z"></path><path d="M442.24,134.78a8.13,8.13,0,0,0,5.14-14.42c1.64,2.28,1.65,7.21-2.41,10.07-3.8,2.66-10.92-.06-10.85-3.78A8.12,8.12,0,0,0,442.24,134.78Z"></path><path d="M442.24,158.29a8.13,8.13,0,0,0,5.14-14.42c1.64,2.27,1.65,7.21-2.41,10.07-3.8,2.66-10.92-.07-10.85-3.78A8.12,8.12,0,0,0,442.24,158.29Z"></path><path d="M442.24,181.8a8.13,8.13,0,0,0,5.14-14.42c1.64,2.27,1.65,7.21-2.41,10.07-3.8,2.66-10.92-.07-10.85-3.78A8.12,8.12,0,0,0,442.24,181.8Z"></path><path d="M442.24,205.2a8.12,8.12,0,0,0,5.14-14.41C449,193.06,449,198,445,200.85c-3.8,2.67-10.92-.06-10.85-3.77A8.12,8.12,0,0,0,442.24,205.2Z"></path><path d="M323.11,41.24a8.12,8.12,0,0,0,5.14-14.41c1.64,2.27,1.65,7.2-2.41,10.06-3.8,2.66-10.92-.06-10.86-3.78A8.13,8.13,0,0,0,323.11,41.24Z"></path><path d="M323.11,65.75a8.13,8.13,0,0,0,5.14-14.42c1.64,2.27,1.65,7.21-2.41,10.07-3.8,2.66-10.92-.06-10.86-3.78A8.13,8.13,0,0,0,323.11,65.75Z"></path><path d="M323.11,90.26a8.13,8.13,0,0,0,5.14-14.42c1.64,2.27,1.65,7.21-2.41,10.07-3.8,2.66-10.92-.07-10.86-3.78A8.13,8.13,0,0,0,323.11,90.26Z"></path><path d="M323.11,113.77a8.13,8.13,0,0,0,5.14-14.42c1.64,2.27,1.65,7.21-2.41,10.07-3.8,2.66-10.92-.07-10.86-3.78A8.13,8.13,0,0,0,323.11,113.77Z"></path><path d="M323.11,137.17a8.12,8.12,0,0,0,5.14-14.41c1.64,2.27,1.65,7.2-2.41,10.06-3.8,2.67-10.92-.06-10.86-3.77A8.13,8.13,0,0,0,323.11,137.17Z"></path><path d="M343,52.91A8.12,8.12,0,0,0,348.1,38.5c1.65,2.27,1.65,7.2-2.41,10.06-3.79,2.67-10.91-.06-10.85-3.77A8.13,8.13,0,0,0,343,52.91Z"></path><path d="M362.82,64.58A8.12,8.12,0,0,0,368,50.17c1.64,2.27,1.65,7.21-2.41,10.06-3.8,2.67-10.92-.06-10.86-3.77A8.13,8.13,0,0,0,362.82,64.58Z"></path><path d="M382.67,76.25a8.12,8.12,0,0,0,5.14-14.41c1.65,2.27,1.65,7.21-2.41,10.06-3.79,2.67-10.91-.06-10.85-3.77A8.12,8.12,0,0,0,382.67,76.25Z"></path><path d="M402.53,87.93a8.13,8.13,0,0,0,5.14-14.42c1.64,2.27,1.65,7.21-2.41,10.06-3.8,2.67-10.92-.06-10.85-3.77A8.12,8.12,0,0,0,402.53,87.93Z"></path><path d="M422.38,99.6a8.12,8.12,0,0,0,5.14-14.42c1.65,2.27,1.66,7.21-2.41,10.07-3.79,2.66-10.91-.07-10.85-3.78A8.13,8.13,0,0,0,422.38,99.6Z"></path><path d="M343,149.46a8.12,8.12,0,0,0,5.14-14.41c1.65,2.27,1.65,7.21-2.41,10.06-3.79,2.67-10.91-.06-10.85-3.77A8.12,8.12,0,0,0,343,149.46Z"></path><path d="M362.82,161.14A8.13,8.13,0,0,0,368,146.72c1.64,2.27,1.65,7.21-2.41,10.06-3.8,2.67-10.92-.06-10.86-3.77A8.13,8.13,0,0,0,362.82,161.14Z"></path><path d="M382.67,172.81a8.12,8.12,0,0,0,5.14-14.42c1.65,2.27,1.65,7.21-2.41,10.07-3.79,2.66-10.91-.07-10.85-3.78A8.13,8.13,0,0,0,382.67,172.81Z"></path><path d="M402.53,184.48a8.12,8.12,0,0,0,5.14-14.41c1.64,2.27,1.65,7.2-2.41,10.06-3.8,2.66-10.92-.06-10.85-3.78A8.12,8.12,0,0,0,402.53,184.48Z"></path><path d="M422.38,196.15a8.12,8.12,0,0,0,5.14-14.41c1.65,2.27,1.66,7.2-2.41,10.06-3.79,2.67-10.91-.06-10.85-3.77A8.13,8.13,0,0,0,422.38,196.15Z"></path></g></g></g><g id="freepik--character-2--inject-5"><g id="freepik--Character--inject-5"><path d="M290.4,394.52l-1.29-.22c0-4.09.31-7.82-.67-9.77l2-5Z" style="fill:#263238"></path><path d="M294,376c-.35,2.8-2,5.64-2.23,11.16a47.49,47.49,0,0,0,0,7.06l-1.36.33v-15Z" style="fill:#263238"></path><path d="M261.81,397.62a3.63,3.63,0,0,0,.86,2.06c.69.55,2.89,2.41,10.1,2.13s9.75-2,12.26-4.19,3.27-8.06,3.69-10.83c.82-5.37,3.12-8.15,5.27-10.82a4.8,4.8,0,0,0,.27-2.78s-5.94-.46-8.65,6.08-4.89,14.13-10.74,15.84A90.64,90.64,0,0,1,261.81,397.62Z" style="fill:#37474f"></path><path d="M265.59,391.44c-2.24,1.85-3.92,2.66-3.77,4.42s2,2.61,3.49,3.08c3.51,1.13,7.52.78,11.06.22s7.54-2.14,9.12-5.48a13.88,13.88,0,0,0,.91-3.09,44.51,44.51,0,0,1,2.92-10.21,23,23,0,0,1,2-3.94c1-1.32,2.13-2.76,2.33-4.43.17-1.4-.86-3.39-2.22-5.53l0-.05a13.15,13.15,0,0,1-2-8.12l1-12.71-16.07,3.5,2.1,14.22c.56,3.72-.86,7.65-1.74,11.22A50.48,50.48,0,0,1,270.4,386a10.62,10.62,0,0,1-1.7,2.57A30.53,30.53,0,0,1,265.59,391.44Z" style="fill:#ffa8a7"></path><path d="M293.43,369.11c-.88-1.39-1.95-2.46-2.67-3.89a11.46,11.46,0,0,0-1.73,2.94h0c-1.89,3.56-2.35,9.21-4.21,14.79-1.39,4.19-3.62,6.38-6.66,7.46a12.11,12.11,0,0,1-5.94.55h0c-3.72-.59-2.8-3.26-2.8-3.26-.89,1.17-4.95,4.23-7.2,5.72-1.42.94-1.26,3-.38,4.22,1,.92,4.52,3.18,13.48,2.06,7.95-1,9.88-4.61,10.67-6.24a39.22,39.22,0,0,0,1.8-7.41,23.49,23.49,0,0,1,2.94-7.84c.19-.3.37-.58.54-.82h0c.55-.78,1.2-1.63,1.93-2.48.57-.66,1-1,1.18-1.6A5.54,5.54,0,0,0,293.43,369.11Z" style="fill:#455a64"></path><path d="M266.41,377.06l-1.3-.18c-.12-4.09.09-7.83-.94-9.75l1.81-5Z" style="fill:#263238"></path><path d="M269.46,358.42c-.27,2.8-1.84,5.69-1.91,11.21a46.76,46.76,0,0,0,.21,7.06l-1.35.37-.43-15Z" style="fill:#263238"></path><path d="M237.93,381a3.68,3.68,0,0,0,.91,2c.71.52,3,2.23,10.15,1.74s9.7-2.19,12.14-4.45,3-8.16,3.38-10.94c.67-5.39,2.88-8.23,4.95-11a4.87,4.87,0,0,0,.19-2.8s-5.95-.28-8.47,6.33-4.47,14.27-10.27,16.15A91,91,0,0,1,237.93,381Z" style="fill:#37474f"></path><path d="M241.52,374.7c-2.18,1.92-3.84,2.77-3.63,4.53s2.08,2.54,3.57,3c3.54,1,7.54.55,11.07-.11s7.47-2.36,9-5.74a14,14,0,0,0,.82-3.11A44.3,44.3,0,0,1,264.92,363a23,23,0,0,1,1.93-4c.92-1.35,2-2.82,2.2-4.5.13-1.4-1-3.36-2.38-5.46l0-.05a13.1,13.1,0,0,1-2.26-8.05l.65-12.74-15.95,4,2.51,14.15c.66,3.71-.64,7.68-1.42,11.27a51,51,0,0,1-4,11.56,11.61,11.61,0,0,1-1.63,2.62A32.06,32.06,0,0,1,241.52,374.7Z" style="fill:#ffa8a7"></path><path d="M268.7,351.57a46.74,46.74,0,0,1-2.78-3.81,11.7,11.7,0,0,0-1.64,3h0c-1.79,3.62-2.09,9.27-3.78,14.91-1.27,4.22-3.44,6.48-6.44,7.65a12.19,12.19,0,0,1-5.92.72h0c-3.74-.48-2.89-3.18-2.89-3.18-.86,1.2-4.83,4.37-7,5.93-1.39,1-1.17,3.05-.25,4.23,1,.89,4.61,3,13.53,1.67,7.92-1.22,9.74-4.9,10.48-6.55a39.67,39.67,0,0,0,1.58-7.46,23.43,23.43,0,0,1,2.72-7.92c.17-.31.35-.59.51-.84h0c.53-.79,1.15-1.66,1.86-2.53.55-.68,1-1,1.14-1.64A5.59,5.59,0,0,0,268.7,351.57Z" style="fill:#455a64"></path><path d="M336.06,242a53.19,53.19,0,0,0-4.95-12.8c-15.29,7.27-30.64,7.06-46.05,2.12.65,3.05-4.44,5.59-18.25,13h0c-9.82,5-20.32,11.21-25.86,16.62-2.85,2.79-3,5.85-1.58,14.82,1.9,12.14,9.71,56.57,9.71,56.57,10.47,3.72,15.86-2.46,15.86-2.46s1.64-16.2,3-29.26a50,50,0,0,0-3.77-23.93s31.79-7.23,43.66-9.68C327.62,262.9,338.66,260.37,336.06,242Z" style="fill:#37474f"></path><path d="M336.09,242.23h0a2.3,2.3,0,0,1,0-.26,53.19,53.19,0,0,0-4.95-12.8c-15.29,7.27-30.64,7.06-46.05,2.12.28,3-1.56,3.53-.77,7.44a27.75,27.75,0,0,0,10.42,16.81h0c-9.21,9-21.71,21.83-27.38,28.84-1.57,1.95-3.09,6-2.17,11.58,2,12.13,9.72,56.57,9.72,56.57,10.5,2.81,15.06-1.26,15.06-1.26s2.44-17.4,3.77-30.46a50,50,0,0,0-3.77-23.93s18.25-9.59,29.25-16.62C336.35,269.28,339.87,257.18,336.09,242.23Z" style="fill:#455a64"></path><path d="M294.71,255.54s9.75-9.32,15.1-11.93c0,0-13,5.15-20.32,12.2Z" style="fill:#37474f"></path><path d="M281.6,176.76c-2,5.5-5.48,28.93-6.47,35.64a6.57,6.57,0,0,1-1.41,3.21c-1.3,1.6-3.92,4.81-8.84,10.89-3.06,3.78-6.29,8.45-8.64,11.48-7.05,9.11-7.68,15.25-6.12,20.53,2.58,8.76,7.81,6.1,10.14-.67a31.65,31.65,0,0,1,4-8,16.2,16.2,0,0,0,.25,4.45c.63,2.35,2.46,2.81,3.32,2.66.67-.13.24-1.76.93-4.43,1-3.81,1.69-5.22,1.53-10.16a4.05,4.05,0,0,1,.82-2.6c4.15-5.3,8.8-10,12.77-14.18a20.85,20.85,0,0,0,5.46-11.33l6.64-46C289.94,168.52,284.16,169.53,281.6,176.76Z" style="fill:#ffa8a7"></path><path d="M331.68,172.76l-15.36-3.86-12.41-1-7,.34c-5.28,8-22.45,19.88-12.1,37.69,1.07,7.61.51,16.53.21,25.38,13.53,5.47,27.31,10.09,46.05-2.12-1.92-3.71-4.89-5.35-4.55-9.65l6-16.35S320.91,192.8,331.68,172.76Z" style="fill:#ffa8a7"></path><path d="M329.16,225.35c-.91-1.45-2.78-3.67-2.6-5.83l3.91-10.69h0l-2.85-12a14,14,0,0,0-2.37-5.33,39.77,39.77,0,0,1-.34-20.41L320.66,170a46.44,46.44,0,0,1-23.4,22.46L297,192c-.86-1.79-3.05-9.58,3.21-24l-4.3.16s-12.69,13.35-14.6,19.22c-1.24,3.83-2.75,10.81,3,19.11.18,4.5,0,7.65.15,16.36a43.46,43.46,0,0,1-.42,7.5c-.52,3.79-1.79,19.3,25.72,15.58a68.36,68.36,0,0,0,25.35-9.1A77.3,77.3,0,0,0,329.16,225.35Z" style="fill:#FF72A8"></path><path d="M299.25,206.66s4.37,5.05,13.3,3.2S323,201.15,323,201.15s.88,8.71-9.8,10.88C302.67,214.17,299.25,206.66,299.25,206.66Z" style="opacity:0.1"></path><path d="M312,109.12c-14.35-.82-25.61,6.13-26.4,21.25-.63,12,11.71,28.15,21.26,28.32l4.56.27a23.76,23.76,0,0,0,25.08-22.35A26,26,0,0,0,312,109.12Z" style="fill:#263238"></path><path d="M339.14,122.72c-4.22,4.17-8.54,1.26-13-3.22s-7.28-8.83-3.07-13,11.23-3.92,15.66.56S343.36,118.55,339.14,122.72Z" style="fill:#263238"></path><path d="M321.49,111.45a3.27,3.27,0,0,1-1.31-6.41Z" style="fill:#263238"></path><path d="M328.1,142.84a5.38,5.38,0,0,0-8.68,1s-1.89-3.53-7.95-6.38c-8.4-3.93-12.13-8.9-15.83-15.71-2.61,1.94-7.79,7.1-7.92,21.57-.11,12.3,3.25,15.75,5.17,16.8s5.81.83,9.61.53l-.36,7.5s-6.94,9.85-4.24,16.79c12.83-2.4,20.3-14.93,20.3-14.93l1.34-17s2,2.33,6-.62C328.87,149.93,330.3,145.48,328.1,142.84Z" style="fill:#ffa8a7"></path><path d="M313.18,147.05a3.7,3.7,0,1,1-3.69-3.69A3.7,3.7,0,0,1,313.18,147.05Z" style="fill:#f28f8f;opacity:0.4"></path><path d="M287.81,147.15a3.58,3.58,0,0,0,1,.15,3.47,3.47,0,1,0,0-6.93,3.32,3.32,0,0,0-1,.16c0,.89-.06,1.8-.07,2.76C287.71,144.7,287.74,146,287.81,147.15Z" style="fill:#f28f8f;opacity:0.4"></path><path d="M302.5,160.62c4-.18,9.68-.08,12.36-3.69,0,0,0,1.88-2.59,3.75s-9.94,2.4-9.94,2.4Z" style="fill:#f28f8f"></path><path d="M319.42,143.81l-1.18,4.54h0a4,4,0,0,1-2.8-4.75l1.68-7.25,3.68,1.22Z" style="fill:#263238"></path><path d="M303.45,150.75,299,151.84a2.26,2.26,0,0,0,2.73,1.77A2.41,2.41,0,0,0,303.45,150.75Z" style="fill:#b16668"></path><polygon points="299.18 138.06 298.25 147.9 293.17 145.94 299.18 138.06" style="fill:#f28f8f"></polygon><path d="M303.1,139.45a3.28,3.28,0,0,1,3.43-1.93,2.91,2.91,0,0,1,2.93,2.26,4,4,0,0,1-3.34,1.6A4.11,4.11,0,0,1,303.1,139.45Z" style="fill:#f28f8f"></path><path d="M303.1,139.45a3.08,3.08,0,0,0,3.09,2.34,3,3,0,0,0,3.27-2,4.81,4.81,0,0,1-6.36-.33Z" style="fill:#263238"></path><path d="M309.46,139.78a1.82,1.82,0,0,0,1.44-.35s-.15,1.44-2.17,1.26Z" style="fill:#263238"></path><path d="M289.44,137.35a3.35,3.35,0,0,1,3.62-1.55,2.84,2.84,0,0,1,2.67,2.55,4,4,0,0,1-3.49,1.24A4.09,4.09,0,0,1,289.44,137.35Z" style="fill:#f28f8f"></path><path d="M289.44,137.35a2.86,2.86,0,0,0,2.72,2.54,3.12,3.12,0,0,0,3.57-1.54,4.75,4.75,0,0,1-3.33.69A4.81,4.81,0,0,1,289.44,137.35Z" style="fill:#263238"></path><path d="M289.44,137.38a1.8,1.8,0,0,1-1.36-.61s-.11,1.45,1.9,1.64Z" style="fill:#263238"></path><path d="M290.49,132.58l4-.34a1.94,1.94,0,0,0-2.11-1.86A2.11,2.11,0,0,0,290.49,132.58Z" style="fill:#263238"></path><path d="M351.85,221.67c-1.62-7.46-5-20.28-8.37-33.57-3.66-14.37-7.05-14.5-15.86-16.12-8.84,4.49,0,27,0,27l7.54,26.11c-4.76,8.45-8.7,17.27-14.23,23.93-.95,1.14-2.66,1.1-4.14,1.26-4,.42-5.47,1.26-8.94,2.55-2.71,1-4.47.73-4.52,1.45-.07.92.6,2.79,3.13,3.19a16.6,16.6,0,0,0,4.68-.22,33.41,33.41,0,0,1-8,5c-6.82,3.16-9.05,8.92.39,10.68,5.7,1.06,12.05-.26,20.83-8.61a93.47,93.47,0,0,0,10.31-11.54C342.52,242,352.87,227.92,351.85,221.67Z" style="fill:#ffa8a7"></path><path d="M330.54,116.87s.19-4.74-2.14-4.91-4.66,1.85-4.18,3.08,3.5,3.07,3.5,3.07-4.66-1.07-4.47,1.46,1.14,3.33,2.53,3.11,3.25-2,3.25-2-2.28,3-1.41,4.28,3.52,2,4.44.82-.45-4.73-.45-4.73,1.95,3.48,3.55,2.4a4.06,4.06,0,0,0,2-3.75c-.13-1.17-5.07-1.25-5.07-1.25s5.2-.46,4.52-2.62-2.78-4.09-4-3.75S330.54,116.87,330.54,116.87Z" style="fill:#fafafa"></path><circle cx="330.16" cy="119.01" r="1.72" style="fill:#FF72A8"></circle></g></g><g id="freepik--character-1--inject-5"><g id="freepik--character--inject-5"><path d="M190.59,169.15c-2.75.77-6.35-3.05-8.7-5.73-14.72-16.78-19.29-21.75-25.74-32.62l1.51-22.46c10.43-.32,16,9.86,21.68,19.44a229.93,229.93,0,0,0,13.25,20.64s21.91-16.13,28.14-19.73,12.83-3.25,19-2.66,9.25,1.08,10.79,2.66c.76.79,2.18,4,1.73,4.6-1.34,1.82-6.34,1.64-6.34,1.64a10.67,10.67,0,0,1-9.68,6.88c-7.56.35-9.17-.56-11.05.43S201.42,166.11,190.59,169.15Z" style="fill:#ffa8a7"></path><path d="M174.33,155.72l-16-21.09s-8.51-16.8-2.48-26.61c0,0,10.42-.76,16,6.83,4.61,6.31,16,25.55,20.65,33.28l17.46-12.31s-.67,7,8.67,12.43a96.86,96.86,0,0,1-13.39,13.06c-8.4,6.88-13.25,9.65-15.91,9C186.15,169.45,178.15,160.94,174.33,155.72Z" style="fill:#ebebeb"></path><path d="M192.47,148.13s-4.15,3.42-5,6.66a9.85,9.85,0,0,1,4-8.38Z" style="fill:#e0e0e0"></path><path d="M234.51,130.34l-.3.52-.89-.32s.12,3.55-4.58,5.07a5.45,5.45,0,0,0,3.19-.68,2.28,2.28,0,0,0,.28,2.52,2.36,2.36,0,0,0,.26,2.46,2.57,2.57,0,0,0,2.66,1s-3.2-.9-2-3.41a2.46,2.46,0,0,1,.82-3.85,2.41,2.41,0,0,1,0-1.21l11.3,3.84a8.63,8.63,0,0,0,.61-1.33s.49,0,1.2,0l.23-1.28Z" style="fill:#f28f8f"></path><path d="M254.74,134c-.85-.33-2.3,3.35-1.45,3.68l-31-11.09c-2.15-.85.08-6.49,2.23-5.64Z" style="fill:#455a64"></path><path d="M242.94,134l10.35,3.7c-.85-.33.6-4,1.45-3.68l-10.09-4.35C243,129,241.33,133.35,242.94,134Z" style="fill:#FF72A8"></path><path d="M221.55,123.82c-.32,1.21-.19,2.41.71,2.77l31,11.09c-.39-.15-.3-1,0-1.85Z" style="opacity:0.1"></path><path d="M259.68,132.72a9,9,0,0,0-5.14,1.19,4.51,4.51,0,0,0-1.46,3.7A9,9,0,0,0,256,142a13.83,13.83,0,0,0,3.71,2.59L262,139l2.21-5.62A13.62,13.62,0,0,0,259.68,132.72Z" style="fill:#455a64"></path><path d="M258.31,142.14a9.47,9.47,0,0,1,3.14-8c2.14-1.69,4.21-.88,4.61,1.82a9.45,9.45,0,0,1-3.14,8C260.79,145.65,258.72,144.84,258.31,142.14Z" style="fill:#37474f"></path><path d="M219.72,129.27c2.56-1.79,5.56-5.1,11.41-5.45s9.18-1.69,10.45-.64-1.08,4.69-4.24,5.41c-4.36,1-4.23,2.83-5.81,3.61C231.08,132.43,219.72,129.27,219.72,129.27Z" style="fill:#ffa8a7"></path><rect x="115.86" y="362.79" width="12.9" height="23" style="fill:#ffa8a7"></rect><polygon points="156.72 363.88 169.76 364.34 170.41 339.73 156.72 339.26 156.72 363.88" style="fill:#ffa8a7"></polygon><path d="M114.58,174.73c0,11.75,1.74,106.36,1.74,106.36-.28,3.38-3.32,9.62-2.67,22.61.9,17.65,2.09,69.61,2.09,69.61a15,15,0,0,0,13.16.27s9.59-70.57,11.7-88.06c1.85-15.27,7.32-59.08,7.32-59.08l5.67,52.93a72.69,72.69,0,0,0-1.46,19.57c.55,8.09,4.35,55.8,4.35,55.8s5.57,3.93,13.65,1.09c0,0,6.72-69,6.86-76.46.16-8.46-3.93-104.77-3.93-104.77Z" style="fill:#FF72A8"></path><path d="M114.58,174.73c0,11.75,1.74,106.36,1.74,106.36-.28,3.38-3.32,9.62-2.67,22.61.9,17.65,2.09,69.61,2.09,69.61a15,15,0,0,0,13.16.27s9.59-70.57,11.7-88.06c1.85-15.27,7.32-59.08,7.32-59.08l5.67,52.93a72.69,72.69,0,0,0-1.46,19.57c.55,8.09,4.35,55.8,4.35,55.8s5.57,3.93,13.65,1.09c0,0,6.72-69,6.86-76.46.16-8.46-3.93-104.77-3.93-104.77Z" style="opacity:0.4"></path><path d="M128.76,379.16v-1.92c1.23.56,5.71,13.74,10.82,18.6,4.07,3.87,9.62,8.33,11,12.64,1.47,4.48-7.73,7-11.53,6.25-4.41-.81-12.07-4.05-14-7.05s-2.82-7.43-4.38-9.63-6.77-6.45-7.61-9c-.47-1.4.08-4.47.73-7.06.6-2.37,1.25-5,2-4.76v1.46c.94,1.09,3.53,2.16,6.45,2.28C124.2,381.05,128.77,380.66,128.76,379.16Z" style="fill:#37474f"></path><path d="M169.9,360.15c.68,0,1.23,1,2.72,2.71,1.81,2,7.64,5.54,10.55,7.06,4.89,2.55,14.38,6.47,18.68,8.48,2.68,1.26,2.56,4.64-.22,6.56s-9.47,3.31-17.52,1.43c-4.38-1-9.84-4.16-13.7-5-3.53-.78-13.24-1.15-15.91-3.06s-1.6-6-.84-9.51c.82-3.84,1.85-9.81,3.06-9.55v1.32c1.57,2.47,9.66,3.48,13.11,1.66Z" style="fill:#37474f"></path><path d="M148.45,221.15a39,39,0,0,0,15.2-9.4s-1.22,6-12.59,11.95l2,51.41-5.14-48.67Z" style="opacity:0.2"></path><path d="M118,111.83s-7.19,1.34-6.54,18.81l2.42,30.67c0,14.43-.2,27.41-.27,38.06a10.6,10.6,0,0,0,4.4,2.79l2-12.4,2.61,14.69c17,5.31,42.27,1.11,52.45-6.55-.54-10.57-1.38-49.29-2.56-68.07-.85-13.5-3.74-20.32-17-21.81l-16.34.72-11.22,1Z" style="fill:#f5f5f5"></path><path d="M154.82,187.53c8-1.82,16.48-7.69,19.36-13.11,0,0-.2-6.38-.44-13.64a206.52,206.52,0,0,0-21,13c-13,9.22-32.9,3.07-32.9,3.07L116.32,153s6.57-19.42,5.31-29.77l-10.17,2.4c-.09,1.52-.12,3.19,0,5.06l2.42,30.67c0,14.43-.2,27.41-.27,38.06a10.6,10.6,0,0,0,4.4,2.79l2-12.4,2.61,14.69c10,3.11,22.77,3,33.71.75-5.89.32-16.09.45-22.37-1.93a11.63,11.63,0,0,1-8-12.22S141.49,190.58,154.82,187.53Z" style="fill:#e0e0e0"></path><path d="M134.16,74.45c0,9.81,7.69,15,17.11,15s16.81-4.69,18.87-14.29c3.77-17.54-9.45-20.32-18.87-20.32S134.16,64.64,134.16,74.45Z" style="fill:#263238"></path><path d="M132.16,74.31l-2.25,2.46-1.17-13.48s-1.88-.47-3.87,2.65c-1.71,2.67-2.09,8.66.59,15.69,0,0,2.61,12.8,3.66,14.9a5.59,5.59,0,0,0,3.22,2.71Z" style="fill:#263238"></path><path d="M126.93,65.89l-6,.11a2.85,2.85,0,0,1,2.75-3.2A3.35,3.35,0,0,1,126.93,65.89Z" style="fill:#263238"></path><path d="M126.19,64.45l-4.48-4.3A2.89,2.89,0,0,1,126,60,3.29,3.29,0,0,1,126.19,64.45Z" style="fill:#263238"></path><path d="M131.86,82.22c-1,.62-2.4-1.36-3.61-2.69s-5-2.58-7,1.78,1.44,8.56,4.24,10.07c3.62,2,6.68-1.88,6.68-1.88l.43,21c2.33,3.6,7.36,2.93,10.75,4.35,2.45,1,3.09,4.35,4.4,5.46,2-5,3.4-7.22,2.41-10.35l0-6.17s4.89.77,7.28.39c4-.64,6.65-3.86,7.66-8.38,1.72-7.65,2.43-13.21,2.12-24.26C166.75,56.26,147,53,137.64,59.16S131.86,82.22,131.86,82.22Z" style="fill:#ffa8a7"></path><path d="M147.72,120.32c-1.2-1.83-.74-5.78-2.6-6.63-2.19-1-11.05-3.57-12.69-9.81l0-1.85s-1-.09-1.67,1.35l-2.88,6.39a13.27,13.27,0,0,0,5.43,9.34,19.11,19.11,0,0,0,9.81,3.67s.69-6.46,1.55-6.56S145.68,119.39,147.72,120.32Z" style="fill:#e0e0e0"></path><path d="M147.72,120.32a13,13,0,0,0,.8-4c0-1.49,0-2.42.66-3.31a5.71,5.71,0,0,0,.95-3c0-.83,0-5.42,0-5.42a1.89,1.89,0,0,1,1.84,1.16c.58,1.13,2.07,4.5,2.38,5.28s1.16,4.66.24,7.31a7.35,7.35,0,0,1-2.25,3.55s0-5.88-1.79-6.19C150,115.57,149.52,118.92,147.72,120.32Z" style="fill:#e0e0e0"></path><path d="M138.05,72.62a8.37,8.37,0,0,1-1.11,2.74c-.83,1.29-2.12,2.36-2.45,3.86a15.16,15.16,0,0,0-.05,2.78,2.58,2.58,0,0,1-1.19,2.36c-2,.93-2.23-2.49-5-4.83-.84-.7-.94-2.38-1.11-3.39-.31-1.83-.48-3.7-.62-5.56-.12-1.57-.28-3.17-.28-4.75a22,22,0,0,1,.42-5.31c1.16-4.55,5.24-7.1,9.63-8.19,3.82-.95,7.8-.9,11.72-1.25s8-1.16,11.09-3.55c.68-.52,1.57-1.15,2.3-.7a1.83,1.83,0,0,1,.69,1.45,11.74,11.74,0,0,1-.7,5.57,4.86,4.86,0,0,0,3.78-.05c1.21-.44,2.34-1.12,3.58-1.49a1,1,0,0,1,.53-.06,1,1,0,0,1,.57.53,10.3,10.3,0,0,1,.68,9.17c-1.09,2.62-4.58,4.59-7.13,5.53a27.92,27.92,0,0,1-10.94,1.18c-4.58-.24-8.93-2.38-13.53-2.53a.69.69,0,0,0-.51.13.65.65,0,0,0-.12.51A22.82,22.82,0,0,1,138.05,72.62Z" style="fill:#263238"></path><path d="M150.11,103.8s-8.86-1.86-12-3.57a10.44,10.44,0,0,1-4.28-4.42A14.87,14.87,0,0,0,136.3,101c2.27,3,13.81,5.23,13.81,5.23Z" style="fill:#f28f8f"></path><path d="M149.54,80.35a1.84,1.84,0,0,1-1.82,1.87,1.86,1.86,0,0,1-1.72-2,1.78,1.78,0,1,1,3.54.11Z" style="fill:#263238"></path><path d="M146.91,73.18l-3.86,2.08a2.43,2.43,0,0,1,1-3.12A2.07,2.07,0,0,1,146.91,73.18Z" style="fill:#263238"></path><path d="M149.31,92.69l4.05,1.59a2.1,2.1,0,0,1-2.75,1.39A2.39,2.39,0,0,1,149.31,92.69Z" style="fill:#f28f8f"></path><path d="M165.67,75.57l-3.9-2.11a2,2,0,0,1,2.87-1A2.45,2.45,0,0,1,165.67,75.57Z" style="fill:#263238"></path><path d="M164.36,80.54a1.71,1.71,0,0,1-1.7,1.74,1.74,1.74,0,0,1-1.61-1.85,1.66,1.66,0,1,1,3.31.11Z" style="fill:#263238"></path><polygon points="155.81 78.87 155.69 90.09 162.1 88.81 155.81 78.87" style="fill:#f28f8f"></polygon><polygon points="188.17 136.28 157.05 143.21 151.11 168.25 152.77 169.62 184.31 161.95 189.83 137.65 188.17 136.28" style="fill:#455a64"></polygon><polygon points="158.71 144.58 157.05 143.21 151.11 168.25 152.77 169.62 158.71 144.58" style="fill:#37474f"></polygon><polygon points="152.77 169.62 158.71 144.58 189.83 137.65 184.31 161.95 152.77 169.62" style="fill:#263238"></polygon><polygon points="184.31 161.95 170.32 171.82 146.27 176.85 152.77 169.62 184.31 161.95" style="fill:#37474f"></polygon><path d="M99.55,186.18c9.87,1.08,20,.39,29.89-.35,13.15-1,30.12-3.4,39.47-11.88a13.76,13.76,0,0,0,3.81-6.34,19.74,19.74,0,0,0,.49-8.2,4.48,4.48,0,0,0-1.23-2.79,3.93,3.93,0,0,0-4-.24c-4.45,1.76-6.65,6.65-11,8.71-.84.4-2.49,1-3.34.33s-1.08-2.5-1.07-3.62a11.29,11.29,0,0,0-.24-3.58,4.45,4.45,0,0,0-.86-1.87,3.11,3.11,0,0,0-1.86-1,.94.94,0,0,0-.47,0c-.59.25-.56,1.19-.66,1.7a25.52,25.52,0,0,1-1.25,4.1c-.94,2.5-2.53,5.4-4.83,6.93a11.22,11.22,0,0,1-6,1.53h-.54c-3.9,0-8.07-.26-11.66-.45-5-.27-10.15-.79-15.17-1.06l9.52-33.26-1.25-22.64C106.09,115.67,104,114.14,97,140.38s-9,30.28-9.45,34.69S88.19,184.93,99.55,186.18Z" style="fill:#ffa8a7"></path><path d="M118,111.83a18.37,18.37,0,0,0-17.84,12.23c-3.67,10.17-9,31.66-10.61,38.82-1.73,7.75-3.71,18.77-2,20.51,3.79,3.82,7.2,3.51,14.4,3.9,6.53.36,30.23-1.65,30.23-1.65s-4.09-6.79,1.13-16l-23.56-1.82s9.06-28.68,9.23-29.05S125.74,123.65,118,111.83Z" style="fill:#ebebeb"></path><path d="M109.71,167.84a31.45,31.45,0,0,0-9.85,0s2.49-2.45,10.64-2.66Z" style="fill:#e0e0e0"></path></g></g></svg>