<svg xmlns="http://www.w3.org/2000/svg" viewBox="0 0 500 500"><g id="freepik--background-complete--inject-7"><path d="M464.41,104.69V96.48h-5.78v8.21h-5.81v47h17v-47Z" style="fill:#ebebeb"></path><rect x="341.81" y="151.67" width="140.13" height="7.15" style="fill:#e0e0e0"></rect><rect x="456.3" y="158.82" width="4.08" height="24.19" style="fill:#e0e0e0"></rect><rect x="369.2" y="158.82" width="4.08" height="24.19" style="fill:#e0e0e0"></rect><path d="M420.34,117.33v-6h-4.22v6h-4.25v34.34h12.42V117.33Z" style="fill:#f5f5f5"></path><path d="M444.64,117.33v-6h-4.23v6h-4.24v34.34h12.42V117.33Z" style="fill:#ebebeb"></path><rect x="373.28" y="129.36" width="22.31" height="22.31" style="fill:#e0e0e0"></rect><path d="M395.47,135.09c0,.14-4.92.26-11,.26s-11-.12-11-.26,4.92-.26,11-.26S395.47,135,395.47,135.09Z" style="fill:#ebebeb"></path><path d="M385.28,138s.08,0,.22,0a1.8,1.8,0,0,1,.6.28,3.19,3.19,0,0,1,1.22,2.05,4.71,4.71,0,0,1-.57,3.51,3.28,3.28,0,0,1-1.74,1.31,4.16,4.16,0,0,1-2.32,0,4.11,4.11,0,0,1-3.1-3,3.58,3.58,0,0,1,1.05-3.38,3.47,3.47,0,0,1,2.22-.89,1.45,1.45,0,0,1,.87.14s-.32,0-.85.06a3.55,3.55,0,0,0-2,1,3.22,3.22,0,0,0-.83,3,3.68,3.68,0,0,0,2.77,2.59,3.79,3.79,0,0,0,2,0,2.78,2.78,0,0,0,1.49-1.1,4.35,4.35,0,0,0,.61-3.16,3.15,3.15,0,0,0-1-2C385.57,138.17,385.26,138.08,385.28,138Z" style="fill:#ebebeb"></path><path d="M370.1,48.94V40.73h-5.79v8.21h-5.8v47h17v-47Z" style="fill:#ebebeb"></path><rect x="247.49" y="95.92" width="140.13" height="7.15" style="fill:#e0e0e0"></rect><rect x="361.99" y="103.06" width="4.08" height="24.19" style="fill:#e0e0e0"></rect><rect x="274.88" y="103.06" width="4.08" height="24.19" style="fill:#e0e0e0"></rect><path d="M326,61.58v-6H321.8v6h-4.24V95.92H330V61.58Z" style="fill:#f5f5f5"></path><path d="M350.32,61.58v-6H346.1v6h-4.25V95.92h12.42V61.58Z" style="fill:#ebebeb"></path><rect x="278.96" y="73.61" width="22.31" height="22.31" style="fill:#e0e0e0"></rect><path d="M301.16,79.34c0,.14-4.93.26-11,.26s-11-.12-11-.26,4.92-.26,11-.26S301.16,79.19,301.16,79.34Z" style="fill:#ebebeb"></path><path d="M291,82.28s.08,0,.23,0a2.22,2.22,0,0,1,.59.29A3.15,3.15,0,0,1,293,84.65a4.63,4.63,0,0,1-.57,3.5,3.25,3.25,0,0,1-1.74,1.32,4.22,4.22,0,0,1-2.31,0,4.1,4.1,0,0,1-3.1-3,3.47,3.47,0,0,1,3.27-4.27c.57,0,.87.12.86.15s-.31,0-.85.06a3.5,3.5,0,0,0-2,1,3.19,3.19,0,0,0-.84,3,3.67,3.67,0,0,0,2.77,2.58,3.73,3.73,0,0,0,2,0,2.79,2.79,0,0,0,1.48-1.1,4.36,4.36,0,0,0,.61-3.16,3.17,3.17,0,0,0-1-2C291.25,82.42,290.94,82.33,291,82.28Z" style="fill:#ebebeb"></path><polygon points="40.49 149.28 119.95 149.28 119.95 252.71 41.02 252.31 40.49 149.28" style="fill:#e0e0e0"></polygon><rect x="35.91" y="149.28" width="79" height="102.64" transform="translate(150.83 401.2) rotate(180)" style="fill:#fff"></rect><path d="M115.31,148.89V252.31H35.52V148.89Zm-.78,102.64V149.67H36.31V251.53Z" style="fill:#e0e0e0"></path><rect x="44.03" y="160.4" width="60.49" height="80.4" style="fill:#fff"></rect><path d="M44,160.4s0,.13,0,.39,0,.64,0,1.13c0,1,0,2.47,0,4.38,0,3.83,0,9.41.05,16.49,0,14.14,0,34.21.09,58l-.19-.18,60.48,0h0l-.21.2c0-29.94,0-57.7,0-80.4l.17.16-43.92-.08-12.23,0-3.22,0H44s.36,0,1.08,0l3.19,0,12.19,0,44-.09h.17v.17c0,22.7,0,50.46,0,80.4V241h-.21L44,241h-.18v-.19c0-23.85.07-44,.09-58.13,0-7.06,0-12.63.05-16.45,0-1.89,0-3.35,0-4.34,0-.49,0-.86,0-1.11S44,160.4,44,160.4Z" style="fill:#e0e0e0"></path><path d="M35.73,251.92a9.6,9.6,0,0,1,1.07-1.74c.7-1,1.69-2.46,2.83-4s2.22-2.9,3-3.87A10.57,10.57,0,0,1,44,240.8a9.72,9.72,0,0,1-1.15,1.68L40,246.42,37,250.35A10,10,0,0,1,35.73,251.92Z" style="fill:#e0e0e0"></path><path d="M35.91,149.28a57.07,57.07,0,0,1,4.23,5.44A57.72,57.72,0,0,1,44,160.4,59.71,59.71,0,0,1,39.81,155,59,59,0,0,1,35.91,149.28Z" style="fill:#e0e0e0"></path><line x1="114.92" y1="149.28" x2="104.52" y2="160.8" style="fill:#fff"></line><path d="M104.52,160.8a74.63,74.63,0,0,1,5-5.89,70.28,70.28,0,0,1,5.35-5.63,74.08,74.08,0,0,1-5,5.9A73.31,73.31,0,0,1,104.52,160.8Z" style="fill:#e0e0e0"></path><path d="M114.92,251.92a66.82,66.82,0,0,1-5.12-5.37,65.35,65.35,0,0,1-4.81-5.64,70.06,70.06,0,0,1,5.11,5.37A66.69,66.69,0,0,1,114.92,251.92Z" style="fill:#e0e0e0"></path><path d="M57.72,217.67l1.51-2c1.15-1.58,2.4-3.11,3.45-4.76a8,8,0,0,0,.17-8.48c-.89-1.72-1.86-3.4-2.76-5.12A14.59,14.59,0,0,1,58.91,186c.14-.47.37-.91.58-1.43l-.51.05.81-1.48-.13-.11-1,1-.07,0,2.4-3.24.1.06L60.4,182a17.18,17.18,0,0,1,5.27-3.89,8.06,8.06,0,0,0,1.59-1.49c.11.82.44.79,1,.53a13.76,13.76,0,0,1,6.38-1,44.55,44.55,0,0,1,9,1.34,3.1,3.1,0,0,0,3.39-.8,5.23,5.23,0,0,1,.71,3c.2-.49.41-1,.68-1.62.42.85.8,1.6,1.19,2.4l.9-.65a5.13,5.13,0,0,1-2.18,4.88.72.72,0,0,0-.42,1c.45,1.89.83,3.79,1.24,5.68a2.73,2.73,0,0,1-.39,2.22,1.67,1.67,0,0,0,0,2.08c.94,1.36,1.83,2.75,2.74,4.13.79,1.19.66,1.65-.66,2.23-.42.19-1.06.25-1.2.55s.2.85.34,1.29c.18.6.07.84-.69,1.54a4.48,4.48,0,0,1,.29.58c.14.46.21.91-.3,1.24a1,1,0,0,0-.4,1.28c.11.32.21.64.29,1a2.56,2.56,0,0,1-2.8,3.33c-1.37-.06-2.73-.27-4.09-.41-1.89-.2-1.37-.36-2,1.18A19.51,19.51,0,0,1,79,217a2.85,2.85,0,0,0,0,2c.61,2.32,1.35,4.61,2,6.92a44,44,0,0,1,1,4.43C75.66,222.71,67.21,219.38,57.72,217.67Z" style="fill:#ebebeb"></path><polygon points="132.86 56.13 211.06 56.13 211.06 157.92 133.38 157.52 132.86 56.13" style="fill:#e0e0e0"></polygon><rect x="128.35" y="56.13" width="77.75" height="101.01" transform="translate(334.46 213.27) rotate(180)" style="fill:#fff"></rect><path d="M206.49,55.74V157.53H128V55.74Zm-.77,101V56.51h-77V156.76Z" style="fill:#e0e0e0"></path><rect x="136.34" y="67.07" width="59.53" height="79.13" style="fill:#fff"></rect><path d="M136.34,67.07s0,.13,0,.38,0,.63,0,1.11c0,1,0,2.44,0,4.32,0,3.76,0,9.26.05,16.23,0,13.91.05,33.67.09,57.09l-.19-.18,59.53,0h0l-.2.2c0-29.47,0-56.78,0-79.13l.16.16-43.22-.08-12-.05h-3.17l-1.1,0,1.07,0,3.14,0,12,0,43.33-.09H196v.17c0,22.35,0,49.66,0,79.13v.2h-.2l-59.53,0h-.18v-.18c0-23.47.07-43.27.09-57.21,0-6.95,0-12.43.05-16.19,0-1.86,0-3.3,0-4.28,0-.47,0-.83,0-1.09S136.34,67.07,136.34,67.07Z" style="fill:#e0e0e0"></path><path d="M128.17,157.14a10.72,10.72,0,0,1,1.05-1.71c.69-1,1.67-2.42,2.79-3.94s2.18-2.86,3-3.81a10,10,0,0,1,1.35-1.48,9.16,9.16,0,0,1-1.13,1.65l-2.88,3.88-2.88,3.87A9.87,9.87,0,0,1,128.17,157.14Z" style="fill:#e0e0e0"></path><path d="M128.35,56.13a56.9,56.9,0,0,1,4.16,5.35,55.24,55.24,0,0,1,3.83,5.59,57.53,57.53,0,0,1-4.15-5.35A57.87,57.87,0,0,1,128.35,56.13Z" style="fill:#e0e0e0"></path><line x1="206.11" y1="56.13" x2="195.87" y2="67.47" style="fill:#fff"></line><path d="M195.87,67.47c-.08-.07,2.15-2.67,5-5.81a72.06,72.06,0,0,1,5.27-5.53,73.76,73.76,0,0,1-5,5.8A71.18,71.18,0,0,1,195.87,67.47Z" style="fill:#e0e0e0"></path><path d="M206.11,157.14a65.59,65.59,0,0,1-5-5.28,65.79,65.79,0,0,1-4.74-5.55,65.58,65.58,0,0,1,5,5.28A67.69,67.69,0,0,1,206.11,157.14Z" style="fill:#e0e0e0"></path><path d="M162.7,81.83c1.23.64,2.41.21,3.64,0,3.16-.68,5.51,0,8.32,2.32,2.09-.06,4.07-.58,5.76,1,.16.15.46.13.7.21l1.17.42-.06.19-1.16-.33-.13.22c.17.12.32.32.5.35,3,.48,4.16,2.46,3,5.24.41.52,1.12,1,.73,1.92-.1-.71-.27-1.29-1.18-1.46a4.23,4.23,0,0,1,1,4.12,4.27,4.27,0,0,1-3.12,2.89l.92.3,0,.15L181.28,99a39.25,39.25,0,0,0-.37,4.35c.11,5-2,8.08-7,9.92A2.56,2.56,0,0,0,172,116a8.56,8.56,0,0,0,1.79,5.13c.82,1.19,1.8,2.27,2.78,3.5A29.28,29.28,0,0,0,161.89,133a39,39,0,0,0,1.52-5.08,16.8,16.8,0,0,0-1.5-9.86,3.87,3.87,0,0,0-4.4-2.34c-1,.12-1.95.29-2.93.35-1.59.1-2.7-.55-2.94-1.72a4,4,0,0,1,.08-1.37,2,2,0,0,0-.47-2c-.59-.55-.24-1.19.24-1.82-1.06-.32-1-1-.7-1.85a1.07,1.07,0,0,0-.58-1.48c-1.3-.7-1.37-1.59-.36-2.67s1.72-2,2.56-3L150.92,99l.12-.17a1.93,1.93,0,0,0,.46.22,1.61,1.61,0,0,0,.79,0c.09,0,.09-.41.05-.62a14.7,14.7,0,0,1,1.07-8.75.94.94,0,0,0,.08-.65c-1.33-3.36.06-4.55,2-6.1a8.29,8.29,0,0,1,7-1.67h-1.78l0,.12,2,.47-2.06-.14a5.62,5.62,0,0,0-3.84,1c2.31-.91,4.52-.37,6.91-.33Z" style="fill:#ebebeb"></path></g><g id="freepik--Floor--inject-7"><path d="M479.39,470.2c0,.15-102.71.26-229.38.26s-229.4-.11-229.4-.26,102.69-.26,229.4-.26S479.39,470.06,479.39,470.2Z" style="fill:#263238"></path></g><g id="freepik--character-1--inject-7"><polygon points="186.28 470.03 219.26 396.95 231.02 405.99 195.88 470.03 186.28 470.03" style="fill:#263238"></polygon><path d="M149.86,314h45.21a35.17,35.17,0,0,1,32.45,21.61l9.24,22.11h34.11A33.16,33.16,0,0,1,303.66,386l.18,6.53-45.79,14.07-75.61-11.12Z" style="fill:#263238"></path><path d="M269.81,397.52l-.12.09-.88-5.65a21.14,21.14,0,0,0-20-17.89l-57.66-2.34L167.21,323A16.69,16.69,0,0,0,145,315.28l-.69.34a6.79,6.79,0,0,0-3.33,8.76l31.32,74.47L140.2,470l10.31,0,33.94-63.48h73.62l0,0,34.66,63.17h9.69Z" style="fill:#455a64"></path><path d="M333.53,358.6a19.21,19.21,0,0,0-18.71-16.86L255,340.62l.81,31.12h50.91l11.86,92.14h18.12Z" style="fill:#ffbe9d"></path><path d="M306.71,358.6A19.21,19.21,0,0,0,288,341.74l-59.83-1.12.81,31.12h50.91l11.93,92.18,18,1.83Z" style="fill:#ffbe9d"></path><path d="M273.67,341.62a17,17,0,0,0,2.19.05c1.42,0,3.46-.05,6,.05a41.51,41.51,0,0,1,8.72,1.17A23.05,23.05,0,0,1,300,347.7a19.45,19.45,0,0,1,5.53,9,38.4,38.4,0,0,1,1.44,8.68c.15,2.51.16,4.55.17,6a16.4,16.4,0,0,0,.07,2.19s.05-.19.08-.56.07-.92.1-1.63c.06-1.41.12-3.46,0-6a36.69,36.69,0,0,0-1.33-8.82,19.69,19.69,0,0,0-5.67-9.3,23,23,0,0,0-9.75-4.9,39.15,39.15,0,0,0-8.85-1.06c-2.54,0-4.58.07-6,.15l-1.63.11A2.11,2.11,0,0,0,273.67,341.62Z" style="fill:#eb996e"></path><path d="M241.28,328.31l4.59-4.17,1.24,1.14a23.69,23.69,0,0,0,11.78,5.92l60,11.26-45.2-.84c-17.74,3-11.05,30.8-11.05,30.8H203.57a9.06,9.06,0,0,1-3.71-1.69,20,20,0,0,1-8.39-18,164.15,164.15,0,0,1,2.6-17.39h0l3.6-21.29" style="fill:#FF72A8"></path><path d="M199.91,238.55c-5.22-7.73-9.22-16.6-9.49-25.93S194,193.27,201.8,188.1c4.1-2.73,9.45-2.34,9.45-2.34-.09.19,7.55-6.53,11.38-7.87a19.12,19.12,0,0,1,21.93,7.75c3.4,5.52,3.68,12.44,2.77,18.86s-2.89,12.66-3.66,19.09-.19,13.38,3.55,18.68c3.61,5.12,9.67,8,13.59,12.91,5,6.19,5.81,15.18,2.78,22.51s-9.59,12.94-17.08,15.56" style="fill:#263238"></path><path d="M227.08,242.58c-1.68-.42-8.69,1.39-10.73,1.74-15.42,2.66-29.91,12.85-29.91,12.85-1.23,4.33.31,18.2.94,22.63l10.29,34.29-3.6,21.29H251.5c-4.7-7.79-8.75-21.32-8.47-30.41h0a52.38,52.38,0,0,0,5.09-24.69l.65-7.6s.39-10.61-1.77-19c-1.54-5.95-11-7.61-17.6-8.35" style="fill:#FF72A8"></path><polygon points="246.04 251.58 270.67 291.82 258.19 315.43 232.74 282.23 246.04 251.58" style="fill:#FF72A8"></polygon><path d="M243,303.8c-.1-.05.91-1.51,2-4.1a32.23,32.23,0,0,0,1.6-4.69,31.26,31.26,0,0,0,.67-12,31.25,31.25,0,0,0-1.06-4.84c-.84-2.7-1.67-4.26-1.57-4.3a5.18,5.18,0,0,1,.61,1.07,12.05,12.05,0,0,1,.62,1.32c.21.53.48,1.12.69,1.8a28.14,28.14,0,0,1,1.19,4.88,32.92,32.92,0,0,1,.29,6.15,32.23,32.23,0,0,1-1,6.07,28.14,28.14,0,0,1-1.73,4.72,19.12,19.12,0,0,1-.88,1.71,10.73,10.73,0,0,1-.76,1.24A5.78,5.78,0,0,1,243,303.8Z" style="fill:#263238"></path><path d="M252.85,336.25a9,9,0,0,1-1.4.34c-.91.2-2.23.43-3.86.67a92.36,92.36,0,0,1-12.91.95,94,94,0,0,1-12.91-.86c-1.64-.23-3-.46-3.87-.65a8.13,8.13,0,0,1-1.4-.33,6.92,6.92,0,0,1,1.43.13c.91.13,2.24.3,3.88.48a110.71,110.71,0,0,0,25.73-.08c1.64-.2,3-.37,3.88-.51A7.46,7.46,0,0,1,252.85,336.25Z" style="fill:#263238"></path><path d="M245.87,335.44a5,5,0,0,1-1.17.24,11.16,11.16,0,0,1-1.39.15,17.56,17.56,0,0,1-1.85.06,25.07,25.07,0,0,1-4.8-.46,27.45,27.45,0,0,1-10.8-4.63,25.7,25.7,0,0,1-3.65-3.16,17.32,17.32,0,0,1-1.22-1.38,10.06,10.06,0,0,1-.85-1.11,4.79,4.79,0,0,1-.63-1c.08-.06,1,1.34,3,3.24a27.66,27.66,0,0,0,3.66,3,31.16,31.16,0,0,0,5.08,2.81,31.62,31.62,0,0,0,5.54,1.74,30,30,0,0,0,4.71.57C244.18,335.62,245.86,335.33,245.87,335.44Z" style="fill:#263238"></path><path d="M204,249.57s-19.32,5.89-22.11,11.95-4.6,56.37-4.6,56.37l21.71-.5,1.59-29.29Z" style="fill:#FF72A8"></path><path d="M177.29,317.89s.13,0,.39-.05l1.13-.07,4.31-.21,15.42-.63-.22.21c.44-6.57,1-14.37,1.52-22.71.21-3,.42-6,.62-8.85a38.41,38.41,0,0,0,.17-8.2c-.45-5.2-2.55-9.72-5.5-12.36a12.66,12.66,0,0,0-11.73-3.59.61.61,0,0,1,.21-.08l.65-.17a10.78,10.78,0,0,1,2.57-.2,13.79,13.79,0,0,1,8.55,3.77c3.06,2.67,5.24,7.3,5.72,12.58a37.37,37.37,0,0,1-.14,8.3c-.19,2.86-.39,5.82-.6,8.85-.58,8.33-1.13,16.12-1.59,22.69l0,.2h-.2l-15.42.44-4.31.08h-1.14A1.73,1.73,0,0,1,177.29,317.89Z" style="fill:#263238"></path><path d="M210,282.86a.88.88,0,0,0,0-1.75.88.88,0,0,0,0,1.75Z" style="fill:#ebebeb"></path><path d="M229.75,292.22a.81.81,0,0,0,0-1.61.81.81,0,0,0,0,1.61Z" style="fill:#ebebeb"></path><path d="M215.28,302.92a.35.35,0,0,0,0-.7.35.35,0,0,0,0,.7Z" style="fill:#ebebeb"></path><path d="M229.22,278.63a.77.77,0,0,0,0-1.53.77.77,0,0,0,0,1.53Z" style="fill:#ebebeb"></path><path d="M205.85,266.74a.43.43,0,0,0,0-.86.43.43,0,0,0,0,.86Z" style="fill:#ebebeb"></path><path d="M242.77,260.44a.5.5,0,0,0,0-1,.5.5,0,0,0,0,1Z" style="fill:#ebebeb"></path><path d="M241.84,290.55a.73.73,0,0,0,0-1.46.73.73,0,0,0,0,1.46Z" style="fill:#ebebeb"></path><path d="M231.48,311.47a.67.67,0,0,0,0-1.33.67.67,0,0,0,0,1.33Z" style="fill:#ebebeb"></path><path d="M203.86,314.23a.64.64,0,0,0,0-1.27.64.64,0,0,0,0,1.27Z" style="fill:#ebebeb"></path><path d="M221.52,285.82a.65.65,0,0,0,0-1.29.65.65,0,0,0,0,1.29Z" style="fill:#ebebeb"></path><path d="M226.83,267.8a.29.29,0,0,0,0-.58.29.29,0,0,0,0,.58Z" style="fill:#ebebeb"></path><path d="M250.34,271.72a.63.63,0,0,0,0-1.25.63.63,0,0,0,0,1.25Z" style="fill:#ebebeb"></path><path d="M259.26,295.55a1,1,0,0,0,0-2.07,1,1,0,0,0,0,2.07Z" style="fill:#ebebeb"></path><path d="M251.4,300.14a.63.63,0,0,0,0-1.25.63.63,0,0,0,0,1.25Z" style="fill:#ebebeb"></path><path d="M253.53,282.36a.25.25,0,0,0,0-.49.25.25,0,0,0,0,.49Z" style="fill:#ebebeb"></path><path d="M255.92,311.11a.84.84,0,0,0,0-1.67.84.84,0,0,0,0,1.67Z" style="fill:#ebebeb"></path><path d="M189.91,297.13a.27.27,0,0,0,0-.54.27.27,0,0,0,0,.54Z" style="fill:#ebebeb"></path><path d="M196.36,282l0-.13a.61.61,0,0,0-1.17,0l0,.13c-.22,1,1.45,1,1.22,0Z" style="fill:#ebebeb"></path><path d="M183.54,275.8l-.14,0c-.8-.08-.8,1.34,0,1.25h.14a.61.61,0,0,0,0-1.22Z" style="fill:#ebebeb"></path><path d="M184.47,287.85a.69.69,0,0,0,0-1.37.69.69,0,0,0,0,1.37Z" style="fill:#ebebeb"></path><path d="M194,309.55a.61.61,0,0,0,0-1.21.61.61,0,0,0,0,1.21Z" style="fill:#ebebeb"></path><path d="M182.74,311.63a.43.43,0,0,0,0-.86.43.43,0,0,0,0,.86Z" style="fill:#ebebeb"></path><path d="M192,271a.59.59,0,0,0,0-1.18.59.59,0,0,0,0,1.18Z" style="fill:#ebebeb"></path><path d="M206.25,295.06a.46.46,0,0,0,0-.91.46.46,0,0,0,0,.91Z" style="fill:#ebebeb"></path><path d="M215.54,314.63a.37.37,0,0,0,0-.74.37.37,0,0,0,0,.74Z" style="fill:#ebebeb"></path><path d="M199.65,355l-.12.14a.67.67,0,0,0,.95.94l.14-.12c.67-.57-.39-1.63-1-1Z" style="fill:#ebebeb"></path><path d="M211.16,342.36a.48.48,0,0,0,0-1,.48.48,0,0,0,0,1Z" style="fill:#ebebeb"></path><path d="M199.61,341.41a.46.46,0,0,0,0-.91.46.46,0,0,0,0,.91Z" style="fill:#ebebeb"></path><path d="M209.83,369.66a.42.42,0,0,0,0-.83.42.42,0,0,0,0,.83Z" style="fill:#ebebeb"></path><path d="M223.64,352.74a.9.9,0,0,0,0-1.8.9.9,0,0,0,0,1.8Z" style="fill:#ebebeb"></path><path d="M212.75,353.39a.35.35,0,0,0,0-.7.35.35,0,0,0,0,.7Z" style="fill:#ebebeb"></path><path d="M225.77,367.91a.66.66,0,0,0,0-1.32.66.66,0,0,0,0,1.32Z" style="fill:#ebebeb"></path><path d="M239.71,344.76a.49.49,0,0,0,0-1,.49.49,0,0,0,0,1Z" style="fill:#ebebeb"></path><path d="M225.37,333.71a.33.33,0,0,0,0-.66.33.33,0,0,0,0,.66Z" style="fill:#ebebeb"></path><path d="M240.91,331.85a.46.46,0,0,0,0-.92.46.46,0,0,0,0,.92Z" style="fill:#ebebeb"></path><path d="M259,350.35a.5.5,0,0,0,0-1,.5.5,0,0,0,0,1Z" style="fill:#ebebeb"></path><path d="M253.92,368a.72.72,0,0,0,0-1.44.72.72,0,0,0,0,1.44Z" style="fill:#ebebeb"></path><path d="M240.38,360.86a.52.52,0,0,0,0-1,.52.52,0,0,0,0,1Z" style="fill:#ebebeb"></path><path d="M251.93,340.82a.4.4,0,0,0,0-.8.4.4,0,0,0,0,.8Z" style="fill:#ebebeb"></path><path d="M282.21,339.93a.71.71,0,0,0,0-1.41.71.71,0,0,0,0,1.41Z" style="fill:#ebebeb"></path><path d="M264.55,337a.46.46,0,0,0,0-.92.46.46,0,0,0,0,.92Z" style="fill:#ebebeb"></path><path d="M196.55,256.07a.54.54,0,0,0,0-1.07.54.54,0,0,0,0,1.07Z" style="fill:#ebebeb"></path><path d="M204.72,253v-.25c0-.53-.86-.54-.83,0l0,.25a.4.4,0,0,0,.8,0Z" style="fill:#ebebeb"></path><path d="M216.34,263.33a.29.29,0,0,0,0-.57.29.29,0,0,0,0,.57Z" style="fill:#ebebeb"></path><path d="M235.55,259.91l0-.24a.47.47,0,1,0-.92,0l0,.24a.45.45,0,0,0,.86,0Z" style="fill:#ebebeb"></path><path d="M238.12,250a.52.52,0,0,0,0-1,.52.52,0,0,0,0,1Z" style="fill:#ebebeb"></path><path d="M216.68,292.82a.37.37,0,0,0,0-.73.37.37,0,0,0,0,.73Z" style="fill:#ebebeb"></path><path d="M205.63,305.11a.5.5,0,0,0,0-1,.5.5,0,0,0,0,1Z" style="fill:#ebebeb"></path><path d="M223.09,307.13a.09.09,0,0,0,0-.17.09.09,0,0,0,0,.17Z" style="fill:#ebebeb"></path><path d="M239.67,301a.78.78,0,0,0,0-1.55.78.78,0,0,0,0,1.55Z" style="fill:#ebebeb"></path><path d="M238.56,282.07a.67.67,0,0,0,0-1.33.67.67,0,0,0,0,1.33Z" style="fill:#ebebeb"></path><path d="M225.52,306.21a.49.49,0,0,0,0-1,.49.49,0,0,0,0,1Z" style="fill:#ebebeb"></path><path d="M214,271.88a.43.43,0,0,0,0-.85.43.43,0,0,0,0,.85Z" style="fill:#ebebeb"></path><path d="M238.12,268.45a.53.53,0,0,0,0-1.06.53.53,0,0,0,0,1.06Z" style="fill:#ebebeb"></path><path d="M248.73,260.26a.52.52,0,0,0,0-1,.52.52,0,0,0,0,1Z" style="fill:#ebebeb"></path><path d="M261.77,283.54a.59.59,0,0,0,0-1.18.59.59,0,0,0,0,1.18Z" style="fill:#ebebeb"></path><path d="M251.6,293.34a.22.22,0,0,0,0-.44.22.22,0,0,0,0,.44Z" style="fill:#ebebeb"></path><path d="M260,304.22a.27.27,0,0,0,0-.54.27.27,0,0,0,0,.54Z" style="fill:#ebebeb"></path><path d="M265.31,293.84a.72.72,0,0,0,0-1.44.72.72,0,0,0,0,1.44Z" style="fill:#ebebeb"></path><path d="M195.24,302.35a.83.83,0,0,0,0-1.66.83.83,0,0,0,0,1.66Z" style="fill:#ebebeb"></path><path d="M182.41,306.21a.49.49,0,0,0,0-1,.49.49,0,0,0,0,1Z" style="fill:#ebebeb"></path><path d="M187.06,312.8a.89.89,0,0,0,0-1.78.89.89,0,0,0,0,1.78Z" style="fill:#ebebeb"></path><path d="M194.79,289.21a.07.07,0,0,0,0-.14.07.07,0,0,0,0,.14Z" style="fill:#ebebeb"></path><path d="M187.72,281.18a.44.44,0,0,0,0-.88.44.44,0,0,0,0,.88Z" style="fill:#ebebeb"></path><path d="M195,274.79a.46.46,0,0,0,0-.92.46.46,0,0,0,0,.92Z" style="fill:#ebebeb"></path><path d="M190.81,258a.49.49,0,0,0,0-1,.49.49,0,0,0,0,1Z" style="fill:#ebebeb"></path><path d="M201.2,260.09a.57.57,0,0,0,0-1.14.57.57,0,0,0,0,1.14Z" style="fill:#ebebeb"></path><path d="M208.28,257.5a.41.41,0,0,0,0-.82.41.41,0,0,0,0,.82Z" style="fill:#ebebeb"></path><path d="M206.07,276.39a.52.52,0,0,0,0-1,.52.52,0,0,0,0,1Z" style="fill:#ebebeb"></path><path d="M224.41,271.09a.3.3,0,0,0,0-.6.3.3,0,0,0,0,.6Z" style="fill:#ebebeb"></path><path d="M233,257.76a.45.45,0,0,0,0-.9.45.45,0,0,0,0,.9Z" style="fill:#ebebeb"></path><path d="M241.21,275a.23.23,0,0,0,0-.46.23.23,0,0,0,0,.46Z" style="fill:#ebebeb"></path><path d="M252.93,276.72a.4.4,0,0,0,0-.8.4.4,0,0,0,0,.8Z" style="fill:#ebebeb"></path><path d="M231.93,302.24a.5.5,0,0,0,0-1,.5.5,0,0,0,0,1Z" style="fill:#ebebeb"></path><path d="M224.64,344.63a.45.45,0,0,0,0-.89.45.45,0,0,0,0,.89Z" style="fill:#ebebeb"></path><path d="M204.3,364.43l-.22,0a.51.51,0,0,0,0,1l.22,0c.69.08.69-1.16,0-1.07Z" style="fill:#ebebeb"></path><path d="M196.12,349.43a.61.61,0,0,0,0-1.21.61.61,0,0,0,0,1.21Z" style="fill:#ebebeb"></path><path d="M232.81,356.41a.52.52,0,0,0,0-1,.52.52,0,0,0,0,1Z" style="fill:#ebebeb"></path><path d="M217.12,361.9a.48.48,0,0,0,0-.95.48.48,0,0,0,0,.95Z" style="fill:#ebebeb"></path><path d="M251.6,361.81a.83.83,0,0,0,0-1.66.83.83,0,0,0,0,1.66Z" style="fill:#ebebeb"></path><path d="M242.1,369a.7.7,0,0,0,0-1.39.7.7,0,0,0,0,1.39Z" style="fill:#ebebeb"></path><path d="M245.86,352.69a.55.55,0,0,0,0-1.1.55.55,0,0,0,0,1.1Z" style="fill:#ebebeb"></path><path d="M234.14,350.06a.35.35,0,0,0,0-.7.35.35,0,0,0,0,.7Z" style="fill:#ebebeb"></path><path d="M248.51,346.19a.68.68,0,0,0,0-1.36.68.68,0,0,0,0,1.36Z" style="fill:#ebebeb"></path><path d="M215.13,337.44a.55.55,0,0,0,0-1.1.55.55,0,0,0,0,1.1Z" style="fill:#ebebeb"></path><path d="M205.4,350.11a.62.62,0,0,0,0-1.24.62.62,0,0,0,0,1.24Z" style="fill:#ebebeb"></path><path d="M260,344.25a.73.73,0,0,0,0-1.46.73.73,0,0,0,0,1.46Z" style="fill:#ebebeb"></path><path d="M269.07,339.69a.37.37,0,0,0,0-.74.37.37,0,0,0,0,.74Z" style="fill:#ebebeb"></path><path d="M251.16,334.46a.45.45,0,0,0,0-.89.45.45,0,0,0,0,.89Z" style="fill:#ebebeb"></path><path d="M274.37,336.44a.44.44,0,0,0,0-.87.44.44,0,0,0,0,.87Z" style="fill:#ebebeb"></path><path d="M290.07,340a.67.67,0,0,0,0-1.34.67.67,0,0,0,0,1.34Z" style="fill:#ebebeb"></path><path d="M211.15,361.58a.38.38,0,0,0,0-.76.38.38,0,0,0,0,.76Z" style="fill:#ebebeb"></path><path d="M200.1,370.38a.56.56,0,0,0,0-1.11.56.56,0,0,0,0,1.11Z" style="fill:#ebebeb"></path><path d="M227.51,364.15a.52.52,0,0,0,0-1,.52.52,0,0,0,0,1Z" style="fill:#ebebeb"></path><path d="M226.63,335.61a.49.49,0,0,0,0-1,.49.49,0,0,0,0,1Z" style="fill:#ebebeb"></path><path d="M259.78,312.42a20.74,20.74,0,0,0,4.42,3.94c3,2.17,6.18,3.82,9.89,3.31,8.48-1.15,11.84-10.91,13.92-19.26l7.08-34.53.81-7.35h0a118.74,118.74,0,0,0,2-12.93c.29-5.56-.21-5.61-.87-5.55-1.76.16-.88,9.75-2.26,7.77s.29-11.82-1.55-11.58c-2.38.32-1.28,10.35-1.25,11.21s-1.2.89-1.19.12c0-1.11-.06-12.77-2.41-12.48-1.3.16-.73,2.47-.73,2.47s.88,10.93-.23,11-1.87-6.3-2-8.47-1.15-3-2.07-2.2c-.62.55-.49,7.21-.34,9.36s.64,8-2,5.27l-.12-.12c-2.49-2.79-5.34-4.12-6.42-3.94a1.29,1.29,0,0,0-.48,2.28,1.45,1.45,0,0,0,.44.31c.08,0,.17.09.25.13a19,19,0,0,1,2.88,2.58,10,10,0,0,1,1.89,2.85c.54,1.2.95,2.26,1.28,3.16l0,.9-11.95,34.52h0" style="fill:#ffbe9d"></path><path d="M270.74,306.35a50.86,50.86,0,0,1-.71-7.18,49.68,49.68,0,0,1-.2-7.21,51.92,51.92,0,0,1,.72,7.18A50.46,50.46,0,0,1,270.74,306.35Z" style="fill:#eb996e"></path><path d="M336.68,465.73v-1.85l-18.77-.28-.11,6.11,1.16.09c5.16.35,26.23,1.46,29.69.55C352.52,469.33,336.68,465.73,336.68,465.73Z" style="fill:#FF72A8"></path><g style="opacity:0.30000000000000004"><path d="M324.59,469.69a6,6,0,0,0-2.34-3.75,6.66,6.66,0,0,0-4.35-1.34l-.06,4.86Z"></path></g><g style="opacity:0.30000000000000004"><path d="M344.42,467.75s5.54,1.58,4.84,2.42-22,.47-31.45-.46l0-.39,24.88.64S343.33,467.77,344.42,467.75Z"></path></g><path d="M317.56,469.31l.32,0,.92.07,3.39.2c2.87.14,6.84.3,11.22.38s8.34.07,11.21,0l3.4-.08.93,0,.32,0h-4.65c-2.87,0-6.83,0-11.21-.09s-8.34-.21-11.21-.32l-3.4-.13-.92,0Z" style="fill:#263238"></path><path d="M342.73,470.23a6.57,6.57,0,0,1,.65-1.5,6.81,6.81,0,0,1,1.18-1.19,2.47,2.47,0,0,0-1.37,1.08A2.15,2.15,0,0,0,342.73,470.23Z" style="fill:#263238"></path><path d="M337.25,467.53c.05,0,.32-.26.6-.66s.46-.74.4-.77-.32.26-.59.65S337.19,467.5,337.25,467.53Z" style="fill:#263238"></path><path d="M335.74,466.76s.34-.14.67-.4.55-.51.51-.56-.34.14-.66.4S335.7,466.71,335.74,466.76Z" style="fill:#263238"></path><path d="M334.81,465.1a2.23,2.23,0,0,0,1,.13,2.21,2.21,0,0,0,1-.08,2.65,2.65,0,0,0-1-.13A2.4,2.4,0,0,0,334.81,465.1Z" style="fill:#263238"></path><path d="M334.5,463.94a3,3,0,0,0,2.21.19,7.32,7.32,0,0,0-1.11-.09A6,6,0,0,0,334.5,463.94Z" style="fill:#263238"></path><path d="M337.9,466a3.4,3.4,0,0,0,1.2,0,8.05,8.05,0,0,0,1.28-.24,3.91,3.91,0,0,0,.74-.27.6.6,0,0,0,.3-.34.43.43,0,0,0-.17-.45,2.31,2.31,0,0,0-2.74.55,2,2,0,0,0-.4.74c-.05.19-.05.3,0,.3a2.74,2.74,0,0,1,.56-.94,2.16,2.16,0,0,1,1-.61,2,2,0,0,1,1.43.12c.19.13.11.34-.1.46a3.94,3.94,0,0,1-.68.25,8.16,8.16,0,0,1-1.24.28C338.36,466,337.9,466,337.9,466Z" style="fill:#263238"></path><path d="M338.21,466.08a1,1,0,0,0,.15-.77,1.77,1.77,0,0,0-.32-.82,1.22,1.22,0,0,0-1-.59.45.45,0,0,0-.38.51,1.19,1.19,0,0,0,.2.5,3.47,3.47,0,0,0,.56.69,1.72,1.72,0,0,0,.68.46s-.24-.2-.56-.56a4.45,4.45,0,0,1-.5-.68c-.16-.24-.26-.66,0-.71a1.08,1.08,0,0,1,.78.49,1.68,1.68,0,0,1,.33.73A3.41,3.41,0,0,1,338.21,466.08Z" style="fill:#263238"></path><path d="M318,464.56s.54,0,1.38.07a6.38,6.38,0,0,1,3,1.2,5.73,5.73,0,0,1,1.85,2.51c.27.75.29,1.25.33,1.25s0-.13,0-.35a4.55,4.55,0,0,0-.19-.94,5.45,5.45,0,0,0-1.86-2.63,6,6,0,0,0-3.12-1.19,4.83,4.83,0,0,0-1,0A1.06,1.06,0,0,0,318,464.56Z" style="fill:#263238"></path><path d="M327,468a17,17,0,0,0,5.46.14c0-.06-1.23,0-2.73-.06S327,468,327,468Z" style="fill:#263238"></path><path d="M323.3,468s.1.24.22.5.19.5.25.49.1-.27,0-.57S323.34,467.92,323.3,468Z" style="fill:#263238"></path><path d="M321.94,466.34s.08.23.27.41.38.31.43.27-.08-.23-.27-.41S322,466.3,321.94,466.34Z" style="fill:#263238"></path><path d="M320,465.58c0,.06.26.06.53.16s.47.23.52.19-.1-.28-.44-.39S320,465.53,320,465.58Z" style="fill:#263238"></path><path d="M318.58,465.21c0,.05.08.15.23.2s.3.07.33,0-.09-.14-.24-.2S318.6,465.16,318.58,465.21Z" style="fill:#263238"></path><path d="M310.36,465.31l0-1.86-18.77.26.07,6.11,1.16.06c5.16.2,26.26.71,29.69-.3C326.3,468.45,310.36,465.31,310.36,465.31Z" style="fill:#FF72A8"></path><g style="opacity:0.30000000000000004"><path d="M298.39,469.61a6,6,0,0,0-2.44-3.68,6.63,6.63,0,0,0-4.39-1.21l.07,4.85Z"></path></g><g style="opacity:0.30000000000000004"><path d="M318.15,467.1s5.59,1.43,4.91,2.29-22,1.09-31.44.43l0-.39,24.89-.07S317.06,467.15,318.15,467.1Z"></path></g><path d="M291.35,469.42l.32,0,.92,0,3.4.1c2.87.07,6.84.11,11.22.06s8.35-.16,11.21-.29l3.4-.17.92-.06.32,0a1.57,1.57,0,0,0-.32,0l-.92,0-3.4.1c-2.87.09-6.83.19-11.21.23s-8.35,0-11.22,0l-3.4,0h-1.24Z" style="fill:#263238"></path><path d="M316.53,469.63a6.71,6.71,0,0,1,.61-1.52,7.52,7.52,0,0,1,1.14-1.22A2.47,2.47,0,0,0,317,468,2.29,2.29,0,0,0,316.53,469.63Z" style="fill:#263238"></path><path d="M311,467.08s.31-.27.58-.67.44-.75.38-.78-.31.27-.57.67S310.93,467.05,311,467.08Z" style="fill:#263238"></path><path d="M309.45,466.36c.05,0,.34-.15.66-.42s.54-.53.5-.57-.34.14-.66.42S309.41,466.31,309.45,466.36Z" style="fill:#263238"></path><path d="M308.47,464.73a2.39,2.39,0,0,0,1,.1,2.61,2.61,0,0,0,1-.1,4.42,4.42,0,0,0-2,0Z" style="fill:#263238"></path><path d="M308.13,463.57a1.93,1.93,0,0,0,1.09.29,2.07,2.07,0,0,0,1.12-.15,5.55,5.55,0,0,0-1.11-.06A7.17,7.17,0,0,0,308.13,463.57Z" style="fill:#263238"></path><path d="M311.59,465.56a3.53,3.53,0,0,0,1.2,0,7.37,7.37,0,0,0,1.28-.27,4.17,4.17,0,0,0,.72-.29.65.65,0,0,0,.3-.35.46.46,0,0,0-.19-.45,2.3,2.3,0,0,0-2.72.63,2,2,0,0,0-.38.75c0,.19,0,.3,0,.3a3,3,0,0,1,.53-1,2.19,2.19,0,0,1,1-.63,2,2,0,0,1,1.44.08c.19.13.12.34-.09.46a3.91,3.91,0,0,1-.67.27,8.61,8.61,0,0,1-1.24.31C312.05,465.52,311.59,465.53,311.59,465.56Z" style="fill:#263238"></path><path d="M311.9,465.61a1,1,0,0,0,.13-.77,1.82,1.82,0,0,0-.34-.82,1.24,1.24,0,0,0-1-.55.43.43,0,0,0-.36.52,1.09,1.09,0,0,0,.21.49,3.29,3.29,0,0,0,.58.67,1.82,1.82,0,0,0,.69.45s-.24-.2-.58-.55a3.78,3.78,0,0,1-.51-.67c-.17-.23-.29-.65,0-.71s.61.25.8.47a1.84,1.84,0,0,1,.35.72A3.57,3.57,0,0,1,311.9,465.61Z" style="fill:#263238"></path><path d="M291.66,464.67a12,12,0,0,1,1.38,0,6.27,6.27,0,0,1,3,1.12,5.66,5.66,0,0,1,1.92,2.45c.29.74.33,1.24.37,1.24a1.07,1.07,0,0,0,0-.35,5,5,0,0,0-.22-.94,5.44,5.44,0,0,0-1.93-2.57,6.08,6.08,0,0,0-3.16-1.1,5.28,5.28,0,0,0-1,0C291.78,464.62,291.65,464.65,291.66,464.67Z" style="fill:#263238"></path><path d="M300.72,467.89a12,12,0,0,0,2.73.22,10.74,10.74,0,0,0,2.73-.24c0-.06-1.23,0-2.73,0S300.72,467.82,300.72,467.89Z" style="fill:#263238"></path><path d="M297.05,467.92s.11.24.24.5.2.49.26.48.09-.27-.06-.57S297.09,467.88,297.05,467.92Z" style="fill:#263238"></path><path d="M295.65,466.34s.08.22.27.4.39.29.44.25-.08-.22-.28-.4S295.69,466.3,295.65,466.34Z" style="fill:#263238"></path><path d="M293.66,465.63c0,.06.26.05.54.14s.48.22.52.18-.11-.28-.45-.38S293.64,465.58,293.66,465.63Z" style="fill:#263238"></path><path d="M292.25,465.3c0,.06.09.14.24.2s.3.05.33,0-.09-.14-.25-.2S292.27,465.25,292.25,465.3Z" style="fill:#263238"></path><path d="M177.37,321.73a14.19,14.19,0,0,0,17.15,15.34L234,330.43l6-.34h0a118.78,118.78,0,0,0,13.08-.19c5.53-.63,5.49-1.13,5.33-1.77-.45-1.71-9.77.75-8-.95s11.7-1.67,11.16-3.44c-.71-2.3-10.42.45-11.26.63s-1.08-1-.31-1.16c1.09-.16,12.58-2.18,11.9-4.44-.37-1.26-2.56-.32-2.56-.32s-10.63,2.68-10.91,1.6,5.91-2.88,8-3.34,2.77-1.63,1.82-2.4c-.64-.53-7.19.71-9.28,1.2s-7.82,2-5.52-1.06l.1-.14c2.33-2.92,3.17-5.95,2.81-7a1.29,1.29,0,0,0-2.32-.09,1.49,1.49,0,0,0-.24.49,1.71,1.71,0,0,1-.09.27,18.28,18.28,0,0,1-2.07,3.26,9.9,9.9,0,0,1-2.49,2.34c-1.1.73-2.07,1.31-2.9,1.78l-3.63,1.24-36,1.47.11-.71-19,.7Z" style="fill:#ffbe9d"></path><path d="M230.85,248c0-6,0-10.74,0-10.71s8.45-1.4,10.2-12.42c.87-5.48.6-14.47.13-21.82-.41-6.61-4.79-14.72-11.38-14l-20.58,5.2a3.88,3.88,0,0,0-3.47,3.93h0l1.8,50.19a11.63,11.63,0,0,0,11.53,11.21h0A11.63,11.63,0,0,0,230.85,248Z" style="fill:#ffbe9d"></path><path d="M234.41,209.6c.17-.18,1.24.61,2.76.61s2.64-.77,2.8-.58-.09.41-.58.77a3.92,3.92,0,0,1-2.24.69,3.77,3.77,0,0,1-2.2-.71C234.48,210,234.32,209.68,234.41,209.6Z" style="fill:#263238"></path><path d="M219.53,210.36c.18-.19,1.25.61,2.77.6s2.63-.76,2.8-.58-.1.42-.58.77a3.81,3.81,0,0,1-2.25.69,3.68,3.68,0,0,1-2.2-.71C219.6,210.77,219.45,210.44,219.53,210.36Z" style="fill:#263238"></path><path d="M229.84,219.29a10.28,10.28,0,0,1,2.47-.44c.39,0,.76-.12.82-.38a1.94,1.94,0,0,0-.26-1.16l-1.14-2.95c-1.6-4.21-2.75-7.68-2.58-7.74s1.6,3.3,3.19,7.51c.39,1,.75,2,1.1,3a2.21,2.21,0,0,1,.2,1.52,1,1,0,0,1-.63.57,2.41,2.41,0,0,1-.66.09A9.79,9.79,0,0,1,229.84,219.29Z" style="fill:#263238"></path><path d="M230.89,237.29a28.06,28.06,0,0,1-14.76-3.93s3.58,7.57,14.61,6.54Z" style="fill:#eb996e"></path><path d="M225.64,221.73a1.26,1.26,0,0,1,1.84-.11c.26.27.39.65.68.89s.43.22.61.38a1.31,1.31,0,0,1,.27,1.41,2.24,2.24,0,1,1-2.87-2.82" style="fill:#FF72A8"></path><path d="M225.37,220.35c.24,0,.25,1.63,1.66,2.81s3.17,1,3.18,1.22-.39.32-1.13.34a4.14,4.14,0,0,1-2.66-.93,3.62,3.62,0,0,1-1.29-2.35C225.07,220.75,225.25,220.34,225.37,220.35Z" style="fill:#263238"></path><path d="M225,205.35c-.15.41-1.67.22-3.46.43s-3.23.7-3.46.33c-.11-.17.14-.56.72-1a5.82,5.82,0,0,1,2.57-.9,5.71,5.71,0,0,1,2.71.32C224.74,204.83,225.07,205.15,225,205.35Z" style="fill:#263238"></path><path d="M238.71,203.33c-.26.34-1.31,0-2.57,0s-2.33.23-2.57-.13c-.11-.18.06-.52.52-.85a3.59,3.59,0,0,1,2.1-.57,3.54,3.54,0,0,1,2.05.7C238.69,202.8,238.83,203.16,238.71,203.33Z" style="fill:#263238"></path><path d="M203.63,225.66c6.82-9.88,13.82-21.17,12.71-33.11,0,0,18.78-1.65,25.71,12.16,0,0,5.34-23-10-21.44s-30,11.46-30,11.46Z" style="fill:#263238"></path><path d="M207.25,213.22a2.78,2.78,0,0,0-2.88.15,5.11,5.11,0,0,0,3.22,9.49" style="fill:#ffbe9d"></path><path d="M206.48,219.52c0-.08-.43.09-1-.15a1.89,1.89,0,0,1-.94-1.86,1.94,1.94,0,0,1,1.17-1.75c.55-.22,1-.11,1-.19s-.37-.35-1.1-.19a2.09,2.09,0,0,0-1.08.67,2.39,2.39,0,0,0-.54,1.43,2.16,2.16,0,0,0,1.38,2.27C206.14,219.94,206.54,219.56,206.48,219.52Z" style="fill:#eb996e"></path><path d="M257.53,232.07h.24a2.62,2.62,0,0,1,.68.1,4.15,4.15,0,0,1,2.19,1.46,5.41,5.41,0,0,1,1.16,4,5.6,5.6,0,0,1-3.44,4.21,7.66,7.66,0,0,1-3.2.65,8,8,0,0,1-3.42-.86,12.74,12.74,0,0,1-5.38-5.49,21.09,21.09,0,0,1-2.42-8.15,36.44,36.44,0,0,1,.32-9.12c1-6.2,2.74-11.88,3.45-17.22s.45-10.26-1-14.05a14,14,0,0,0-2.81-4.62,12.87,12.87,0,0,0-3.24-2.51l-1.36-.63c-.4-.18-.77-.26-1.05-.37l-.64-.22a1.35,1.35,0,0,1-.22-.09s.08,0,.23,0l.66.17a10.09,10.09,0,0,1,1.07.33l1.41.59a13.09,13.09,0,0,1,3.36,2.49,14.36,14.36,0,0,1,2.93,4.69c1.52,3.85,1.85,8.89,1.12,14.25s-2.47,11.09-3.41,17.22a36.47,36.47,0,0,0-.32,9,20.78,20.78,0,0,0,2.33,8,12.41,12.41,0,0,0,5.15,5.33,7.32,7.32,0,0,0,6.28.26,4.89,4.89,0,0,0,2.27-7.72,4.1,4.1,0,0,0-2.06-1.49C257.86,232.08,257.53,232.11,257.53,232.07Z" style="fill:#263238"></path><path d="M206.74,243.54a2.67,2.67,0,0,1-.63-.08,12.72,12.72,0,0,1-1.75-.38,18.61,18.61,0,0,1-6-2.89,23.66,23.66,0,0,1-6.54-7.29,25.66,25.66,0,0,1-3.49-11.47,31.52,31.52,0,0,1,1.82-11.86,39.12,39.12,0,0,1,4.4-8.77,44.46,44.46,0,0,1,4-5.22c.51-.59,1-1,1.24-1.3a3.61,3.61,0,0,1,.46-.43s-.12.19-.38.5-.68.75-1.16,1.36a48.21,48.21,0,0,0-3.89,5.3,40.26,40.26,0,0,0-4.26,8.72,31.27,31.27,0,0,0-1.74,11.68,25.64,25.64,0,0,0,1.09,6,26.66,26.66,0,0,0,2.28,5.23,23.83,23.83,0,0,0,6.35,7.23,19.64,19.64,0,0,0,5.78,3C205.89,243.34,206.75,243.48,206.74,243.54Z" style="fill:#263238"></path><ellipse cx="218.7" cy="213.87" rx="0.26" ry="0.52" style="fill:#eb996e"></ellipse><path d="M223.14,214.07c-.14,0-.29-.13-.33-.35s0-.43.17-.46.29.13.34.36S223.28,214,223.14,214.07Z" style="fill:#eb996e"></path><path d="M221.29,216.57c-.14,0-.28-.18-.3-.42s.08-.46.22-.47.28.18.3.42S221.43,216.55,221.29,216.57Z" style="fill:#eb996e"></path><path d="M216.53,216.49a.34.34,0,0,1-.13-.45c.07-.2.23-.32.37-.28a.35.35,0,0,1,.12.45C216.83,216.41,216.66,216.53,216.53,216.49Z" style="fill:#eb996e"></path><ellipse cx="219.26" cy="218.38" rx="0.26" ry="0.36" style="fill:#eb996e"></ellipse><path d="M237,214c-.13.06-.31-.05-.4-.25s0-.41.08-.47.31,0,.4.25S237.1,213.93,237,214Z" style="fill:#eb996e"></path><path d="M240.84,213.67c-.15,0-.23-.23-.27-.45s0-.45.11-.52.35.11.4.43S241,213.69,240.84,213.67Z" style="fill:#eb996e"></path><path d="M239.23,216.08c-.14,0-.24-.17-.31-.34s-.11-.34,0-.46.38,0,.5.27S239.37,216.11,239.23,216.08Z" style="fill:#eb996e"></path><path d="M246.29,192.55c-.07,0,0-.55-.23-1.51a8.84,8.84,0,0,0-1.79-3.67,11.71,11.71,0,0,0-4.91-3.49,16.26,16.26,0,0,0-7.39-.73,42.21,42.21,0,0,0-7.38,1.61c-2.23.66-4.23,1.34-5.88,1.94s-3,1.13-3.91,1.49a10.74,10.74,0,0,1-1.45.53,8.89,8.89,0,0,1,1.37-.72c.89-.42,2.21-1,3.86-1.65s3.63-1.36,5.88-2a40.16,40.16,0,0,1,7.46-1.67,16.42,16.42,0,0,1,7.61.8,11.72,11.72,0,0,1,5,3.72,8.44,8.44,0,0,1,1.7,3.85,5.75,5.75,0,0,1,.07,1.15A1.51,1.51,0,0,1,246.29,192.55Z" style="fill:#455a64"></path><path d="M245.5,212.73a17.25,17.25,0,0,1,.17-1.85,38.2,38.2,0,0,0,.21-5,19.14,19.14,0,0,0-1.56-7.22,12.91,12.91,0,0,0-2.44-3.59,13.83,13.83,0,0,0-3.8-2.7,25.16,25.16,0,0,0-8.79-2.23c-2.81-.24-5.36-.25-7.51-.35a47.34,47.34,0,0,1-5.06-.47c-.6-.1-1.05-.19-1.36-.26a2,2,0,0,1-.47-.14s.67.07,1.85.2,2.92.25,5,.3,4.7,0,7.54.24a25.12,25.12,0,0,1,9,2.24,14.28,14.28,0,0,1,3.93,2.82,13,13,0,0,1,2.51,3.74,18.79,18.79,0,0,1,1.49,7.41,31.36,31.36,0,0,1-.37,5.08c-.09.6-.17,1-.24,1.36A1.78,1.78,0,0,1,245.5,212.73Z" style="fill:#455a64"></path><path d="M206.79,244.39a13.16,13.16,0,0,0-2.48-9.06c-.79-1.25-1.77-2.55-2.84-3.94a45.35,45.35,0,0,1-3.22-4.61,15.12,15.12,0,0,1-2.05-5.9,9.68,9.68,0,0,1,.21-3.34,10.8,10.8,0,0,1,1.44-3.12,10.15,10.15,0,0,0,1.41-3,11.7,11.7,0,0,0,.21-3.18,29.27,29.27,0,0,1,.13-6.23,14.94,14.94,0,0,1,4.64-9.31A10.81,10.81,0,0,1,210.7,190a7.57,7.57,0,0,1,1.94.11,3.09,3.09,0,0,1,.65.18,12.44,12.44,0,0,0-2.57-.09,10.89,10.89,0,0,0-6.24,2.83,14.66,14.66,0,0,0-4.4,9.11,28.32,28.32,0,0,0-.1,6.13,12.16,12.16,0,0,1-.22,3.33,10.56,10.56,0,0,1-1.46,3.11,10.28,10.28,0,0,0-1.39,3,9.38,9.38,0,0,0-.2,3.16,14.77,14.77,0,0,0,1.95,5.72c2,3.37,4.43,6,6,8.6A15.27,15.27,0,0,1,207,241.8a9.94,9.94,0,0,1-.06,1.93A3,3,0,0,1,206.79,244.39Z" style="fill:#455a64"></path><path d="M301.78,340.1a.34.34,0,0,0,0-.68.34.34,0,0,0,0,.68Z" style="fill:#ebebeb"></path><rect x="204.68" y="220.71" width="1.37" height="7.62" style="fill:#fafafa"></rect></g><g id="freepik--character-2--inject-7"><path d="M434.07,464.47l-3.77-8.39L446,448.91l5.65,12.23-.94.5c-4.22,2.22-21.6,11-24.9,11.43C422.12,473.57,434.07,464.47,434.07,464.47Z" style="fill:#FF72A8"></path><g style="opacity:0.4"><path d="M428.34,469.15s-4,3.48-3.12,4,18.83-7.69,26.41-12l-.19-.34-20.79,9.73S429.27,468.77,428.34,469.15Z" style="fill:#fff"></path></g><path d="M451.69,460.67l-.26.16-.75.4-2.8,1.43c-2.36,1.18-5.65,2.78-9.33,4.47s-7,3.14-9.47,4.15l-2.91,1.19-.79.31a1,1,0,0,1-.29.09l.27-.13.78-.34,2.88-1.25c2.43-1.06,5.77-2.53,9.45-4.21s7-3.26,9.35-4.42l2.82-1.36.77-.37Z" style="fill:#263238"></path><path d="M430.77,470.77a8.29,8.29,0,0,0-1.16-1.11,8.05,8.05,0,0,0-1.47-.65,2.78,2.78,0,0,1,2.63,1.76Z" style="fill:#263238"></path><path d="M434.32,466.31c0,.05-.38-.12-.77-.37s-.69-.51-.66-.56a1.91,1.91,0,0,1,.77.38C434.05,466,434.35,466.26,434.32,466.31Z" style="fill:#263238"></path><path d="M435.28,465.06c0,.05-.34,0-.72-.12s-.68-.26-.66-.31.34,0,.72.11S435.3,465,435.28,465.06Z" style="fill:#263238"></path><path d="M435.4,463.21c0,.05-.32.27-.77.48a.46.46,0,1,1-.09-.19A2.13,2.13,0,0,1,435.4,463.21Z" style="fill:#263238"></path><path d="M435.2,462s-.28.4-.79.68a1.76,1.76,0,0,1-1,.31,5,5,0,0,1,.9-.49A5.87,5.87,0,0,1,435.2,462Z" style="fill:#263238"></path><path d="M433.16,465.19a3.4,3.4,0,0,1-1,.45,6.5,6.5,0,0,1-1.18.26,2.92,2.92,0,0,1-.73,0,.58.58,0,0,1-.39-.19.44.44,0,0,1,0-.48,2,2,0,0,1,2.54-.5,2,2,0,0,1,.63.52c.12.15.16.25.15.26a3.07,3.07,0,0,0-.85-.65,2,2,0,0,0-1.12-.17,1.74,1.74,0,0,0-1.16.64c-.11.19,0,.35.27.37a3.11,3.11,0,0,0,.68,0,7.93,7.93,0,0,0,1.16-.2C432.76,465.33,433.14,465.16,433.16,465.19Z" style="fill:#263238"></path><path d="M432.92,465.36a1.16,1.16,0,0,1-.44-.65,2,2,0,0,1-.06-.86,1.13,1.13,0,0,1,.61-.9.44.44,0,0,1,.52.32,1.22,1.22,0,0,1,0,.53,3.51,3.51,0,0,1-.19.83,1.72,1.72,0,0,1-.39.67s.12-.27.25-.72a4,4,0,0,0,.14-.8c0-.27,0-.7-.31-.63s-.41.46-.47.73a1.73,1.73,0,0,0,0,.79A5.1,5.1,0,0,0,432.92,465.36Z" style="fill:#263238"></path><path d="M449.4,456.53s-.47.16-1.14.57a5.65,5.65,0,0,0-2.05,2.2,5.56,5.56,0,0,0-.55,2.95c.07.79.25,1.25.21,1.26a1.1,1.1,0,0,1-.14-.32,4,4,0,0,1-.22-.92,5.27,5.27,0,0,1,2.68-5.3,4.51,4.51,0,0,1,.87-.37A1.26,1.26,0,0,1,449.4,456.53Z" style="fill:#263238"></path><path d="M444.79,450.75a32,32,0,0,1,1.61,3.16,29.29,29.29,0,0,1,1.42,3.25,59.83,59.83,0,0,1-3-6.41Z" style="fill:#263238"></path><path d="M443.22,463a14.57,14.57,0,0,1-4.56,2.14c0-.06,1-.47,2.28-1.06S443.19,462.93,443.22,463Z" style="fill:#263238"></path><path d="M446.29,461.57s0,.26,0,.54,0,.52,0,.54-.19-.21-.19-.54S446.24,461.55,446.29,461.57Z" style="fill:#263238"></path><path d="M446.78,459.6c.06,0,0,.23,0,.47s-.21.42-.26.4,0-.23.06-.47S446.73,459.58,446.78,459.6Z" style="fill:#263238"></path><path d="M448.14,458.19c0,.05-.2.15-.39.33s-.3.39-.36.37,0-.29.22-.52S448.13,458.13,448.14,458.19Z" style="fill:#263238"></path><path d="M449.18,457.34s0,.16-.12.27-.23.16-.27.12,0-.16.12-.27S449.14,457.3,449.18,457.34Z" style="fill:#263238"></path><g style="opacity:0.30000000000000004"><polygon points="449.19 456.12 433.41 463.03 432.57 461.13 448.86 455.07 449.19 456.12"></polygon></g><path d="M363.93,465.66l-.33-10,18.71-.72.63,14.6-1.16.12c-5.15.49-26.22,2.12-29.71,1.21C348.18,469.86,363.93,465.66,363.93,465.66Z" style="fill:#FF72A8"></path><g style="opacity:0.4"><path d="M356.24,468s-5.5,1.82-4.77,2.71,22.08.05,31.47-1.15l-.05-.41L358,470.33S357.33,468,356.24,468Z" style="fill:#fff"></path></g><path d="M383.19,469.11a1.23,1.23,0,0,1-.33.05l-.92.09-3.39.28c-2.87.22-6.83.47-11.22.64s-8.35.25-11.23.27h-3.4l-.93,0a1.14,1.14,0,0,1-.32,0,1.14,1.14,0,0,1,.32,0l.93,0,3.4-.06c2.87-.06,6.84-.16,11.23-.33s8.34-.4,11.21-.58l3.4-.21.92-.05Z" style="fill:#263238"></path><path d="M358,470.62a4.91,4.91,0,0,0-1.91-2.85,3,3,0,0,1,1.91,2.85Z" style="fill:#263238"></path><path d="M363.42,467.6c-.06,0-.33-.27-.62-.69s-.48-.79-.43-.82.32.27.61.69S363.47,467.57,363.42,467.6Z" style="fill:#263238"></path><path d="M364.9,466.74c0,.05-.34-.13-.68-.41s-.57-.54-.53-.59.34.14.68.42S364.94,466.7,364.9,466.74Z" style="fill:#263238"></path><path d="M365.79,464.94a2.15,2.15,0,0,1-1,.16,2.3,2.3,0,0,1-1-.06,2.2,2.2,0,0,1,1-.16A2.3,2.3,0,0,1,365.79,464.94Z" style="fill:#263238"></path><path d="M366.07,463.68A1.89,1.89,0,0,1,365,464a1.87,1.87,0,0,1-1.13-.1,5.39,5.39,0,0,1,1.1-.12A6.15,6.15,0,0,1,366.07,463.68Z" style="fill:#263238"></path><path d="M362.72,466a3.65,3.65,0,0,1-1.2,0,7.15,7.15,0,0,1-1.3-.23,3.8,3.8,0,0,1-.74-.28.62.62,0,0,1-.31-.36.48.48,0,0,1,.16-.49,2.2,2.2,0,0,1,2.75.54,2.24,2.24,0,0,1,.43.79.78.78,0,0,1,0,.32,3.33,3.33,0,0,0-.59-1,2.22,2.22,0,0,0-1-.63,1.88,1.88,0,0,0-1.43.15c-.18.15-.1.38.12.49a4,4,0,0,0,.68.27,9.52,9.52,0,0,0,1.25.27C362.26,466,362.72,466,362.72,466Z" style="fill:#263238"></path><path d="M362.41,466.07a1.16,1.16,0,0,1-.17-.83,2,2,0,0,1,.29-.89,1.2,1.2,0,0,1,1-.65.47.47,0,0,1,.39.54,1.28,1.28,0,0,1-.18.54,3.63,3.63,0,0,1-.54.75,1.83,1.83,0,0,1-.67.52s.23-.23.55-.62a5.3,5.3,0,0,0,.47-.74c.16-.26.25-.72,0-.77s-.6.3-.77.54a1.92,1.92,0,0,0-.31.8A3.84,3.84,0,0,0,362.41,466.07Z" style="fill:#263238"></path><path d="M382.6,464s-.54,0-1.38.1a6.12,6.12,0,0,0-3,1.36,6,6,0,0,0-1.78,2.74,13,13,0,0,0-.3,1.35s0-.13,0-.38a4.85,4.85,0,0,1,.16-1,5.91,5.91,0,0,1,1.79-2.87A5.81,5.81,0,0,1,381.2,464a5.1,5.1,0,0,1,1,0A1.06,1.06,0,0,1,382.6,464Z" style="fill:#263238"></path><path d="M380.36,456.3a67.37,67.37,0,0,1,.4,7.69,61.78,61.78,0,0,1-.4-7.69Z" style="fill:#263238"></path><path d="M373.73,467.94a10.47,10.47,0,0,1-2.72.38,11,11,0,0,1-2.75-.11c0-.07,1.23,0,2.73-.12S373.72,467.87,373.73,467.94Z" style="fill:#263238"></path><path d="M377.39,467.79c.05,0-.09.26-.2.55s-.17.53-.24.53-.11-.29,0-.62S377.35,467.74,377.39,467.79Z" style="fill:#263238"></path><path d="M378.7,466c.05.05-.06.25-.25.45s-.37.33-.42.29.07-.24.25-.44S378.66,466,378.7,466Z" style="fill:#263238"></path><path d="M380.65,465.15c0,.06-.26.07-.53.18s-.46.26-.51.22.09-.3.43-.43S380.67,465.09,380.65,465.15Z" style="fill:#263238"></path><path d="M382,464.72c0,.06-.08.16-.23.23s-.3.07-.32,0,.08-.15.23-.22S382,464.67,382,464.72Z" style="fill:#263238"></path><g style="opacity:0.30000000000000004"><polygon points="382.56 463.51 363.86 463.94 363.8 461.68 382.66 462.32 382.56 463.51"></polygon></g><path d="M410.56,373.54l33.8-53.35s9.16-14.22,7-29.44l-44.47,0-.52,1.4-16.61.11-42.34,53.94a30.89,30.89,0,0,0-6.1,25.74l17.83,91,30,.68-19.51-94.38,12.07-9.65-2.48,6.77a26.11,26.11,0,0,0,2.06,22.27c13.79,23.29,45.5,76.62,46.54,76.26,1.32-.46,25.68-11.53,25.68-11.53Z" style="fill:#263238"></path><path d="M442.49,292.3a3.28,3.28,0,0,1,0,.51c0,.33,0,.83,0,1.48a32.26,32.26,0,0,1-.76,5.57,44.54,44.54,0,0,1-8.93,17.78v0h0c-5.91,5.09-12.87,11.09-20.52,17.23l-30.07,24-9.15,7.21L370.54,368l-.66.49-.23.16s.06-.08.2-.2l.63-.53,2.44-2,9.05-7.34,30-24.08c7.63-6.12,14.61-12.11,20.55-17.16l0,0a45.3,45.3,0,0,0,9-17.56,35.22,35.22,0,0,0,.87-5.52c.05-.64.05-1.14.07-1.47A2.85,2.85,0,0,1,442.49,292.3Z" style="fill:#455a64"></path><path d="M416.22,302.4a.9.9,0,0,1,.32,0l1,0,3.72.22,13.19.9.44,0-.28.35-8.5,10.58-.62.78-.06.08h-.1l-12.88,2.55-.21.05-.06-.21c-.78-2.87-1.48-5.47-2.1-7.74l0-.1.06-.07,4.48-5.52c.5-.6.9-1.09,1.22-1.46a2.81,2.81,0,0,1,.44-.48,6.27,6.27,0,0,1-.4.57l-1.16,1.55c-1.05,1.37-2.5,3.26-4.29,5.57l0-.16,2.19,7.71-.27-.16,12.87-2.61-.15.1.63-.78,8.53-10.56.17.39-13.07-1.1-3.74-.35-1-.11A1.68,1.68,0,0,1,416.22,302.4Z" style="fill:#455a64"></path><path d="M431.88,306.48a13,13,0,0,1-2.52-.18l-6.05-.67-6.06-.65a13.58,13.58,0,0,1-2.5-.36,10.53,10.53,0,0,1,2.53,0c1.56.07,3.71.23,6.08.49s4.51.56,6.05.83A11.58,11.58,0,0,1,431.88,306.48Z" style="fill:#455a64"></path><path d="M450.17,306.48a15.31,15.31,0,0,1-2.81.19l.16-.1c-.75,1.43-1.81,3.37-3,5.49l-1.82,3.19v-.2c.54,1.49,1,2.77,1.26,3.68a5.91,5.91,0,0,1,.39,1.46,6.25,6.25,0,0,1-.66-1.36c-.36-.88-.86-2.13-1.43-3.62l0-.1,0-.1c.56-1,1.16-2.07,1.79-3.21,1.19-2.12,2.29-4,3.13-5.41l.06-.1h.1A15.31,15.31,0,0,1,450.17,306.48Z" style="fill:#455a64"></path><path d="M410,374.13a15.86,15.86,0,0,1-3.9,1,15.61,15.61,0,0,1-4,.5,31.67,31.67,0,0,1,7.89-1.52Z" style="fill:#455a64"></path><path d="M369.72,368.93a27.69,27.69,0,0,1-7-3.33,15.5,15.5,0,0,1,3.59,1.43A15.06,15.06,0,0,1,369.72,368.93Z" style="fill:#455a64"></path><path d="M307.91,223.39a33.28,33.28,0,0,1-11.2,4.33,11.72,11.72,0,0,1-5,.08,5.19,5.19,0,0,1-3.71-3.11c-.37-1.1-.27-2.37-.89-3.35-.84-1.32-2.61-1.58-4.13-1.94-2.69-.65-5.4-2.29-6.17-4.94-.92-3.17,1.2-6.34,3.19-9a15.59,15.59,0,0,1,4.67-4.59c1.94-1,4.59-1.08,6.13.49a10.84,10.84,0,0,1,4.8-6.08,7.43,7.43,0,0,1,7.54.11,5.69,5.69,0,0,1,2.06,7c2.4-.55,4.63,1.84,5,4.27s-.51,4.85-1.11,7.24-.89,5.11.49,7.14" style="fill:#FF72A8"></path><g style="opacity:0.7000000000000001"><path d="M308.08,223.54a33.55,33.55,0,0,1-11.33,4.38,12,12,0,0,1-5.06.08,5.22,5.22,0,0,1-3.75-3.15c-.38-1.11-.28-2.39-.91-3.39-.85-1.33-2.64-1.59-4.18-2-2.72-.66-5.46-2.32-6.24-5-.93-3.21,1.21-6.42,3.23-9.07a15.69,15.69,0,0,1,4.72-4.64c2-1,4.65-1.1,6.21.49a10.93,10.93,0,0,1,4.86-6.15,7.5,7.5,0,0,1,7.63.11,5.74,5.74,0,0,1,2.08,7c2.43-.55,4.69,1.86,5.06,4.32s-.51,4.92-1.13,7.33-.89,5.17.51,7.23" style="fill:#fff"></path></g><path d="M380.91,244.11,365.06,260l-21-26.74h0l-.72-.92-.15.13-15.4-13.9-19.33,1.06L322,222.51l6,5.74L324.71,231s-7.85-6.35-9.62-6.71-1.59.89-1.42,2.3,9.2,9.91,9.2,9.91l9.88,5.81-.08.07L363.83,283l32.5-21.64Z" style="fill:#ffbe9d"></path><path d="M327.59,224.68l-20.43-7.23-1.58,5.33,19.75,7.8a3.16,3.16,0,0,0,4.16-2h0A3.16,3.16,0,0,0,327.59,224.68Z" style="fill:#263238"></path><path d="M307.16,217.45l-8.24-8.6s-3.88,5.57-2.55,8.6l2.06,1.09h-2.9s-1.34,3.76,0,5.45l10.05-1.21Z" style="fill:#FF72A8"></path><polygon points="307.16 217.45 305.58 222.78 308.65 223.99 310.29 218.56 307.16 217.45" style="fill:#455a64"></polygon><path d="M297,226c-.05,0,.25-.49.93-1a9.73,9.73,0,0,1,3-1.55,13,13,0,0,1,4.63-.73c0,.18-2.06.48-4.47,1.23a13,13,0,0,0-2.92,1.35A7.93,7.93,0,0,1,297,226Z" style="fill:#FF72A8"></path><path d="M301.06,208.33c.15-.05.89,2.28,2.31,4.89s3,4.51,2.83,4.62a14.23,14.23,0,0,1-3.29-4.37A14.42,14.42,0,0,1,301.06,208.33Z" style="fill:#FF72A8"></path><path d="M362.41,284a11.89,11.89,0,0,0,4.37-.62,9.31,9.31,0,0,0,3.76-2.89,23,23,0,0,0,1.63-2.35c.13-.21.28-.43.4-.64a5.71,5.71,0,0,0,.29-.66c.18-.47.32-1,.46-1.48,1.05-4.1,1.66-7.92,2.18-10.65.23-1.29.43-2.38.59-3.25a5.15,5.15,0,0,1,.28-1.18,4.8,4.8,0,0,1-.08,1.21c-.08.78-.23,1.9-.43,3.28a106.78,106.78,0,0,1-2,10.73c-.15.51-.29,1-.48,1.52a6.21,6.21,0,0,1-.34.75c-.14.23-.28.43-.41.64a21.87,21.87,0,0,1-1.69,2.38,9.42,9.42,0,0,1-4,2.93,8.48,8.48,0,0,1-3.31.47A5.09,5.09,0,0,1,362.41,284Z" style="fill:#eb996e"></path><path d="M353,254.58l-.38,10-42.76-1.38L311.65,276l49.09,7.83a11.42,11.42,0,0,0,13-9.25l2.59-14.34Z" style="fill:#ffbe9d"></path><path d="M309.8,263.41a2.72,2.72,0,0,1,.53,0h1.53l5.64.05c4.75.06,11.32.18,18.57.35l16.53.44-.21.19c.17-2.92.31-5.34.41-7.1.06-.79.1-1.43.14-1.94a3,3,0,0,1,.09-.68,3,3,0,0,1,0,.68q0,.77,0,2c-.06,1.77-.14,4.18-.23,7.11v.2h-.2l-16.53-.32c-7.26-.17-13.82-.35-18.57-.51l-5.63-.21-1.53-.08A2,2,0,0,1,309.8,263.41Z" style="fill:#eb996e"></path><polygon points="288.97 259.42 279.92 244.11 309.62 244.11 315.95 258.24 332.49 260.12 332.49 263.43 298.53 264.86 288.97 259.42" style="fill:#455a64"></polygon><polygon points="284.41 246.22 290.97 257.68 313.35 257.68 307.16 245.87 284.41 246.22" style="fill:#fafafa"></polygon><path d="M313.39,257.7H291l-6.59-11.5h.05l22.76-.35h0ZM291,257.65h22.33l-6.17-11.76-22.69.35Z" style="fill:#eb996e"></path><path d="M311.65,276s-14.65-.78-19.94-10.48l-2.56-6.13s13.77,3.32,14.48,1.92-4.45-10.1-3.23-10.27,2.72-1.27,5.13,3.38,5,9.95,5,9.95Z" style="fill:#ffbe9d"></path><path d="M322,277.68a11.19,11.19,0,0,1-1.59-.19l-4.32-.54c-1.83-.23-4-.51-6.41-.94a38.6,38.6,0,0,1-7.67-2.07,15.54,15.54,0,0,1-3.63-2c-1.08-.79-2.09-1.58-3-2.38a25.27,25.27,0,0,1-4.39-4.79,14.93,14.93,0,0,1-1.93-3.93,7.67,7.67,0,0,1-.29-1.16c0-.27-.07-.41,0-.41a18.72,18.72,0,0,0,2.57,5.29,26,26,0,0,0,4.41,4.64c.92.77,1.93,1.55,3,2.32a15.76,15.76,0,0,0,3.52,1.95,40.63,40.63,0,0,0,7.57,2.08c2.38.45,4.55.77,6.37,1s3.29.51,4.3.71c.51.1.9.2,1.16.26A1.27,1.27,0,0,1,322,277.68Z" style="fill:#eb996e"></path><path d="M389.46,293.12l61.9-2.37S439.18,225.37,418,207.63s-47.64-11.43-47.64-11.43-10.09,2.57-14,4.87h0c-7.6,2.53-5.43,53-5.43,53l29.88,7.28.54-14.69c3,4.6,5.59,8.49,7.24,11a9.29,9.29,0,0,1,1.49,6.34Z" style="fill:#FF72A8"></path><g style="opacity:0.30000000000000004"><path d="M363.38,193.26c.78,9.14,6,17.56,13.13,23.35s16,9.14,25,10.86c4.89.93,10.13,1.37,14.69-.61s8.12-7.06,6.86-11.87c-1.23-4.65-6.08-7.21-10.45-9.21l-39-17.87"></path></g><g style="opacity:0.30000000000000004"><path d="M396.63,250c.52,5.09,2.59,9.88,4.68,14.55s4.27,9.39,5,14.45,0,10.61-3.36,14.5Z"></path></g><polygon points="388.57 257.61 386.08 293.25 341.25 347.06 353.51 353.95 403.31 293.25 401.39 275.84 445.43 265.55 445.43 261.06 401.39 270.1 396.33 249.91 381.59 239.86 381.33 246.65 388.57 257.61" style="fill:#455a64"></polygon><path d="M434.58,266.43a1.68,1.68,0,0,1-.12-.33c-.07-.25-.17-.57-.29-1a31.07,31.07,0,0,1-.77-3.86,34.31,34.31,0,0,1,1.12-14.35,31.61,31.61,0,0,1,1.7-4.5,11.46,11.46,0,0,1,1.26-2.25,3.9,3.9,0,0,1,2.22-1.6,2.85,2.85,0,0,1,2.65,1,6.79,6.79,0,0,1,1.43,2.52,14.84,14.84,0,0,1,.79,5.89,24.48,24.48,0,0,1-4.4,11.83c-1.2,1.85-2.55,3.64-3.94,5.43a8.92,8.92,0,0,1-1.16,1.32,2.87,2.87,0,0,1-1.69.76,3.75,3.75,0,0,1-1.79-.42c-.54-.26-1-.55-1.54-.84a60.85,60.85,0,0,1-11-8,61.9,61.9,0,0,1-4.57-4.6c-.71-.79-1.38-1.59-2-2.4a20.19,20.19,0,0,1-1.82-2.5,5.36,5.36,0,0,1-.84-3,3.37,3.37,0,0,1,1.38-2.68,3.55,3.55,0,0,1,2.9-.31,12,12,0,0,1,2.56,1.07,34,34,0,0,1,8.17,5.75,34.85,34.85,0,0,1,8.25,11.8,26.65,26.65,0,0,1,1.65,5,1.4,1.4,0,0,1-.12-.32l-.31-1a37.67,37.67,0,0,0-1.4-3.65,35.47,35.47,0,0,0-8.32-11.61,34,34,0,0,0-8.11-5.64,12.21,12.21,0,0,0-2.48-1,3.12,3.12,0,0,0-2.54.26,3,3,0,0,0-1.16,2.32,4.94,4.94,0,0,0,.78,2.7,20.21,20.21,0,0,0,1.79,2.43c.64.8,1.32,1.6,2,2.38a62.84,62.84,0,0,0,4.54,4.55,61.52,61.52,0,0,0,10.94,7.9,6.47,6.47,0,0,0,3.05,1.19c1-.06,1.8-1,2.47-1.87,1.38-1.79,2.73-3.57,3.92-5.39a24.16,24.16,0,0,0,4.35-11.59,14.64,14.64,0,0,0-.74-5.71,6.42,6.42,0,0,0-1.32-2.36,2.44,2.44,0,0,0-2.25-.85,3.52,3.52,0,0,0-2,1.43,11.64,11.64,0,0,0-1.23,2.17,32.28,32.28,0,0,0-1.71,4.44,34.64,34.64,0,0,0-1.27,14.21,38.32,38.32,0,0,0,.67,3.86l.24,1A1.29,1.29,0,0,1,434.58,266.43Z" style="fill:#263238"></path><path d="M433.56,286.6a1.65,1.65,0,0,1-.19-.91,4.42,4.42,0,0,1,.8-2.4,20.48,20.48,0,0,1,2.39-2.84c.87-1,1.84-2.32,1.63-3.83a3.87,3.87,0,0,0-1-1.93,13.29,13.29,0,0,0-1.55-1.46,6.67,6.67,0,0,1-2.35-2.93,2.94,2.94,0,0,1,.31-2.51c.38-.5.75-.58.75-.56s-.29.19-.58.67a2.82,2.82,0,0,0-.13,2.29,6.68,6.68,0,0,0,2.3,2.67,13.27,13.27,0,0,1,1.64,1.5,4.27,4.27,0,0,1,1.1,2.19,3.94,3.94,0,0,1-.47,2.41,9,9,0,0,1-1.31,1.81,25.14,25.14,0,0,0-2.45,2.72,4.75,4.75,0,0,0-.9,2.21C433.52,286.27,433.61,286.59,433.56,286.6Z" style="fill:#263238"></path><path d="M444.26,269.49s.24.09.42.46a2,2,0,0,1,0,1.72,2.57,2.57,0,0,1-2.15,1.35,4.53,4.53,0,0,1-3-.93,12.18,12.18,0,0,1-3.66-4.1,5.83,5.83,0,0,1-.81-2.12c.08,0,.39.77,1.13,1.93a13.64,13.64,0,0,0,3.63,3.86,4.24,4.24,0,0,0,2.63.88,2.24,2.24,0,0,0,1.87-1,1.9,1.9,0,0,0,.17-1.47C444.39,269.68,444.23,269.52,444.26,269.49Z" style="fill:#263238"></path><path d="M381.33,226.4a5.92,5.92,0,0,1,.13,1.29c.05.84.1,2.05.15,3.55.08,3,.12,7.13,0,11.7s-.3,8.71-.51,11.7c-.11,1.49-.21,2.7-.29,3.53a6.15,6.15,0,0,1-.19,1.29,6.56,6.56,0,0,1,0-1.3c0-.94.07-2.13.12-3.54.12-3,.27-7.12.36-11.69s.12-8.69.13-11.69c0-1.41,0-2.6,0-3.54A6.67,6.67,0,0,1,381.33,226.4Z" style="fill:#263238"></path><path d="M338.27,154c.67.45,9,31.57,13.53,33.82s20.74,0,20.74,0l-5.41-37Z" style="fill:#ffbe9d"></path><path d="M339.4,155.12a10.23,10.23,0,0,1-3.46-11,6.5,6.5,0,0,1,1.2-2.27c2.71-3.15,13.49-14.49,22.78-15.56,5.39-.62,17.61-.09,20.59,5.9,2,4,30.82,50.7,34.65,60.85s12.85,21,4.74,27.28-48.27-.69-55-17.82-5-14-4.49-21.48a39.09,39.09,0,0,1,1.36-8.8s6.64-9.93-.75-12.21c-5.66-1.75-6.95,5.15-6.95,5.15s-1.06.85-2.92-.31C350.05,164.19,343.71,158.63,339.4,155.12Z" style="fill:#263238"></path><path d="M376,135c-1.58-1.15-.16-6.54.71-8.29a7.11,7.11,0,0,1,4.56-3.44,7.91,7.91,0,0,1,5.49.27c2.25,1,3.68,3.34,4.54,5.67a12.1,12.1,0,0,1,.76,6.45,6.8,6.8,0,0,1-3.83,5,7.93,7.93,0,0,1-6.07-.43,14.28,14.28,0,0,1-7.91-9" style="fill:#263238"></path><path d="M383.19,142.49a2.08,2.08,0,0,1-.27.41c-.19.25-.45.65-.84,1.11a34.67,34.67,0,0,1-3.52,3.76,38.72,38.72,0,0,1-31.43,10,35.45,35.45,0,0,1-5.05-1c-.58-.15-1-.32-1.33-.41a2.06,2.06,0,0,1-.46-.19,14.77,14.77,0,0,1,1.84.41,45.18,45.18,0,0,0,5,.85,39.95,39.95,0,0,0,31.14-10,42.91,42.91,0,0,0,3.61-3.62A13.79,13.79,0,0,1,383.19,142.49Z" style="fill:#455a64"></path><path d="M380,140.62a9.9,9.9,0,0,1-1.3,1.18,16.15,16.15,0,0,1-1.61,1.28c-.65.47-1.37,1-2.23,1.57s-1.79,1.14-2.84,1.7-2.19,1.13-3.39,1.71a51.65,51.65,0,0,1-8.22,2.86,53.49,53.49,0,0,1-8.61,1.31c-1.34.05-2.61.13-3.8.07a33,33,0,0,1-3.3-.19c-1-.06-1.91-.23-2.71-.34a18.72,18.72,0,0,1-2-.37,10.18,10.18,0,0,1-1.7-.44,11.73,11.73,0,0,1,1.73.24c.56.1,1.24.21,2,.28s1.69.23,2.7.27,2.1.14,3.28.12,2.44-.05,3.76-.12a50,50,0,0,0,16.66-4.12c1.2-.57,2.36-1.08,3.38-1.66s2-1.11,2.85-1.64,1.6-1,2.26-1.49a19.87,19.87,0,0,0,1.66-1.2A12.91,12.91,0,0,1,380,140.62Z" style="fill:#455a64"></path><path d="M390.72,130.53s.18.21.12.67a2.56,2.56,0,0,1-1,1.5,14.9,14.9,0,0,1-5.45,2.27,15.63,15.63,0,0,1-5.88.1,7.1,7.1,0,0,1-2.34-.7c0-.08.92.16,2.39.34a18.3,18.3,0,0,0,5.73-.25,16.83,16.83,0,0,0,5.33-2.06,2.5,2.5,0,0,0,1.06-1.25C390.76,130.78,390.67,130.54,390.72,130.53Z" style="fill:#455a64"></path><path d="M391.71,134.13a1.49,1.49,0,0,1-.08.67,5.73,5.73,0,0,1-.77,1.67,8,8,0,0,1-5,3.32,11,11,0,0,1-6-.53,6.84,6.84,0,0,1-2.21-1.13c0-.08.88.35,2.33.78a11.77,11.77,0,0,0,5.76.37,8.18,8.18,0,0,0,4.79-3A13,13,0,0,0,391.71,134.13Z" style="fill:#455a64"></path><path d="M401.16,218a3.79,3.79,0,0,1-.24-.82,9.05,9.05,0,0,1-.15-2.47c.05-1.07.26-2.37.4-3.87a9.23,9.23,0,0,0-.72-5,12.94,12.94,0,0,0-3.94-4.64,31.24,31.24,0,0,0-6.13-3.57c-2.29-1.05-4.77-2-7.32-3a25.53,25.53,0,0,1-3.81-1.83,8.48,8.48,0,0,1-3.11-3.1,8.75,8.75,0,0,1-1-4.27,20.8,20.8,0,0,1,.45-4.21c.57-2.7,1.24-5.25,1.55-7.75a24.62,24.62,0,0,0,0-7.07,15.78,15.78,0,0,0-2-5.78,10.55,10.55,0,0,0-10.2-5.46s.07,0,.21-.05a4.4,4.4,0,0,1,.64-.09,8.38,8.38,0,0,1,2.46.16,10.7,10.7,0,0,1,3.61,1.52,11.79,11.79,0,0,1,3.6,3.72,16.35,16.35,0,0,1,2.15,5.91,25.11,25.11,0,0,1,0,7.2c-.29,2.53-1,5.12-1.52,7.79a20.75,20.75,0,0,0-.44,4.1,8.45,8.45,0,0,0,1,4,8.09,8.09,0,0,0,2.93,2.91,25.06,25.06,0,0,0,3.73,1.8c2.54,1,5,2,7.33,3a31.4,31.4,0,0,1,6.2,3.67,13.45,13.45,0,0,1,4,4.83,9.5,9.5,0,0,1,.67,5.13c-.17,1.51-.41,2.8-.49,3.86A11,11,0,0,0,401.16,218Z" style="fill:#455a64"></path><path d="M417.37,219.94a4.86,4.86,0,0,1,.14-.86c.11-.6.27-1.4.46-2.42a25.1,25.1,0,0,0,.26-9,12.61,12.61,0,0,0-2.43-5.61,17.74,17.74,0,0,0-5.53-4.39c-2.19-1.24-4.64-2.3-7-3.71a25.79,25.79,0,0,1-6.56-5.53,47.4,47.4,0,0,1-8-14.43c-1.75-4.77-3-9.16-4.31-12.77a75.63,75.63,0,0,0-3.44-8.38c-.48-1-.86-1.69-1.13-2.18a5,5,0,0,1-.39-.77,5.4,5.4,0,0,1,.48.71c.3.48.72,1.2,1.22,2.15a65.89,65.89,0,0,1,3.6,8.35c1.33,3.6,2.65,8,4.42,12.72a47.66,47.66,0,0,0,7.94,14.26,25.74,25.74,0,0,0,6.43,5.43c2.36,1.4,4.8,2.47,7,3.73a18.1,18.1,0,0,1,5.63,4.55,13,13,0,0,1,2.46,5.8,24.49,24.49,0,0,1-.43,9.08c-.22,1.05-.42,1.86-.56,2.41A5.53,5.53,0,0,1,417.37,219.94Z" style="fill:#455a64"></path><path d="M385.67,129.19s.07-.09.22-.24a3.61,3.61,0,0,1,.78-.55,5.53,5.53,0,0,1,3.44-.57,6.62,6.62,0,0,1,4.44,2.62,10.07,10.07,0,0,1,1.85,6.06,8.62,8.62,0,0,1-.57,3.28,4.53,4.53,0,0,1-2.13,2.3,9.19,9.19,0,0,1-5.13.73,11.27,11.27,0,0,1-3.36-.92,4.05,4.05,0,0,1-1.1-.64,15.51,15.51,0,0,0,4.5,1.2,9.17,9.17,0,0,0,4.87-.79,4.13,4.13,0,0,0,1.88-2.08,8.38,8.38,0,0,0,.52-3.08,9.71,9.71,0,0,0-1.72-5.77,6.33,6.33,0,0,0-4.1-2.55,5.62,5.62,0,0,0-3.3.39C386,128.92,385.71,129.24,385.67,129.19Z" style="fill:#263238"></path><path d="M411.87,150.56a6.54,6.54,0,0,1-1.27.22,11.66,11.66,0,0,1-1.51.13,18.17,18.17,0,0,1-2,.05,31.66,31.66,0,0,1-5.2-.49,34.74,34.74,0,0,1-6.17-1.73,35.63,35.63,0,0,1-5.73-2.89,32,32,0,0,1-4.17-3.15c-.57-.48-1-1-1.45-1.39a13.17,13.17,0,0,1-1-1.12,6,6,0,0,1-.79-1c.08-.07,1.25,1.35,3.5,3.25a36.14,36.14,0,0,0,4.19,3,39.14,39.14,0,0,0,5.65,2.81A38.14,38.14,0,0,0,402,150a34.52,34.52,0,0,0,5.13.59C410,150.7,411.86,150.45,411.87,150.56Z" style="fill:#263238"></path><path d="M358.91,168a1.8,1.8,0,0,0,1-.34,3.24,3.24,0,0,0,.83-2.47,2,2,0,0,0-1.42-2,2.36,2.36,0,0,0-1.1.11c-.05,0,.32-.48,1.15-.41a1.84,1.84,0,0,1,1.2.68,2.53,2.53,0,0,1,.58,1.56,3.24,3.24,0,0,1-1.07,2.73C359.41,168.31,358.86,168,358.91,168Z" style="fill:#eb996e"></path></g><g id="freepik--Plant--inject-7"><rect x="50.47" y="409.51" width="71.89" height="9.88" style="fill:#263238"></rect><path d="M122.49,419.51H50.35V409.39h72.14Zm-71.89-.24h71.64v-9.63H50.6Z" style="fill:#263238"></path><polygon points="57.14 416.1 67.49 467.15 105.78 467.15 115.78 419.39 57.14 416.1" style="fill:#263238"></polygon><polygon points="57.14 462.33 62.66 469.92 109.2 469.92 115.78 462.33 57.14 462.33" style="fill:#455a64"></polygon><path d="M83.72,417.59c-.14,0-.32-23.65-.41-52.81s0-52.83.11-52.83.32,23.65.41,52.82S83.86,417.59,83.72,417.59Z" style="fill:#263238"></path><path d="M99.73,358.41a2.17,2.17,0,0,1-.19.55l-.64,1.53c-.14.34-.3.7-.47,1.1L98,362.93c-.17.49-.36,1-.55,1.54s-.35,1.15-.54,1.76a74.35,74.35,0,0,0-2,8.8,108.91,108.91,0,0,0-1.11,11,149.1,149.1,0,0,0,.57,20.11c.23,2.56.46,4.64.63,6.07.08.67.14,1.22.19,1.65a2.32,2.32,0,0,1,0,.58,3,3,0,0,1-.13-.56l-.27-1.64c-.24-1.43-.52-3.5-.8-6.07A132.09,132.09,0,0,1,93.23,386,101.29,101.29,0,0,1,94.39,375a66,66,0,0,1,2.13-8.83c.2-.61.36-1.21.57-1.75s.41-1.05.59-1.54.36-.92.52-1.33.36-.76.52-1.09c.29-.61.54-1.1.73-1.5A2.62,2.62,0,0,1,99.73,358.41Z" style="fill:#263238"></path><path d="M97.9,339.28a7,7,0,0,1-.23.78c-.19.55-.44,1.28-.75,2.2l-.55,1.58c-.18.59-.37,1.23-.58,1.91-.42,1.37-.91,2.93-1.34,4.68l-.72,2.73c-.22,1-.44,2-.68,3-.5,2.06-.86,4.3-1.32,6.63-.8,4.7-1.49,9.89-2,15.37s-.65,10.72-.72,15.49,0,9.06.24,12.66c.07,1.8.18,3.42.28,4.85s.17,2.66.26,3.67.13,1.74.18,2.32a4.51,4.51,0,0,1,0,.81,6.94,6.94,0,0,1-.13-.8q-.09-.87-.27-2.31c-.12-1-.24-2.23-.35-3.66s-.26-3.06-.35-4.87c-.24-3.6-.34-7.9-.35-12.68s.23-10,.68-15.52,1.2-10.7,2-15.41c.48-2.34.86-4.58,1.38-6.64.24-1,.48-2,.7-3s.52-1.87.76-2.74c.46-1.75,1-3.3,1.42-4.66l.62-1.9c.21-.58.41-1.1.59-1.58l.84-2.17A4.25,4.25,0,0,1,97.9,339.28Z" style="fill:#263238"></path><path d="M79.17,421.78a1.18,1.18,0,0,1,0-.28c0-.21,0-.48-.07-.81,0-.76-.12-1.8-.21-3.13-.17-2.76-.42-6.69-.72-11.52-.62-9.73-1.53-23.16-3.16-37.94-.84-7.39-1.81-14.4-2.82-20.76-.53-3.18-1-6.2-1.57-9s-1-5.43-1.55-7.82-1-4.53-1.42-6.41-.82-3.51-1.16-4.83l-.75-3c-.07-.32-.13-.59-.18-.79a.85.85,0,0,1,0-.28,2.32,2.32,0,0,1,.09.26l.23.78c.2.73.49,1.74.84,3s.8,2.92,1.24,4.81,1,4,1.5,6.41,1.09,5,1.62,7.81,1.07,5.83,1.62,9c1,6.36,2,13.39,2.86,20.78,1.63,14.79,2.48,28.24,3,38,.27,4.87.45,8.81.56,11.54,0,1.33.09,2.38.12,3.13,0,.34,0,.61,0,.82A1.23,1.23,0,0,1,79.17,421.78Z" style="fill:#263238"></path><path d="M83.13,323.32c-.31-3.35-3.7-5.88-7.06-5.91s-6.5,2-8.56,4.64a26.87,26.87,0,0,0-4.12,9.15c-2.27,7.89-3.51,16.19-2.54,24.34S65.13,371.73,71,377.49c1,.94,2.19,1.87,3.49,1.59A4.12,4.12,0,0,0,76.31,378,54.46,54.46,0,0,0,94,336.52c-.09-3.1-.5-6.33-2.21-8.91s-5.72-5.33-8.65-4.29" style="fill:#FF72A8"></path><path d="M58,296.48l-4.74,8.59c-.11.2-.26.42-.49.44s-.43-.21-.57-.42L39.68,285.86l2.89-1.64Z" style="fill:#FF72A8"></path><g style="opacity:0.2"><path d="M58,296.48l-4.74,8.59c-.11.2-.26.42-.49.44s-.43-.21-.57-.42L39.68,285.86l2.89-1.64Z"></path></g><path d="M83.42,312,40.68,286.73a2,2,0,0,1-1-1.05c-.17-.63.3-1.24.76-1.71a29.47,29.47,0,0,1,22.84-9,26.08,26.08,0,0,1,20.65,12.85C88,295.21,88.15,305,83.42,312" style="fill:#FF72A8"></path><path d="M46.84,278.68a2.26,2.26,0,0,1,.56-.07c.37,0,.91-.09,1.61-.08A32.9,32.9,0,0,1,55,279a34.66,34.66,0,0,1,27.66,25,32.45,32.45,0,0,1,1.06,5.86,15.8,15.8,0,0,1,.08,1.61,2.28,2.28,0,0,1,0,.57s-.1-.77-.27-2.16a35.09,35.09,0,0,0-28.59-30.55,36.18,36.18,0,0,0-5.87-.63C47.62,278.7,46.84,278.72,46.84,278.68Z" style="fill:#263238"></path><path d="M77.64,294.54a9.85,9.85,0,0,1-2.16,1c-1.37.54-3.27,1.23-5.4,1.9S66,298.64,64.58,299a10.12,10.12,0,0,1-2.33.45,11.23,11.23,0,0,1,2.23-.79l5.45-1.71,5.42-1.75A11.1,11.1,0,0,1,77.64,294.54Z" style="fill:#263238"></path><path d="M70.91,276.46a18.43,18.43,0,0,1,.5,4.77,18.12,18.12,0,0,1-.26,4.79,29.27,29.27,0,0,1-.25-4.78A28.13,28.13,0,0,1,70.91,276.46Z" style="fill:#263238"></path><path d="M40.31,286.25a20.14,20.14,0,0,1,3.1-1.09c1.94-.6,4.65-1.36,7.66-2.09s5.77-1.28,7.77-1.63A18.94,18.94,0,0,1,62.1,281a24,24,0,0,1-3.19.8c-2,.44-4.71,1.05-7.72,1.77s-5.72,1.43-7.68,1.94A24,24,0,0,1,40.31,286.25Z" style="fill:#263238"></path><path d="M63.71,315.39c-3.67-2.79-7.56-3.34-12.17-3.15a37.1,37.1,0,0,0-13.32,3.43c-7.21,3.16-14,7.81-18.29,14.4s-5.81,15.3-2.58,22.48a3.22,3.22,0,0,0,1.46,1.77,3.54,3.54,0,0,0,2.41-.18c8.2-2.68,16.45-5.38,24-9.57s14.4-10,18.44-17.62a15,15,0,0,0,1.94-5.85,7.26,7.26,0,0,0-1.88-5.71" style="fill:#FF72A8"></path><path d="M63.79,314.52a2.92,2.92,0,0,1-.59.24l-1.72.6-1.24.41c-.46.16-.94.36-1.46.57-1,.42-2.24.83-3.51,1.45l-2,.92c-.69.32-1.39.71-2.13,1.09-1.48.73-3,1.66-4.59,2.61a78.24,78.24,0,0,0-9.7,7.19,79.6,79.6,0,0,0-8.38,8.72c-1.14,1.46-2.26,2.84-3.17,4.22-.47.68-.95,1.32-1.36,2l-1.16,1.88c-.77,1.18-1.34,2.32-1.89,3.29-.27.49-.53.94-.75,1.37s-.39.82-.57,1.18l-.8,1.63a3.36,3.36,0,0,1-.31.55,2.78,2.78,0,0,1,.22-.59l.71-1.67c.17-.37.34-.77.54-1.21s.45-.89.71-1.39c.52-1,1.07-2.15,1.83-3.35.36-.61.74-1.24,1.14-1.9s.88-1.31,1.34-2c.9-1.4,2-2.8,3.15-4.28a76.9,76.9,0,0,1,8.41-8.8A76.61,76.61,0,0,1,46.3,322c1.61-.94,3.13-1.86,4.64-2.58.74-.37,1.45-.76,2.15-1.07l2-.89c1.28-.6,2.5-1,3.55-1.39.53-.19,1-.38,1.48-.53l1.26-.37,1.75-.5A4.2,4.2,0,0,1,63.79,314.52Z" style="fill:#263238"></path><path d="M35.07,330.08A90.28,90.28,0,0,1,26.13,333,89.87,89.87,0,0,1,17,335.35,84.73,84.73,0,0,1,26,332.46,85.11,85.11,0,0,1,35.07,330.08Z" style="fill:#263238"></path><path d="M34.7,349.81a14.43,14.43,0,0,1-.2-2.79c0-1.72,0-4.1,0-6.73s.22-5,.36-6.72a13.88,13.88,0,0,1,.35-2.77,16.21,16.21,0,0,1,0,2.79c-.06,1.88-.13,4.18-.21,6.71s-.12,4.83-.17,6.72A16,16,0,0,1,34.7,349.81Z" style="fill:#263238"></path><path d="M51.6,341.2c-.14,0-.59-4.83-1-10.81s-.64-10.83-.49-10.84.59,4.83,1,10.81S51.74,341.19,51.6,341.2Z" style="fill:#263238"></path><path d="M30.56,319.08a16.1,16.1,0,0,1,2.87-.09c1.77,0,4.21.07,6.9.16s5.13.19,6.89.3a15.91,15.91,0,0,1,2.86.27,14.84,14.84,0,0,1-2.86.09c-1.77,0-4.21-.06-6.91-.15s-5.13-.2-6.9-.31A15.86,15.86,0,0,1,30.56,319.08Z" style="fill:#263238"></path><path d="M72.82,379.79a2.45,2.45,0,0,1-.07-.58c0-.44,0-1-.07-1.68-.07-1.46-.08-3.57,0-6.18s.22-5.72.53-9.16S74,355,74.69,351.06s1.55-7.63,2.43-11,1.81-6.31,2.67-8.78,1.59-4.45,2.15-5.79c.27-.63.48-1.15.65-1.55a3.68,3.68,0,0,1,.26-.53,2.39,2.39,0,0,1-.16.57c-.15.41-.33.93-.56,1.58-.51,1.36-1.2,3.36-2,5.83s-1.68,5.46-2.55,8.79-1.68,7-2.39,10.94-1.18,7.66-1.54,11.08-.54,6.52-.63,9.13-.14,4.71-.14,6.17c0,.68,0,1.24,0,1.67A3.35,3.35,0,0,1,72.82,379.79Z" style="fill:#263238"></path><path d="M75.07,350.63a11.47,11.47,0,0,1-1.71,1.87c-1.1,1.1-2.67,2.58-4.46,4.15s-3.47,2.94-4.71,3.89A12.36,12.36,0,0,1,62.12,362,12.35,12.35,0,0,1,64,360.26l4.6-4,4.56-4A12.6,12.6,0,0,1,75.07,350.63Z" style="fill:#263238"></path><path d="M88.6,361.53A20.89,20.89,0,0,1,86.78,359l-4.22-6.16-4.31-6.11a19.81,19.81,0,0,1-1.73-2.57,17.85,17.85,0,0,1,2,2.36c1.18,1.5,2.77,3.62,4.44,6s3.11,4.62,4.11,6.26A16.67,16.67,0,0,1,88.6,361.53Z" style="fill:#263238"></path><path d="M81.51,327.25c.08.12-4.42,3.15-10,6.76s-10.24,6.45-10.32,6.33,4.42-3.15,10-6.76S81.44,327.13,81.51,327.25Z" style="fill:#263238"></path><path d="M94.18,340.93a85.35,85.35,0,0,1-6.79-6.28A82.55,82.55,0,0,1,81,328a83.36,83.36,0,0,1,6.79,6.28A82.55,82.55,0,0,1,94.18,340.93Z" style="fill:#263238"></path><path d="M97.37,340.66l3.86-.32A19.08,19.08,0,0,0,109,338a30.76,30.76,0,0,1,3.63-1.82c4.77-1.92,10.09-1.57,15.23-1.83a63.09,63.09,0,0,0,24.21-6.19,2.41,2.41,0,0,0,1.06-1c.79-1.45-.68-2.73-2-3.51-6.5-4-13.11-8.06-20.48-10.05s-15.74-1.65-22,2.68c-7.38,5.08-10.07,15.51-11.32,24.39" style="fill:#FF72A8"></path><path d="M153.24,326.67a3.39,3.39,0,0,1-.66-.3l-1.83-1c-1.58-.83-3.86-2.06-6.75-3.45a63.4,63.4,0,0,0-10.45-4A34.61,34.61,0,0,0,120,316.84a23.16,23.16,0,0,0-12.36,5.3,27.49,27.49,0,0,0-6.43,9c-1.35,2.9-2.19,5.36-2.8,7-.28.81-.51,1.45-.68,1.94a4,4,0,0,1-.27.67,3.49,3.49,0,0,1,.17-.7c.15-.5.35-1.15.59-2a65,65,0,0,1,2.66-7.13,27.29,27.29,0,0,1,6.45-9.23,23.35,23.35,0,0,1,12.6-5.46,34.53,34.53,0,0,1,13.74,1.15,60.1,60.1,0,0,1,10.49,4.16c2.87,1.43,5.13,2.71,6.69,3.6l1.78,1A4.07,4.07,0,0,1,153.24,326.67Z" style="fill:#263238"></path><path d="M144,331.65c-.08.12-5.12-3.15-11.27-7.29s-11.06-7.6-11-7.71,5.12,3.14,11.27,7.29S144.05,331.53,144,331.65Z" style="fill:#263238"></path><path d="M139.13,316.16a11.89,11.89,0,0,1-3.94.79,12.25,12.25,0,0,1-4-.05,23.07,23.07,0,0,1,4-.46A25,25,0,0,1,139.13,316.16Z" style="fill:#263238"></path><path d="M116.5,312.11a13.84,13.84,0,0,1-1.65,3.31,13.64,13.64,0,0,1-2.1,3.05,13.67,13.67,0,0,1,1.66-3.31A13.43,13.43,0,0,1,116.5,312.11Z" style="fill:#263238"></path><path d="M121,334.62a13.45,13.45,0,0,1-2.43-1.31c-1.45-.89-3.42-2.18-5.53-3.71s-4-3-5.29-4a15.26,15.26,0,0,1-2.1-1.8,13.56,13.56,0,0,1,2.32,1.51l5.37,3.9c2.1,1.53,4,2.86,5.43,3.82A16.91,16.91,0,0,1,121,334.62Z" style="fill:#263238"></path><path d="M103.05,357.05c-3.68-1-8.07,2.6-8.82,6.33s.64,7.55,2.27,11a56,56,0,0,0,15.22,19.91c6.59,5.25,14.84,8.61,23.27,8.57-1.56-7.23.41-14.78-.46-22.12a28.78,28.78,0,0,0-25.47-25.22c-2.35-.25-5.07-.62-6,1.55" style="fill:#FF72A8"></path><path d="M135,402.84a3.11,3.11,0,0,1-.53-.24,10.4,10.4,0,0,1-1.37-.93,14.29,14.29,0,0,1-3.63-4.86c-.59-1.14-1.25-2.37-1.89-3.74l-2-4.38a42.75,42.75,0,0,0-2.43-4.68,36.6,36.6,0,0,0-3.35-4.55c-2.52-3-5.22-5.52-7.56-8a51.06,51.06,0,0,1-5.77-6.92,25.25,25.25,0,0,1-2.82-5.38,14.6,14.6,0,0,1-.49-1.58,2,2,0,0,1-.12-.56s.26.75.79,2.07a27.83,27.83,0,0,0,2.94,5.25,54.76,54.76,0,0,0,5.8,6.8c2.36,2.42,5.08,5,7.62,8a37.14,37.14,0,0,1,3.39,4.62A41.09,41.09,0,0,1,126,388.5l1.94,4.39c.61,1.36,1.25,2.61,1.82,3.76a14.89,14.89,0,0,0,3.44,4.87C134.29,402.45,135,402.79,135,402.84Z" style="fill:#263238"></path><path d="M116,396.83a10.76,10.76,0,0,1,.34-2.47c.29-1.52.76-3.6,1.4-5.86s1.32-4.29,1.86-5.74a10.45,10.45,0,0,1,1-2.28,13.91,13.91,0,0,1-.66,2.4c-.46,1.47-1.08,3.5-1.72,5.75s-1.16,4.32-1.54,5.81A13.42,13.42,0,0,1,116,396.83Z" style="fill:#263238"></path><path d="M134.29,379.1a14.86,14.86,0,0,1-2.59-.6c-1.59-.41-3.78-1-6.21-1.53s-4.66-1-6.27-1.28a15.27,15.27,0,0,1-2.6-.57,12.38,12.38,0,0,1,2.66.21c1.63.22,3.87.59,6.32,1.14s4.64,1.18,6.2,1.68A12.32,12.32,0,0,1,134.29,379.1Z" style="fill:#263238"></path><path d="M102.3,384.25a16.37,16.37,0,0,1,.4-2.87c.33-1.75.84-4.17,1.53-6.81s1.42-5,2-6.68a15.3,15.3,0,0,1,1-2.7,17.22,17.22,0,0,1-.71,2.8c-.48,1.72-1.16,4.09-1.84,6.71s-1.26,5-1.67,6.76A16.68,16.68,0,0,1,102.3,384.25Z" style="fill:#263238"></path><path d="M125.85,363.64c0,.14-4.61-.23-10.26-.83s-10.22-1.2-10.21-1.34,4.61.23,10.26.83S125.86,363.5,125.85,363.64Z" style="fill:#263238"></path><path d="M122.48,419.35c0,.14-16.14.26-36.06.26s-36.07-.12-36.07-.26,16.15-.26,36.07-.26S122.48,419.21,122.48,419.35Z" style="fill:#455a64"></path><path d="M111.25,440.13c0,.14-10.88.26-24.3.26s-24.3-.12-24.3-.26,10.88-.26,24.3-.26S111.25,440,111.25,440.13Z" style="fill:#455a64"></path><path d="M111.67,443.1c0,.14-10.88.26-24.3.26s-24.3-.12-24.3-.26,10.88-.25,24.3-.25S111.67,443,111.67,443.1Z" style="fill:#455a64"></path><path d="M111.67,437.68c0,.14-11.25.26-25.13.26s-25.14-.12-25.14-.26,11.26-.25,25.14-.25S111.67,437.54,111.67,437.68Z" style="fill:#455a64"></path></g></svg>