<svg xmlns="http://www.w3.org/2000/svg" xmlns:xlink="http://www.w3.org/1999/xlink" viewBox="0 0 500 500"><defs><clipPath id="freepik--clip-path--inject-19"><path d="M143.42,339.53s-6.4,15.92-6.65,23.61,1.33,19.29-4.6,32.3-11.49,32.08-12.42,37.91,4.4,21.79,7.16,27,1.68,4.82-1.25,4.72a12.43,12.43,0,0,1-10.8-6.23c-3.12-5.24-1.92-8.5-4-10.4l-2.14-1.91-1.84,11.31-2.56-.45,2.33-14.59s-.26-3.31,1.25-4.73,3.86-5.74,3.86-5.74,2.52-20.45,1.89-34.41-1.07-22.77.59-28.58,1.72-7.65,1.92-13.51.06-12.83.09-13.93S143.42,339.53,143.42,339.53Z" style="fill:#fff;stroke:#263238;stroke-linecap:round;stroke-linejoin:round"></path></clipPath><clipPath id="freepik--clip-path-2--inject-19"><path d="M93.26,337.12s4.1,8.93.71,22.76-.09,35.57,5,49.31,4.62,26.19,5.26,29.14-.66,8.78-.43,12.83,7,10.87,8.36,13.11,11.65,2.59,14.22,2.68,3-2.47,1.22-3.63-5.61-7.89-5.61-7.89-5.79-13-6.38-17.45-2.65-30.53-1.73-36,4.13-35.8,5.13-43.83,1.75-19.38,1.75-19.38Z" style="fill:#fff;stroke:#263238;stroke-linecap:round;stroke-linejoin:round"></path></clipPath><clipPath id="freepik--clip-path-3--inject-19"><path d="M99.43,171.11s12.18-5.39,18.28-5.39,19.45,10.31,21.56,12.19,9.61,23.2,10.78,29.06-7.5,31.64-7.5,31.64-15.7,3.28-27.42,2.82-16.88-1.88-16.88-1.88-4.68-23.44-7-37.27-4.92-23-2.81-26.48S99.43,171.11,99.43,171.11Z" style="fill:#fff;stroke:#263238;stroke-linecap:round;stroke-linejoin:round"></path></clipPath></defs><g id="freepik--background-simple--inject-19"><path d="M165.52,69.9S91.77,107.48,55,165.39,21.1,297.74,65.81,353.06s130.14,48,201.68,83.05S418,463.93,451.79,389.72s-17.18-101.94-26-187.82S339.66-9.74,165.52,69.9Z" style="fill:#FC3175"></path><path d="M165.52,69.9S91.77,107.48,55,165.39,21.1,297.74,65.81,353.06s130.14,48,201.68,83.05S418,463.93,451.79,389.72s-17.18-101.94-26-187.82S339.66-9.74,165.52,69.9Z" style="fill:#fff;opacity:0.7000000000000001"></path></g><g id="freepik--Floor--inject-19"><ellipse cx="258.8" cy="464.54" rx="198.59" ry="9.25" style="fill:#263238"></ellipse></g><g id="freepik--Plants--inject-19"><path d="M393.26,38.74c1.42,2.38,6.55,5.87,6.55,5.88s1.28-4.08,1.33-4.35c.54-3.11-.23-9.44-3.35-11.09A4.18,4.18,0,0,0,392,31.49C391.07,33.81,392.05,36.72,393.26,38.74Z" style="fill:#263238"></path><path d="M443.54,76.34c0,.06,3.31-2.7,3.5-2.9,2.17-2.29,5-8,3.33-11.09a4.18,4.18,0,0,0-6.1-1.26c-2.06,1.41-2.85,4.38-3,6.74C441.18,70.59,443.54,76.34,443.54,76.34Z" style="fill:#263238"></path><path d="M384.55,54.62c1.92,1.84,7.36,3.75,7.79,3.9A73.17,73.17,0,0,0,389.68,68c-.41,1.87-.76,3.78-1.09,5.69,0-.89,0-1.7,0-1.81-.29-3.14-2.7-9-6.16-9.81a4.19,4.19,0,0,0-5,3.76c-.29,2.48,1.42,5,3.12,6.66s6.33,3.38,7.56,3.82c-.12.74-.25,1.47-.36,2.21-.55,3.53-1.09,7-1.72,10.5-.22,1.21-.48,2.4-.74,3.58,0-.79,0-1.46,0-1.56-.29-3.15-2.7-9-6.15-9.82a4.2,4.2,0,0,0-5,3.76c-.29,2.48,1.42,5,3.12,6.67s5.89,3.21,7.34,3.74c-.3,1.2-.6,2.42-.95,3.57-.25.79-.44,1.56-.74,2.34l-.84,2.29c-.58,1.44-1.17,2.93-1.78,4.32-.41,1-.82,1.89-1.23,2.81.23-1.2.64-3.57.65-3.77.19-3.15-1.3-9.35-4.6-10.63a4.18,4.18,0,0,0-5.47,3c-.67,2.41.64,5.19,2.07,7.06,1.58,2.06,6.46,4.69,7.07,5-.69,1.52-1.37,3-2,4.39-1.92,4-3.7,7.43-5.12,10l1.93,1.38c1.39-2.69,3.17-6.26,5.09-10.52.71-1.54,1.43-3.21,2.15-4.93a48.77,48.77,0,0,0,5.26,1c.33,2.64,2.77,7.2,3.09,7.79-1.42.9-2.8,1.75-4.12,2.54-3.76,2.26-7.06,4.08-9.65,5.46l2.1,1.5c2.42-1.38,5.36-3.1,8.64-5.17,1.45-.91,3-1.9,4.52-2.94.46.5,4.25,4.56,6.64,5.57,2.18.92,5.2,1.48,7.36.23a4.19,4.19,0,0,0,1.48-6.05c-2.07-2.87-8.45-2.74-11.45-1.77-.18.06-2,.9-3.19,1.45.64-.42,1.25-.83,1.9-1.28,1.28-.87,2.54-1.78,3.89-2.76l1.93-1.5c.65-.48,1.28-1.08,1.94-1.62,1.48-1.3,2.92-2.68,4.34-4.1.77,1.12,3.56,5.06,5.58,6.3s4.91,2.24,7.23,1.33a4.17,4.17,0,0,0,2.38-5.75c-1.61-3.14-7.93-4-11.05-3.48-.19,0-2.38.65-3.58,1,.84-.87,1.69-1.72,2.52-2.62,2.39-2.6,4.73-5.31,7.08-8l2.17-2.45c.27.4,3.48,5.16,5.74,6.55,2,1.23,4.92,2.24,7.24,1.33a4.19,4.19,0,0,0,2.38-5.75c-1.61-3.15-7.93-4-11.05-3.48-.23,0-3.39.93-4.18,1.2,1.59-1.8,3.2-3.57,4.85-5.26A74,74,0,0,1,430,84.58c.13.19,3.46,5.17,5.78,6.59,2,1.23,4.91,2.24,7.24,1.33a4.18,4.18,0,0,0,2.38-5.75c-1.62-3.14-7.94-4-11.05-3.48-.21,0-2.61.72-3.75,1.07l-.09-.18a53.86,53.86,0,0,1,8.17-5.06c1.57-.82,3.11-1.5,4.63-2.14.53,1,3,5.49,4.92,7s4.64,2.77,7.05,2.12a4.17,4.17,0,0,0,3-5.45c-1.26-3.31-7.45-4.84-10.6-4.67-.17,0-1.91.29-3.17.52.69-.28,1.4-.58,2.07-.83,2.49-1,4.84-1.67,6.92-2.29,1.19-.34,2.27-.63,3.28-.89,1,.71,5.19,3.49,7.56,3.93s5.39.32,7.23-1.37a4.18,4.18,0,0,0,.15-6.22c-2.64-2.35-8.84-.86-11.56.74-.23.14-3.66,2.72-3.61,2.76l.06,0c-1,.23-2,.49-3.17.79-2.1.57-4.47,1.24-7,2.14a75.88,75.88,0,0,0-8,3.3A54.93,54.93,0,0,0,430,83.51l-.09.07c.61-.83,2.26-3.22,2.36-3.42,1.49-2.78,2.74-9,.28-11.58a4.19,4.19,0,0,0-6.21.4c-1.61,1.91-1.59,5-1.08,7.28.59,2.6,4.07,7.19,4.35,7.56a74.66,74.66,0,0,0-7.48,6.46c-1.37,1.34-2.71,2.74-4,4.15.51-.73,1-1.4,1-1.49,1.49-2.79,2.74-9,.28-11.59a4.19,4.19,0,0,0-6.21.4c-1.62,1.91-1.59,5-1.08,7.28s3.42,6.31,4.2,7.36c-.51.54-1,1.09-1.52,1.64-2.4,2.64-4.79,5.28-7.22,7.81-.85.89-1.73,1.73-2.6,2.58.45-.66.83-1.21.88-1.3,1.49-2.79,2.73-9,.27-11.58a4.18,4.18,0,0,0-6.21.39c-1.61,1.91-1.59,5-1.07,7.28s3.13,5.93,4,7.17c-.91.84-1.83,1.69-2.76,2.46-.65.52-1.23,1.06-1.91,1.54l-2,1.45c-1.28.88-2.6,1.8-3.87,2.62-.88.58-1.73,1.12-2.58,1.67.86-.88,2.51-2.63,2.63-2.79a16.29,16.29,0,0,0,2.82-7.7,4.86,4.86,0,0,0,.49-.78,4.19,4.19,0,0,0-2.1-5.87c-3.31-1.24-8.55,2.38-10.52,4.85-.12.14-1.2,1.87-1.86,3,.29-.71.58-1.39.88-2.12.58-1.44,1.13-2.89,1.72-4.45.25-.76.52-1.53.78-2.31s.47-1.61.72-2.43c.52-1.89,1-3.84,1.36-5.81,1.26.51,5.76,2.26,8.13,2.18S400.2,95,401.64,93a4.18,4.18,0,0,0-1.19-6.11c-3.08-1.74-8.82,1-11.13,3.19-.15.14-1.64,1.86-2.44,2.83.24-1.19.47-2.37.67-3.58.56-3.49,1-7,1.49-10.57.14-1.09.3-2.16.45-3.24.45.18,5.75,2.38,8.41,2.29,2.35-.08,5.33-.84,6.77-2.88a4.2,4.2,0,0,0-1.19-6.12c-3.08-1.73-8.82,1.06-11.13,3.2-.18.16-2.32,2.65-2.83,3.31.34-2.38.7-4.75,1.15-7.06A72.51,72.51,0,0,1,393,59c.21.09,5.73,2.4,8.45,2.31,2.35-.08,5.33-.84,6.77-2.88a4.18,4.18,0,0,0-1.19-6.11c-3.08-1.73-8.82,1.05-11.13,3.19-.15.14-1.79,2-2.54,3l-.18-.1a54.29,54.29,0,0,1,4-8.73c.86-1.54,1.77-3,2.68-4.34,1,.54,5.52,2.94,8,3.13s5.4-.25,7.05-2.12a4.19,4.19,0,0,0-.51-6.21c-2.87-2.06-8.88.08-11.42,2-.14.1-1.43,1.29-2.35,2.18.42-.61.85-1.25,1.26-1.83,1.56-2.17,3.12-4.07,4.52-5.73.8-.94,1.54-1.78,2.24-2.55,1.25,0,6.25,0,8.47-.9s4.68-2.71,5.28-5.13a4.18,4.18,0,0,0-3.31-5.27c-3.5-.5-7.85,4.16-9.23,7-.12.24-1.56,4.29-1.49,4.29h.07c-.69.73-1.42,1.53-2.21,2.41-1.43,1.63-3,3.5-4.65,5.65a75.05,75.05,0,0,0-4.87,7.17,53.89,53.89,0,0,0-4.25,8.72.36.36,0,0,0,0,.11c.06-1,.11-3.93.09-4.16-.29-3.14-2.7-9-6.15-9.81a4.19,4.19,0,0,0-5,3.76C381.14,50.43,382.85,53,384.55,54.62Z" style="fill:#263238"></path><path d="M291.88,90.2c2.6-1,7-5.35,7-5.35s-3.77-2-4-2.11c-2.95-1.11-9.31-1.52-11.51,1.25a4.18,4.18,0,0,0,1.2,6.1C286.62,91.44,289.67,91,291.88,90.2Z" style="fill:#263238"></path><path d="M338.11,47.73c.07,0-2-3.76-2.2-4-1.85-2.56-6.93-6.41-10.29-5.32a4.18,4.18,0,0,0-2.36,5.76c1,2.29,3.78,3.62,6.08,4.16C332,49,338.11,47.73,338.11,47.73Z" style="fill:#263238"></path><path d="M305.87,101.69c2.17-1.55,5.05-6.54,5.28-6.94A74.48,74.48,0,0,0,320,99.13c1.77.75,3.58,1.44,5.4,2.12-.88-.19-1.67-.35-1.78-.36-3.14-.29-9.39,1-10.78,4.25a4.19,4.19,0,0,0,2.78,5.57c2.38.74,5.21-.47,7.13-1.84s4.49-5.6,5.14-6.72l2.1.76c3.37,1.19,6.74,2.37,10,3.62,1.15.45,2.26.92,3.38,1.4-.77-.17-1.43-.3-1.53-.31-3.15-.29-9.39,1-10.78,4.24a4.18,4.18,0,0,0,2.77,5.58c2.39.74,5.21-.47,7.13-1.84s4.24-5.19,5-6.52c1.13.52,2.27,1,3.34,1.59.72.4,1.45.73,2.16,1.17l2.1,1.24c1.31.84,2.66,1.69,3.91,2.54.88.59,1.71,1.16,2.54,1.74-1.14-.45-3.39-1.29-3.59-1.34-3.06-.77-9.43-.45-11.3,2.56a4.18,4.18,0,0,0,1.9,5.92c2.25,1.1,5.22.33,7.33-.73,2.31-1.17,5.8-5.48,6.23-6,1.37,1,2.7,1.9,3.94,2.81,3.61,2.64,6.62,5,8.91,6.88l1.71-1.63c-2.39-1.87-5.57-4.28-9.4-7-1.39-1-2.9-2-4.46-3a44.74,44.74,0,0,0,1.92-5c2.66.16,7.59-1.4,8.23-1.6.62,1.55,1.21,3.07,1.74,4.52,1.52,4.11,2.7,7.69,3.58,10.49l1.86-1.79c-.9-2.63-2.06-5.84-3.49-9.45-.62-1.58-1.31-3.26-2.05-5,.58-.36,5.27-3.33,6.7-5.5,1.3-2,2.41-4.84,1.58-7.19a4.18,4.18,0,0,0-5.67-2.57c-3.2,1.5-4.25,7.79-3.84,10.92,0,.19.5,2.16.83,3.4-.3-.7-.59-1.38-.91-2.1-.62-1.42-1.29-2.82-2-4.33-.36-.72-.74-1.44-1.11-2.17s-.83-1.46-1.24-2.21c-1-1.69-2.09-3.36-3.23-5,1.25-.55,5.64-2.56,7.23-4.32s3.11-4.41,2.64-6.86a4.18,4.18,0,0,0-5.21-3.41c-3.39,1-5.39,7.06-5.46,10.22,0,.2.2,2.47.33,3.71-.69-1-1.37-2-2.1-3-2.12-2.83-4.34-5.63-6.55-8.43-.68-.86-1.35-1.72-2-2.59.44-.19,5.71-2.47,7.49-4.43,1.58-1.75,3.11-4.42,2.65-6.87a4.18,4.18,0,0,0-5.22-3.4c-3.38,1-5.38,7.06-5.45,10.22,0,.23.29,3.5.4,4.33-1.47-1.9-2.92-3.81-4.27-5.74a73.65,73.65,0,0,1-5-8.15c.2-.09,5.72-2.44,7.54-4.46,1.58-1.74,3.11-4.41,2.65-6.86a4.2,4.2,0,0,0-5.22-3.41c-3.39,1-5.38,7.07-5.45,10.22,0,.21.21,2.7.35,3.88l-.2.06a54.5,54.5,0,0,1-3.46-9c-.51-1.69-.9-3.33-1.25-4.94,1.08-.34,5.95-1.92,7.8-3.55s3.58-4,3.38-6.53a4.19,4.19,0,0,0-4.81-4c-3.48.63-6.12,6.43-6.54,9.56,0,.17-.07,1.93-.08,3.21-.14-.73-.31-1.48-.43-2.18-.48-2.64-.75-5.07-1-7.23-.12-1.24-.2-2.35-.27-3.39.88-.88,4.39-4.45,5.25-6.71s1.32-5.24,0-7.36a4.18,4.18,0,0,0-6.09-1.29c-2.8,2.16-2.48,8.53-1.41,11.5.09.25,2,4.1,2.05,4.06l.05-.06c0,1,.1,2.09.19,3.26.18,2.17.4,4.63.82,7.28a72.34,72.34,0,0,0,1.76,8.49,54.27,54.27,0,0,0,3.29,9.12l.06.1c-.71-.76-2.75-2.81-2.92-3-2.46-2-8.38-4.36-11.33-2.41a4.18,4.18,0,0,0-.76,6.18c1.58,1.93,4.6,2.48,7,2.39,2.66-.09,7.82-2.66,8.23-2.87a72.74,72.74,0,0,0,5,8.54c1.06,1.6,2.19,3.17,3.33,4.74-.63-.64-1.19-1.2-1.28-1.27-2.46-2-8.38-4.36-11.33-2.41a4.18,4.18,0,0,0-.76,6.18c1.58,1.93,4.6,2.48,7,2.4s6.83-2.19,8-2.77c.45.6.88,1.2,1.33,1.79,2.15,2.86,4.31,5.7,6.34,8.54.72,1,1.39,2,2.06,3l-1.11-1.11c-2.46-2-8.38-4.35-11.33-2.41a4.18,4.18,0,0,0-.76,6.18c1.57,1.94,4.6,2.49,7,2.4s6.4-2,7.79-2.66c.66,1.06,1.32,2.12,1.91,3.17.38.73.8,1.41,1.15,2.16s.72,1.47,1.07,2.2c.63,1.42,1.28,2.88,1.86,4.28.41,1,.78,1.91,1.16,2.85-.7-1-2.12-3-2.25-3.1a16.32,16.32,0,0,0-7.05-4.2,4.43,4.43,0,0,0-.68-.62,4.18,4.18,0,0,0-6.15,1c-1.83,3,.75,8.85,2.82,11.23.12.14,1.62,1.52,2.57,2.38-.64-.42-1.25-.83-1.91-1.25-1.31-.84-2.64-1.65-4.06-2.51l-2.13-1.2c-.7-.42-1.5-.77-2.25-1.15-1.77-.87-3.6-1.66-5.46-2.42.73-1.14,3.28-5.24,3.64-7.58s.16-5.4-1.58-7.19a4.19,4.19,0,0,0-6.23,0c-2.27,2.71-.59,8.86,1.09,11.53.1.17,1.53,2,2.33,2.91-1.13-.44-2.25-.89-3.4-1.31-3.32-1.19-6.72-2.3-10.11-3.42l-3.1-1c.26-.4,3.4-5.21,3.8-7.84.35-2.33.16-5.4-1.58-7.18a4.19,4.19,0,0,0-6.23,0c-2.27,2.71-.59,8.87,1.09,11.54.12.2,2.17,2.76,2.73,3.39-2.28-.78-4.54-1.56-6.73-2.43a75.61,75.61,0,0,1-8.66-4c.12-.19,3.42-5.2,3.83-7.88.36-2.33.16-5.4-1.58-7.19a4.19,4.19,0,0,0-6.23,0c-2.27,2.71-.59,8.86,1.09,11.53.11.18,1.67,2.13,2.43,3l-.13.16a54,54,0,0,1-7.83-5.57c-1.36-1.13-2.6-2.29-3.77-3.44.71-.87,3.91-4.88,4.54-7.25s.76-5.35-.78-7.32a4.18,4.18,0,0,0-6.19-.65c-2.56,2.45-1.56,8.75-.19,11.59.08.15,1,1.64,1.71,2.71-.52-.53-1.07-1.06-1.56-1.58-1.85-1.93-3.43-3.81-4.8-5.49-.78-1-1.46-1.85-2.1-2.68.26-1.22,1.21-6.13.69-8.49s-1.8-5.1-4.07-6.14A4.19,4.19,0,0,0,281,61.83c-1.14,3.35,2.64,8.48,5.17,10.37.22.16,3.93,2.32,3.95,2.26s0-.06,0-.08c.59.82,1.23,1.69,2,2.62,1.34,1.71,2.88,3.63,4.69,5.61a74.12,74.12,0,0,0,6.15,6.12,54.8,54.8,0,0,0,7.78,5.79l.11,0c-1-.24-3.85-.84-4.07-.86-3.14-.29-9.39,1-10.78,4.24a4.19,4.19,0,0,0,2.78,5.58C301.13,104.27,304,103.06,305.87,101.69Z" style="fill:#263238"></path><path d="M143.84,389.35c1.86.64,5,3.71,5,3.71s-2.66,1.49-2.84,1.56c-2.09.84-6.62,1.23-8.23-.71a3,3,0,0,1,.77-4.37C140.07,388.54,142.25,388.8,143.84,389.35Z" style="fill:#263238"></path><path d="M177.43,418.94s-1.4,2.71-1.51,2.87c-1.28,1.85-4.85,4.67-7.26,3.94a3,3,0,0,1-1.77-4.07c.69-1.64,2.64-2.63,4.27-3.05C173.07,418.14,177.43,418.94,177.43,418.94Z" style="fill:#263238"></path><path d="M153.64,381c1.57,1.07,3.7,4.59,3.87,4.87a52.65,52.65,0,0,1,6.25-3.26c1.25-.55,2.53-1.08,3.81-1.58-.62.14-1.18.27-1.26.27-2.23.26-6.7-.56-7.75-2.86a3,3,0,0,1,1.9-4c1.69-.57,3.72.25,5.11,1.2s3.29,3.93,3.77,4.72l1.49-.58c2.38-.9,4.76-1.79,7.07-2.73.82-.33,1.61-.69,2.4-1l-1.09.24c-2.24.25-6.71-.57-7.75-2.87a3,3,0,0,1,1.9-4c1.68-.57,3.71.26,5.1,1.2s3.1,3.64,3.69,4.58c.79-.39,1.6-.78,2.35-1.19.51-.29,1-.54,1.52-.86l1.48-.92c.92-.61,1.88-1.25,2.76-1.87L192,369c-.81.34-2.4,1-2.54,1-2.17.59-6.72.45-8.09-1.66a3,3,0,0,1,1.27-4.26c1.58-.81,3.71-.31,5.23.42s4.21,3.82,4.53,4.2c1-.7,1.9-1.4,2.77-2.06,2.53-1.94,4.64-3.68,6.25-5l1.24,1.14c-1.68,1.36-3.91,3.13-6.6,5.09-1,.72-2,1.47-3.13,2.22a32.71,32.71,0,0,1,1.44,3.53,21.78,21.78,0,0,1,5.89,1c.42-1.12.82-2.21,1.17-3.25,1-2.95,1.82-5.52,2.4-7.53l1.35,1.24c-.6,1.89-1.38,4.2-2.34,6.8-.42,1.13-.89,2.34-1.39,3.58.42.24,3.81,2.29,4.86,3.82s1.79,3.41,1.23,5.1a3,3,0,0,1-4,1.92c-2.3-1-3.15-5.5-2.91-7.74,0-.13.33-1.54.55-2.43-.21.5-.4,1-.62,1.51-.42,1-.88,2-1.36,3.12-.25.51-.5,1-.76,1.56s-.57,1.06-.85,1.59c-.69,1.23-1.44,2.43-2.23,3.63.9.38,4.06,1.75,5.22,3s2.28,3.1,2,4.86a3,3,0,0,1-3.66,2.5c-2.43-.66-3.95-4.95-4-7.2,0-.14.1-1.76.18-2.65-.48.72-1,1.43-1.46,2.14-1.47,2.05-3,4.08-4.55,6.11-.47.62-.93,1.25-1.39,1.87.32.13,4.11,1.68,5.41,3.06,1.15,1.22,2.28,3.1,2,4.85a3,3,0,0,1-3.67,2.5c-2.43-.66-3.94-4.95-4-7.2,0-.17.15-2.5.22-3.09-1,1.37-2,2.75-3,4.15a54.48,54.48,0,0,0-3.44,5.88c.15.06,4.12,1.66,5.45,3.07,1.15,1.22,2.28,3.1,2,4.86a3,3,0,0,1-3.67,2.5c-2.43-.67-3.94-5-4-7.2,0-.15.11-1.93.19-2.77l-.14,0a38.23,38.23,0,0,0-2.33,6.44c-.34,1.21-.6,2.39-.82,3.55.77.22,4.27,1.27,5.61,2.41s2.61,2.83,2.51,4.6a3,3,0,0,1-3.37,2.89c-2.49-.39-4.46-4.49-4.81-6.71,0-.12-.07-1.37-.1-2.29-.09.53-.2,1.06-.27,1.56-.3,1.89-.46,3.63-.59,5.17-.07.88-.11,1.68-.14,2.42.64.62,3.19,3.11,3.84,4.71s1,3.71.11,5.24a3,3,0,0,1-4.32,1c-2-1.49-1.9-6-1.18-8.17.07-.19,1.37-3,1.4-2.93l0,0c0-.72,0-1.49.09-2.33.09-1.55.21-3.3.47-5.19a54.63,54.63,0,0,1,1.13-6.08,39.27,39.27,0,0,1,2.21-6.56.25.25,0,0,0,0-.07c-.49.55-1.91,2.05-2,2.15-1.73,1.45-5.91,3.23-8.05,1.89a3,3,0,0,1-.63-4.4c1.1-1.4,3.24-1.83,4.93-1.81,1.89,0,5.61,1.79,5.9,1.93A53.62,53.62,0,0,1,184,402c.74-1.16,1.52-2.3,2.31-3.43-.44.46-.84.87-.9.92-1.72,1.45-5.91,3.23-8,1.89a3,3,0,0,1-.63-4.4c1.09-1.4,3.24-1.83,4.92-1.81s4.91,1.46,5.75,1.85l.92-1.29c1.49-2.07,3-4.13,4.4-6.19.49-.72,1-1.46,1.42-2.19-.39.41-.72.76-.78.8-1.73,1.45-5.91,3.23-8,1.89a3,3,0,0,1-.63-4.39c1.09-1.41,3.24-1.84,4.92-1.82s4.59,1.32,5.59,1.78c.46-.76.91-1.52,1.32-2.28.26-.53.55-1,.79-1.56s.49-1.06.73-1.58c.42-1,.87-2.08,1.26-3.08.28-.7.53-1.37.78-2.05-.48.73-1.46,2.13-1.56,2.24a11.47,11.47,0,0,1-4.95,3.1,4.06,4.06,0,0,1-.48.45,3,3,0,0,1-4.4-.6c-1.35-2.13.41-6.32,1.84-8.06.09-.1,1.13-1.1,1.8-1.73-.45.31-.88.61-1.35.92-.91.62-1.85,1.21-2.85,1.85l-1.5.89c-.49.31-1.06.57-1.59.85-1.24.65-2.54,1.24-3.86,1.8.54.81,2.42,3.7,2.71,5.36s.2,3.85-1,5.15a3,3,0,0,1-4.44.06c-1.65-1.9-.55-6.31.61-8.24.07-.12,1.06-1.41,1.61-2.11-.79.34-1.58.67-2.4,1-2.35.9-4.76,1.74-7.16,2.59-.73.25-1.46.52-2.19.79.19.28,2.5,3.66,2.82,5.53.29,1.65.2,3.84-1,5.14a3,3,0,0,1-4.43.07c-1.66-1.9-.56-6.31.6-8.24.08-.15,1.51-2,1.89-2.46-1.61.59-3.21,1.18-4.76,1.84a50.26,50.26,0,0,0-6.11,3c.09.13,2.51,3.65,2.85,5.56.28,1.65.19,3.84-1,5.14a3,3,0,0,1-4.44.07c-1.66-1.9-.56-6.31.6-8.24.08-.13,1.16-1.54,1.69-2.2l-.1-.11a38.47,38.47,0,0,0-5.5,4.08c-.95.83-1.81,1.67-2.63,2.51.51.61,2.85,3.42,3.34,5.1s.62,3.81-.44,5.23a3,3,0,0,1-4.41.55c-1.86-1.7-1.25-6.2-.31-8.25.05-.11.7-1.18,1.18-2-.36.38-.75.77-1.09,1.15-1.29,1.4-2.38,2.77-3.34,4-.54.69-1,1.34-1.45,1.94.2.86.95,4.35.61,6s-1.2,3.66-2.81,4.43a3,3,0,0,1-4.16-1.53c-.86-2.37,1.76-6.09,3.53-7.47.16-.12,2.77-1.71,2.78-1.67v0c.41-.59.86-1.22,1.36-1.89.93-1.24,2-2.64,3.26-4.07a53.55,53.55,0,0,1,4.3-4.45A39,39,0,0,1,157.2,386l.07,0c-.71.19-2.73.66-2.88.68-2.24.25-6.71-.57-7.75-2.87a3,3,0,0,1,1.89-4C150.22,379.18,152.25,380,153.64,381Z" style="fill:#263238"></path><path d="M204.42,403.65c1.84-.73,6.26-.47,6.26-.47s-1.06,2.86-1.15,3c-1,2-4.23,5.23-6.72,4.8a3,3,0,0,1-2.25-3.82C201,405.48,202.86,404.26,204.42,403.65Z" style="fill:#263238"></path><path d="M249.18,404.3s.7,3,.72,3.16c.23,2.24-.64,6.7-3,7.71a3,3,0,0,1-4-1.94c-.55-1.69.3-3.72,1.26-5.09C245.35,406.52,249.18,404.3,249.18,404.3Z" style="fill:#263238"></path><path d="M206.41,390.89c1.89-.2,5.79,1.09,6.1,1.19a52.94,52.94,0,0,1,2.64-6.54c.58-1.23,1.22-2.46,1.86-3.68-.37.51-.72,1-.77,1-1.54,1.64-5.47,3.93-7.75,2.86a3,3,0,0,1-1.17-4.29c.91-1.52,3-2.22,4.66-2.4s5.05.84,5.94,1.13l.75-1.4c1.23-2.24,2.46-4.46,3.6-6.68.41-.78.77-1.56,1.14-2.35-.33.46-.62.84-.67.89-1.53,1.65-5.47,3.93-7.75,2.86a3,3,0,0,1-1.17-4.28c.92-1.53,3-2.22,4.67-2.4s4.72.74,5.77,1.08c.35-.82.71-1.63,1-2.44.2-.55.43-1.07.59-1.64s.36-1.11.53-1.66c.3-1.07.61-2.16.88-3.21.19-.73.35-1.43.52-2.13-.39.78-1.19,2.3-1.27,2.42-1.27,1.86-4.81,4.71-7.23,4a3,3,0,0,1-1.8-4.06c.67-1.64,2.62-2.65,4.25-3.08,1.79-.48,5.68.16,6.17.24.28-1.16.54-2.29.76-3.36.67-3.12,1.14-5.81,1.48-7.9l1.68.07c-.38,2.12-.93,4.91-1.7,8.15-.28,1.18-.59,2.44-.93,3.73a30.84,30.84,0,0,1,3.38,1.74,21.58,21.58,0,0,1,5.14-3c-.41-1.13-.82-2.21-1.22-3.23-1.14-2.91-2.21-5.38-3.08-7.29l1.84.07c.77,1.83,1.68,4.08,2.63,6.69.43,1.13.85,2.36,1.28,3.62.48-.08,4.38-.73,6.17-.26,1.63.43,3.58,1.43,4.26,3.08a3,3,0,0,1-1.8,4.06c-2.42.72-6-2.13-7.23-4-.08-.11-.76-1.39-1.17-2.2.17.51.34,1,.51,1.55.34,1.05.66,2.11,1,3.25.14.56.29,1.12.43,1.68s.26,1.18.39,1.77c.27,1.37.49,2.78.67,4.2.92-.3,4.21-1.31,5.89-1.13s3.75.87,4.67,2.4a3,3,0,0,1-1.16,4.28c-2.28,1.08-6.22-1.2-7.75-2.84-.1-.11-1.07-1.41-1.59-2.14.1.86.21,1.71.29,2.58.22,2.51.36,5.06.52,7.6,0,.78.1,1.55.15,2.33.33-.11,4.22-1.4,6.1-1.2,1.67.18,3.75.87,4.67,2.39a3,3,0,0,1-1.16,4.29c-2.28,1.07-6.22-1.2-7.76-2.85-.11-.12-1.51-2-1.84-2.49.12,1.71.25,3.41.45,5.08a54.39,54.39,0,0,0,1.21,6.7c.16-.05,4.21-1.41,6.13-1.2,1.67.17,3.75.87,4.67,2.39a3,3,0,0,1-1.16,4.29c-2.28,1.07-6.22-1.2-7.75-2.85-.1-.11-1.17-1.54-1.66-2.23l-.13.06a37.79,37.79,0,0,0,2.42,6.42c.53,1.14,1.1,2.2,1.68,3.22.73-.33,4.08-1.81,5.83-1.81s3.83.45,4.9,1.87a3,3,0,0,1-.68,4.38c-2.15,1.32-6.31-.51-8-2-.09-.08-1-1-1.56-1.67.27.45.54.93.81,1.36,1,1.63,2,3.05,2.91,4.31.52.71,1,1.34,1.47,1.93.88,0,4.44.28,6,1.07s3.18,2.17,3.49,3.92a3,3,0,0,1-2.63,3.58c-2.51.18-5.37-3.36-6.21-5.45-.07-.18-.88-3.13-.83-3.13h.05c-.46-.55-.94-1.15-1.45-1.82-.94-1.24-2-2.65-3-4.26a52.85,52.85,0,0,1-3.09-5.35,38.92,38.92,0,0,1-2.58-6.42s0-.06,0-.08c0,.74-.12,2.8-.15,3-.37,2.22-2.39,6.29-4.88,6.66a3,3,0,0,1-3.34-2.93c-.08-1.78,1.27-3.51,2.56-4.58,1.46-1.21,5.43-2.29,5.75-2.38a52.35,52.35,0,0,1-1.41-6.9c-.19-1.36-.34-2.73-.48-4.11,0,.64-.06,1.21-.08,1.29-.37,2.22-2.39,6.29-4.88,6.66A3,3,0,0,1,234.4,388c-.08-1.77,1.27-3.5,2.56-4.58s4.68-2.07,5.57-2.32c0-.53-.09-1.06-.14-1.59-.21-2.54-.41-5.07-.68-7.55-.09-.88-.22-1.74-.34-2.59,0,.56-.06,1-.07,1.11-.37,2.22-2.39,6.3-4.89,6.66a3,3,0,0,1-3.33-2.93c-.08-1.77,1.27-3.5,2.56-4.57s4.35-2,5.41-2.29c-.15-.87-.3-1.75-.49-2.59-.14-.57-.24-1.13-.41-1.7l-.48-1.67c-.34-1.06-.68-2.15-1-3.17-.24-.71-.49-1.38-.73-2.06.1.87.27,2.58.27,2.72a11.54,11.54,0,0,1-1.76,5.57,3.52,3.52,0,0,1-.06.66,3,3,0,0,1-3.74,2.4c-2.41-.74-3.8-5.07-3.83-7.32,0-.13.13-1.57.24-2.48-.15.52-.28,1-.43,1.57-.29,1.07-.62,2.13-1,3.27-.18.54-.37,1.09-.56,1.64s-.43,1.12-.65,1.68c-.53,1.3-1.13,2.59-1.76,3.88.93.26,4.24,1.23,5.54,2.31s2.65,2.79,2.57,4.57a3,3,0,0,1-3.33,2.94c-2.5-.37-4.52-4.43-4.9-6.65,0-.14-.11-1.77-.14-2.66-.39.77-.77,1.54-1.19,2.31-1.2,2.21-2.48,4.42-3.76,6.62l-1.15,2c.33.09,4.29,1.16,5.74,2.36s2.65,2.8,2.58,4.58a3,3,0,0,1-3.34,2.93c-2.49-.36-4.52-4.43-4.89-6.65,0-.17-.16-2.5-.16-3.1-.84,1.49-1.67,3-2.43,4.49a55.39,55.39,0,0,0-2.69,6.26c.16,0,4.29,1.14,5.78,2.37,1.3,1.08,2.65,2.8,2.57,4.58a3,3,0,0,1-3.33,2.93c-2.49-.36-4.52-4.43-4.9-6.65,0-.14-.12-1.92-.14-2.77l-.15,0a38.51,38.51,0,0,0-1.52,6.68c-.19,1.25-.3,2.45-.37,3.62.79.13,4.39.74,5.86,1.7s2.94,2.49,3.06,4.27a3,3,0,0,1-3,3.28c-2.52-.09-5-3.91-5.6-6.07,0-.12-.24-1.36-.38-2.26,0,.53-.07,1.08-.08,1.58-.07,1.91,0,3.66.05,5.21,0,.88.1,1.67.16,2.41.71.53,3.55,2.69,4.39,4.2s1.47,3.56.75,5.19a3,3,0,0,1-4.16,1.54c-2.2-1.24-2.62-5.77-2.17-8,0-.19,1-3.1,1-3.08l0,0c-.07-.72-.14-1.49-.2-2.32-.1-1.55-.2-3.31-.17-5.22a52.31,52.31,0,0,1,.37-6.17,40.06,40.06,0,0,1,1.39-6.78l0-.08c-.42.61-1.65,2.27-1.76,2.39-1.53,1.65-5.46,3.93-7.74,2.86a3,3,0,0,1-1.17-4.28C202.66,391.77,204.74,391.08,206.41,390.89Z" style="fill:#263238"></path></g><g id="freepik--Window--inject-19"><rect x="148.02" y="97.23" width="293.01" height="285.23" rx="6.87" style="fill:#fff;stroke:#263238;stroke-linecap:round;stroke-linejoin:round"></rect><path d="M434.35,97.23H154.72a6.7,6.7,0,0,0-6.7,6.69v11.81H441V103.92A6.7,6.7,0,0,0,434.35,97.23Z" style="fill:#FC3175;stroke:#263238;stroke-linecap:round;stroke-linejoin:round"></path><path d="M162.08,106.16a2.76,2.76,0,1,1-2.76-2.75A2.77,2.77,0,0,1,162.08,106.16Z" style="fill:#fff;stroke:#263238;stroke-linecap:round;stroke-linejoin:round"></path><path d="M173.65,106.16a2.76,2.76,0,1,1-2.76-2.75A2.76,2.76,0,0,1,173.65,106.16Z" style="fill:#fff;stroke:#263238;stroke-linecap:round;stroke-linejoin:round"></path><path d="M185.22,106.16a2.76,2.76,0,1,1-2.75-2.75A2.76,2.76,0,0,1,185.22,106.16Z" style="fill:#fff;stroke:#263238;stroke-linecap:round;stroke-linejoin:round"></path><path d="M299,149.41V130.68h-3.84v-2.11h10v2.11h-3.84v18.73Z" style="fill:#263238"></path><path d="M306.6,133.6c0-3.19,1.58-5.24,4.76-5.24s4.8,2,4.8,5.24v10.77c0,3.16-1.58,5.24-4.8,5.24s-4.76-2.08-4.76-5.24Zm2.29,10.89c0,1.91.81,3,2.47,3s2.47-1.1,2.47-3v-11c0-1.88-.77-3-2.47-3s-2.47,1.13-2.47,3Z" style="fill:#263238"></path><path d="M323.24,128.57c3.24,0,4.73,2,4.73,5.18v10.51c0,3.18-1.49,5.15-4.73,5.15h-4.88V128.57Zm0,18.72c1.67,0,2.47-1,2.47-2.94V133.63c0-1.91-.8-2.95-2.5-2.95h-2.5v16.61Z" style="fill:#263238"></path><path d="M332.46,145.21l-.8,4.2h-2.14l4-20.84h3.36l4,20.84h-2.32l-.81-4.2Zm.3-2h4.65l-2.36-12Z" style="fill:#263238"></path><path d="M344.91,141.93l-4.41-13.36h2.41l3.25,10.24,3.27-10.24h2.2l-4.43,13.36v7.48h-2.29Z" style="fill:#263238"></path><path d="M166.3,129.14v.3h-1.17v-.37c0-1-.38-1.58-1.27-1.58s-1.26.59-1.26,1.57c0,2.48,3.71,2.72,3.71,5.83,0,1.67-.8,2.76-2.49,2.76s-2.49-1.09-2.49-2.76v-.63h1.16V135c0,1,.41,1.58,1.29,1.58s1.3-.58,1.3-1.58c0-2.46-3.7-2.7-3.7-5.81,0-1.71.79-2.77,2.45-2.77S166.3,127.46,166.3,129.14Z" style="fill:#263238"></path><path d="M172.27,129.15v1H171.1v-1.06c0-1-.39-1.6-1.29-1.6s-1.3.6-1.3,1.6v5.85c0,1,.41,1.59,1.3,1.59s1.29-.6,1.29-1.59V133.5h1.17v1.37c0,1.68-.79,2.78-2.49,2.78s-2.49-1.1-2.49-2.78v-5.72c0-1.67.79-2.78,2.49-2.78S172.27,127.48,172.27,129.15Z" style="fill:#263238"></path><path d="M174.63,132.57v5H173.4V126.48h1.23v5h2.72v-5h1.23v11.06h-1.23v-5Z" style="fill:#263238"></path><path d="M183.78,131.38v1.11h-2.7v3.93h3.32v1.12h-4.55V126.48h4.55v1.12h-3.32v3.78Z" style="fill:#263238"></path><path d="M188.13,126.48c1.72,0,2.51,1,2.51,2.75v5.58c0,1.69-.79,2.73-2.51,2.73h-2.59V126.48Zm0,9.94c.89,0,1.31-.55,1.31-1.56v-5.69c0-1-.42-1.57-1.32-1.57h-1.33v8.82Z" style="fill:#263238"></path><path d="M193,134.94c0,1,.39,1.59,1.29,1.59s1.28-.6,1.28-1.59v-8.46h1.16v8.39c0,1.68-.78,2.8-2.48,2.8s-2.47-1.12-2.47-2.8v-8.39H193Z" style="fill:#263238"></path><path d="M197.91,137.54V126.48h1.24v9.94h3.16v1.12Z" style="fill:#263238"></path><path d="M207.18,131.38v1.11h-2.71v3.93h3.32v1.12h-4.55V126.48h4.55v1.12h-3.32v3.78Z" style="fill:#263238"></path><path d="M237.6,162.34v.33a2.09,2.09,0,0,1-1.2,2.17,2.13,2.13,0,0,1,1.2,2.22v.78a2.48,2.48,0,1,1-5,0v-.78a2.11,2.11,0,0,1,1.22-2.22,2.06,2.06,0,0,1-1.22-2.17v-.33a2.48,2.48,0,1,1,5,0Zm-3.8,0v.51c0,1,.49,1.48,1.32,1.48s1.32-.46,1.32-1.48v-.51c0-1.08-.49-1.57-1.32-1.57S233.8,161.29,233.8,162.37Zm0,4.55v.89c0,1.08.48,1.59,1.32,1.59s1.31-.51,1.32-1.59v-.89c0-1-.45-1.51-1.32-1.51S233.8,165.9,233.8,166.92Z" style="fill:#263238"></path><path d="M239.79,163.18v1.46h-1.13v-1.46Zm0,5.73v1.45h-1.13v-1.45Z" style="fill:#263238"></path><path d="M240.9,162.39c0-1.61.8-2.65,2.41-2.65s2.41,1,2.41,2.65v5.42c0,1.61-.79,2.66-2.41,2.66s-2.41-1.05-2.41-2.66Zm1.16,5.49c0,1,.4,1.52,1.25,1.52s1.24-.57,1.24-1.52v-5.55c0-1-.39-1.53-1.24-1.53s-1.25.57-1.25,1.53Z" style="fill:#263238"></path><path d="M246.74,162.39c0-1.61.8-2.65,2.41-2.65s2.41,1,2.41,2.65v5.42c0,1.61-.79,2.66-2.41,2.66s-2.41-1.05-2.41-2.66Zm1.16,5.49c0,1,.4,1.52,1.25,1.52s1.24-.57,1.24-1.52v-5.55c0-1-.39-1.53-1.24-1.53s-1.25.57-1.25,1.53Z" style="fill:#263238"></path><path d="M263.81,161.76a3.14,3.14,0,0,1-1.46.45v-1a1.8,1.8,0,0,0,1.8-1.4H265v10.51h-1.16Z" style="fill:#263238"></path><path d="M266.65,162.39c0-1.61.79-2.65,2.4-2.65s2.42,1,2.42,2.65v5.42c0,1.61-.8,2.66-2.42,2.66s-2.4-1.05-2.4-2.66Zm1.15,5.49c0,1,.41,1.52,1.25,1.52s1.25-.57,1.25-1.52v-5.55c0-1-.39-1.53-1.25-1.53s-1.25.57-1.25,1.53Z" style="fill:#263238"></path><path d="M273.7,163.18v1.46h-1.12v-1.46Zm0,5.73v1.45h-1.12v-1.45Z" style="fill:#263238"></path><path d="M274.82,162.39c0-1.61.79-2.65,2.4-2.65s2.42,1,2.42,2.65v5.42c0,1.61-.8,2.66-2.42,2.66s-2.4-1.05-2.4-2.66Zm1.15,5.49c0,1,.41,1.52,1.25,1.52s1.25-.57,1.25-1.52v-5.55c0-1-.4-1.53-1.25-1.53s-1.25.57-1.25,1.53Z" style="fill:#263238"></path><path d="M280.66,162.39c0-1.61.79-2.65,2.4-2.65s2.42,1,2.42,2.65v5.42c0,1.61-.8,2.66-2.42,2.66s-2.4-1.05-2.4-2.66Zm1.15,5.49c0,1,.41,1.52,1.25,1.52s1.25-.57,1.25-1.52v-5.55c0-1-.39-1.53-1.25-1.53s-1.25.57-1.25,1.53Z" style="fill:#263238"></path><path d="M298.47,161.76a3.14,3.14,0,0,1-1.46.45v-1a1.8,1.8,0,0,0,1.8-1.4h.82v10.51h-1.16Z" style="fill:#263238"></path><path d="M306.13,162.4c0,3.17-3.56,4.31-3.58,6.73v.17H306v1.06H301.4v-.9c0-3.39,3.56-4.05,3.56-7,0-1.08-.36-1.65-1.24-1.65s-1.23.61-1.23,1.54v.93H301.4v-.85c0-1.61.73-2.68,2.36-2.68S306.13,160.8,306.13,162.4Z" style="fill:#263238"></path><path d="M308.34,163.18v1.46h-1.13v-1.46Zm0,5.73v1.45h-1.13v-1.45Z" style="fill:#263238"></path><path d="M309.45,162.39c0-1.61.79-2.65,2.4-2.65s2.42,1,2.42,2.65v5.42c0,1.61-.8,2.66-2.42,2.66s-2.4-1.05-2.4-2.66Zm1.15,5.49c0,1,.41,1.52,1.25,1.52s1.25-.57,1.25-1.52v-5.55c0-1-.4-1.53-1.25-1.53s-1.25.57-1.25,1.53Z" style="fill:#263238"></path><path d="M315.29,162.39c0-1.61.79-2.65,2.4-2.65s2.42,1,2.42,2.65v5.42c0,1.61-.8,2.66-2.42,2.66s-2.4-1.05-2.4-2.66Zm1.15,5.49c0,1,.41,1.52,1.25,1.52s1.25-.57,1.25-1.52v-5.55c0-1-.39-1.53-1.25-1.53s-1.25.57-1.25,1.53Z" style="fill:#263238"></path><path d="M337,162.4c0,3.17-3.56,4.31-3.58,6.73v.17h3.46v1.06h-4.61v-.9c0-3.39,3.55-4.05,3.55-7,0-1.08-.36-1.65-1.23-1.65s-1.23.61-1.23,1.54v.93h-1.09v-.85c0-1.61.73-2.68,2.35-2.68S337,160.8,337,162.4Z" style="fill:#263238"></path><path d="M339.2,163.18v1.46h-1.12v-1.46Zm0,5.73v1.45h-1.12v-1.45Z" style="fill:#263238"></path><path d="M340.31,162.39c0-1.61.8-2.65,2.41-2.65s2.41,1,2.41,2.65v5.42c0,1.61-.79,2.66-2.41,2.66s-2.41-1.05-2.41-2.66Zm1.16,5.49c0,1,.41,1.52,1.25,1.52s1.24-.57,1.24-1.52v-5.55c0-1-.39-1.53-1.24-1.53s-1.25.57-1.25,1.53Z" style="fill:#263238"></path><path d="M346.15,162.39c0-1.61.8-2.65,2.41-2.65s2.42,1,2.42,2.65v5.42c0,1.61-.8,2.66-2.42,2.66s-2.41-1.05-2.41-2.66Zm1.16,5.49c0,1,.41,1.52,1.25,1.52s1.24-.57,1.24-1.52v-5.55c0-1-.39-1.53-1.24-1.53s-1.25.57-1.25,1.53Z" style="fill:#263238"></path><path d="M369.91,168.24v2.12h-1.15v-2.12h-3.39v-1.06l3.26-7.33h1.28v7.33h.84v1.06Zm-3.46-1.06h2.31V162Z" style="fill:#263238"></path><path d="M372.77,163.18v1.46h-1.12v-1.46Zm0,5.73v1.45h-1.12v-1.45Z" style="fill:#263238"></path><path d="M373.88,162.39c0-1.61.8-2.65,2.41-2.65s2.41,1,2.41,2.65v5.42c0,1.61-.79,2.66-2.41,2.66s-2.41-1.05-2.41-2.66Zm1.16,5.49c0,1,.41,1.52,1.25,1.52s1.24-.57,1.24-1.52v-5.55c0-1-.39-1.53-1.24-1.53s-1.25.57-1.25,1.53Z" style="fill:#263238"></path><path d="M379.73,162.39c0-1.61.79-2.65,2.4-2.65s2.42,1,2.42,2.65v5.42c0,1.61-.8,2.66-2.42,2.66s-2.4-1.05-2.4-2.66Zm1.15,5.49c0,1,.41,1.52,1.25,1.52s1.25-.57,1.25-1.52v-5.55c0-1-.4-1.53-1.25-1.53s-1.25.57-1.25,1.53Z" style="fill:#263238"></path><path d="M405.66,162.37v.2h-1.1v-.27c0-1-.39-1.5-1.24-1.5s-1.28.57-1.28,1.69v2.36a1.69,1.69,0,0,1,1.7-1.13c1.35,0,1.95,1,1.95,2.5v1.59c0,1.61-.8,2.66-2.41,2.66s-2.41-1.05-2.41-2.66v-5.36c0-1.67.75-2.71,2.41-2.71S405.66,160.77,405.66,162.37ZM402,166.31v1.57c0,1,.39,1.52,1.24,1.52s1.25-.57,1.25-1.52v-1.57c0-.95-.4-1.52-1.25-1.52S402,165.36,402,166.31Z" style="fill:#263238"></path><path d="M407.91,163.18v1.46h-1.13v-1.46Zm0,5.73v1.45h-1.13v-1.45Z" style="fill:#263238"></path><path d="M409,162.39c0-1.61.8-2.65,2.4-2.65s2.42,1,2.42,2.65v5.42c0,1.61-.79,2.66-2.42,2.66s-2.4-1.05-2.4-2.66Zm1.16,5.49c0,1,.4,1.52,1.24,1.52s1.25-.57,1.25-1.52v-5.55c0-1-.39-1.53-1.25-1.53s-1.24.57-1.24,1.53Z" style="fill:#263238"></path><path d="M414.86,162.39c0-1.61.8-2.65,2.41-2.65s2.41,1,2.41,2.65v5.42c0,1.61-.79,2.66-2.41,2.66s-2.41-1.05-2.41-2.66Zm1.16,5.49c0,1,.4,1.52,1.25,1.52s1.24-.57,1.24-1.52v-5.55c0-1-.39-1.53-1.24-1.53s-1.25.57-1.25,1.53Z" style="fill:#263238"></path><rect x="227.49" y="287.55" width="32.02" height="30.17" style="fill:none;stroke:#adadad;stroke-miterlimit:10"></rect><rect x="260.44" y="287.55" width="32.02" height="30.17" style="fill:none;stroke:#adadad;stroke-miterlimit:10"></rect><rect x="293.39" y="287.55" width="32.02" height="30.17" style="fill:none;stroke:#adadad;stroke-miterlimit:10"></rect><rect x="326.35" y="287.55" width="32.02" height="30.17" style="fill:none;stroke:#adadad;stroke-miterlimit:10"></rect><rect x="359.3" y="287.55" width="32.02" height="30.17" style="fill:none;stroke:#adadad;stroke-miterlimit:10"></rect><rect x="392.39" y="287.55" width="32.02" height="30.17" style="fill:none;stroke:#adadad;stroke-miterlimit:10"></rect><line x1="161.65" y1="176.7" x2="213.5" y2="176.7" style="fill:none;stroke:#adadad;stroke-miterlimit:10"></line><line x1="161.65" y1="182.39" x2="213.5" y2="182.39" style="fill:none;stroke:#adadad;stroke-miterlimit:10"></line><line x1="161.65" y1="188.07" x2="213.5" y2="188.07" style="fill:none;stroke:#adadad;stroke-miterlimit:10"></line><line x1="161.65" y1="193.75" x2="213.5" y2="193.75" style="fill:none;stroke:#adadad;stroke-miterlimit:10"></line><line x1="161.65" y1="199.43" x2="213.5" y2="199.43" style="fill:none;stroke:#adadad;stroke-miterlimit:10"></line><line x1="161.65" y1="205.12" x2="213.5" y2="205.12" style="fill:none;stroke:#adadad;stroke-miterlimit:10"></line><line x1="161.65" y1="210.8" x2="213.5" y2="210.8" style="fill:none;stroke:#adadad;stroke-miterlimit:10"></line><line x1="161.65" y1="216.48" x2="213.5" y2="216.48" style="fill:none;stroke:#adadad;stroke-miterlimit:10"></line><line x1="161.65" y1="303.26" x2="213.5" y2="303.26" style="fill:none;stroke:#adadad;stroke-miterlimit:10"></line><line x1="161.65" y1="308.94" x2="213.5" y2="308.94" style="fill:none;stroke:#adadad;stroke-miterlimit:10"></line><line x1="161.65" y1="314.62" x2="213.5" y2="314.62" style="fill:none;stroke:#adadad;stroke-miterlimit:10"></line><line x1="161.65" y1="320.3" x2="213.5" y2="320.3" style="fill:none;stroke:#adadad;stroke-miterlimit:10"></line><line x1="161.65" y1="325.99" x2="213.5" y2="325.99" style="fill:none;stroke:#adadad;stroke-miterlimit:10"></line><line x1="161.65" y1="331.67" x2="213.5" y2="331.67" style="fill:none;stroke:#adadad;stroke-miterlimit:10"></line><line x1="161.65" y1="337.35" x2="213.5" y2="337.35" style="fill:none;stroke:#adadad;stroke-miterlimit:10"></line><line x1="161.65" y1="343.03" x2="213.5" y2="343.03" style="fill:none;stroke:#adadad;stroke-miterlimit:10"></line><rect x="227.49" y="176.73" width="32.02" height="30.17" style="fill:none;stroke:#adadad;stroke-miterlimit:10"></rect><rect x="260.44" y="176.73" width="32.02" height="30.17" style="fill:#FC3175;stroke:#adadad;stroke-miterlimit:10"></rect><rect x="293.39" y="176.73" width="32.02" height="30.17" style="fill:#FC3175;stroke:#adadad;stroke-miterlimit:10"></rect><rect x="326.35" y="176.73" width="32.02" height="30.17" style="fill:none;stroke:#adadad;stroke-miterlimit:10"></rect><rect x="359.3" y="176.73" width="32.02" height="30.17" style="fill:none;stroke:#adadad;stroke-miterlimit:10"></rect><rect x="392.39" y="176.73" width="32.02" height="30.17" style="fill:none;stroke:#adadad;stroke-miterlimit:10"></rect><line x1="266.06" y1="185.33" x2="288.45" y2="185.33" style="fill:none;stroke:#adadad;stroke-miterlimit:10"></line><line x1="266.06" y1="188.74" x2="288.45" y2="188.74" style="fill:none;stroke:#adadad;stroke-miterlimit:10"></line><line x1="266.06" y1="192.15" x2="288.45" y2="192.15" style="fill:none;stroke:#adadad;stroke-miterlimit:10"></line><line x1="266.06" y1="195.55" x2="288.45" y2="195.55" style="fill:none;stroke:#adadad;stroke-miterlimit:10"></line><line x1="266.06" y1="198.96" x2="288.45" y2="198.96" style="fill:none;stroke:#adadad;stroke-miterlimit:10"></line><rect x="227.49" y="213.64" width="32.02" height="30.17" style="fill:none;stroke:#adadad;stroke-miterlimit:10"></rect><rect x="260.44" y="213.64" width="32.02" height="30.17" style="fill:#FC3175;stroke:#adadad;stroke-miterlimit:10"></rect><rect x="293.39" y="213.64" width="32.02" height="30.17" style="fill:none;stroke:#adadad;stroke-miterlimit:10"></rect><rect x="326.35" y="213.64" width="32.02" height="30.17" style="fill:none;stroke:#adadad;stroke-miterlimit:10"></rect><rect x="359.3" y="213.64" width="32.02" height="30.17" style="fill:none;stroke:#adadad;stroke-miterlimit:10"></rect><rect x="392.39" y="213.64" width="32.02" height="30.17" style="fill:none;stroke:#adadad;stroke-miterlimit:10"></rect><line x1="266.06" y1="221.84" x2="288.45" y2="221.84" style="fill:none;stroke:#adadad;stroke-miterlimit:10"></line><line x1="266.06" y1="225.24" x2="288.45" y2="225.24" style="fill:none;stroke:#adadad;stroke-miterlimit:10"></line><line x1="266.06" y1="228.65" x2="288.45" y2="228.65" style="fill:none;stroke:#adadad;stroke-miterlimit:10"></line><line x1="266.06" y1="232.06" x2="288.45" y2="232.06" style="fill:none;stroke:#adadad;stroke-miterlimit:10"></line><line x1="266.06" y1="235.47" x2="288.45" y2="235.47" style="fill:none;stroke:#adadad;stroke-miterlimit:10"></line><rect x="227.49" y="250.54" width="32.02" height="30.17" style="fill:none;stroke:#adadad;stroke-miterlimit:10"></rect><rect x="260.44" y="250.54" width="32.02" height="30.17" style="fill:none;stroke:#adadad;stroke-miterlimit:10"></rect><rect x="293.39" y="250.54" width="32.02" height="30.17" style="fill:none;stroke:#adadad;stroke-miterlimit:10"></rect><rect x="326.35" y="250.54" width="32.02" height="30.17" style="fill:none;stroke:#adadad;stroke-miterlimit:10"></rect><rect x="359.3" y="250.54" width="32.02" height="30.17" style="fill:#FC3175;stroke:#adadad;stroke-miterlimit:10"></rect><rect x="392.39" y="250.54" width="32.02" height="30.17" style="fill:none;stroke:#adadad;stroke-miterlimit:10"></rect><line x1="365.35" y1="258.83" x2="387.74" y2="258.83" style="fill:none;stroke:#adadad;stroke-miterlimit:10"></line><line x1="365.35" y1="262.24" x2="387.74" y2="262.24" style="fill:none;stroke:#adadad;stroke-miterlimit:10"></line><line x1="365.35" y1="265.64" x2="387.74" y2="265.64" style="fill:none;stroke:#adadad;stroke-miterlimit:10"></line><line x1="365.35" y1="269.05" x2="387.74" y2="269.05" style="fill:none;stroke:#adadad;stroke-miterlimit:10"></line><line x1="365.35" y1="272.46" x2="387.74" y2="272.46" style="fill:none;stroke:#adadad;stroke-miterlimit:10"></line><rect x="227.49" y="324.55" width="32.02" height="30.17" style="fill:none;stroke:#adadad;stroke-miterlimit:10"></rect><rect x="260.44" y="324.55" width="32.02" height="30.17" style="fill:none;stroke:#adadad;stroke-miterlimit:10"></rect><rect x="293.39" y="324.55" width="32.02" height="30.17" style="fill:#FC3175;stroke:#adadad;stroke-miterlimit:10"></rect><rect x="326.35" y="324.55" width="32.02" height="30.17" style="fill:#FC3175;stroke:#adadad;stroke-miterlimit:10"></rect><rect x="359.3" y="324.55" width="32.02" height="30.17" style="fill:#FC3175;stroke:#adadad;stroke-miterlimit:10"></rect><rect x="392.39" y="324.55" width="32.02" height="30.17" style="fill:none;stroke:#adadad;stroke-miterlimit:10"></rect><line x1="298.67" y1="332.81" x2="321.06" y2="332.81" style="fill:none;stroke:#adadad;stroke-miterlimit:10"></line><line x1="298.67" y1="336.22" x2="321.06" y2="336.22" style="fill:none;stroke:#adadad;stroke-miterlimit:10"></line><line x1="298.67" y1="339.63" x2="321.06" y2="339.63" style="fill:none;stroke:#adadad;stroke-miterlimit:10"></line><line x1="298.67" y1="343.03" x2="321.06" y2="343.03" style="fill:none;stroke:#adadad;stroke-miterlimit:10"></line><line x1="298.67" y1="346.44" x2="321.06" y2="346.44" style="fill:none;stroke:#adadad;stroke-miterlimit:10"></line><line x1="331.28" y1="332.81" x2="353.67" y2="332.81" style="fill:none;stroke:#adadad;stroke-miterlimit:10"></line><line x1="331.28" y1="336.22" x2="353.67" y2="336.22" style="fill:none;stroke:#adadad;stroke-miterlimit:10"></line><line x1="331.28" y1="339.63" x2="353.67" y2="339.63" style="fill:none;stroke:#adadad;stroke-miterlimit:10"></line><line x1="331.28" y1="343.03" x2="353.67" y2="343.03" style="fill:none;stroke:#adadad;stroke-miterlimit:10"></line><line x1="331.28" y1="346.44" x2="353.67" y2="346.44" style="fill:none;stroke:#adadad;stroke-miterlimit:10"></line><line x1="363.89" y1="332.81" x2="386.28" y2="332.81" style="fill:none;stroke:#adadad;stroke-miterlimit:10"></line><line x1="363.89" y1="336.22" x2="386.28" y2="336.22" style="fill:none;stroke:#adadad;stroke-miterlimit:10"></line><line x1="363.89" y1="339.63" x2="386.28" y2="339.63" style="fill:none;stroke:#adadad;stroke-miterlimit:10"></line><line x1="363.89" y1="343.03" x2="386.28" y2="343.03" style="fill:none;stroke:#adadad;stroke-miterlimit:10"></line><line x1="363.89" y1="346.44" x2="386.28" y2="346.44" style="fill:none;stroke:#adadad;stroke-miterlimit:10"></line></g><g id="freepik--Character--inject-19"><path d="M138.88,113.55c-9.06-6.71-21-6-28.17-1.51s-9.39,12.57-11.4,18.1c-4,11-12.59,17.54-21.89,23.89-9,6.17-20.69,15.21-14.52,27.54,2.79,5.59,6.28,9.43,1,18.51s-10.83,13.28-7,22,8.73,22.36,29.34,17.47,26.9-28.3,29-37,12.19-12.27,19.56-18.52,6.64-16.07,4.54-22.35c-1.6-4.82-3.4-11.68,2.11-17.14l.72.22s11.07-5,12.91-8.05S147.93,120.25,138.88,113.55Z" style="fill:#263238;stroke:#263238;stroke-linecap:round;stroke-linejoin:round"></path><path d="M155,172.51s21.56,16.65,27.18,20.16,19.23,10.08,22.27,12.43-1.64,12.42-8.2,16.17-12.66-.47-16.17-2.35-27-17.11-27-17.11Z" style="fill:#919191;stroke:#263238;stroke-linecap:round;stroke-linejoin:round"></path><polyline points="159.81 182.42 156.15 203.41 164.48 186.75" style="fill:none;stroke:#263238;stroke-linecap:round;stroke-linejoin:round"></polyline><path d="M162.24,282s-5.62.23-12-5.63-8-8.44-8-8.44S139,235.33,139,232.28,141.62,214,144,206.5s6.8,1.41,6.8,1.41,5.39,52.5,6.33,57.66S162.24,282,162.24,282Z" style="fill:#787878;stroke:#263238;stroke-linecap:round;stroke-linejoin:round"></path><path d="M143.42,339.53s-6.4,15.92-6.65,23.61,1.33,19.29-4.6,32.3-11.49,32.08-12.42,37.91,4.4,21.79,7.16,27,1.68,4.82-1.25,4.72a12.43,12.43,0,0,1-10.8-6.23c-3.12-5.24-1.92-8.5-4-10.4l-2.14-1.91-1.84,11.31-2.56-.45,2.33-14.59s-.26-3.31,1.25-4.73,3.86-5.74,3.86-5.74,2.52-20.45,1.89-34.41-1.07-22.77.59-28.58,1.72-7.65,1.92-13.51.06-12.83.09-13.93S143.42,339.53,143.42,339.53Z" style="fill:#fff"></path><g style="clip-path:url(#freepik--clip-path--inject-19)"><path d="M116.2,341.92c0,.8,0,4.76,0,9.12,3.19.66,11,1.54,23.67-1.62,1.74-5.38,3.55-9.89,3.55-9.89S116.24,340.82,116.2,341.92Z" style="opacity:0.2"></path></g><path d="M143.42,339.53s-6.4,15.92-6.65,23.61,1.33,19.29-4.6,32.3-11.49,32.08-12.42,37.91,4.4,21.79,7.16,27,1.68,4.82-1.25,4.72a12.43,12.43,0,0,1-10.8-6.23c-3.12-5.24-1.92-8.5-4-10.4l-2.14-1.91-1.84,11.31-2.56-.45,2.33-14.59s-.26-3.31,1.25-4.73,3.86-5.74,3.86-5.74,2.52-20.45,1.89-34.41-1.07-22.77.59-28.58,1.72-7.65,1.92-13.51.06-12.83.09-13.93S143.42,339.53,143.42,339.53Z" style="fill:none;stroke:#263238;stroke-linecap:round;stroke-linejoin:round"></path><path d="M126.91,460.37l-.29-.58c-6.28,1.88-9-4.46-12.25-12a39.73,39.73,0,0,0-6.18-10c-.12.12-.23.24-.34.34-1.51,1.42-1.25,4.73-1.25,4.73l-2.33,14.59,2.56.45,1.84-11.31,2.14,1.91c2.13,1.9.93,5.16,4,10.4a12.43,12.43,0,0,0,10.8,6.23C128.59,465.19,129.67,465.59,126.91,460.37Z" style="fill:#FC3175;stroke:#263238;stroke-linecap:round;stroke-linejoin:round"></path><polygon points="103.75 451.16 104.13 464.39 105.96 464.45 106.94 454.56 103.75 451.16" style="fill:#FC3175;stroke:#263238;stroke-linecap:round;stroke-linejoin:round"></polygon><path d="M93.26,337.12s4.1,8.93.71,22.76-.09,35.57,5,49.31,4.62,26.19,5.26,29.14-.66,8.78-.43,12.83,7,10.87,8.36,13.11,11.65,2.59,14.22,2.68,3-2.47,1.22-3.63-5.61-7.89-5.61-7.89-5.79-13-6.38-17.45-2.65-30.53-1.73-36,4.13-35.8,5.13-43.83,1.75-19.38,1.75-19.38Z" style="fill:#fff"></path><g style="clip-path:url(#freepik--clip-path-2--inject-19)"><path d="M119.82,350.06c.54-5.95.89-11.29.89-11.29l-27.45-1.65a29.59,29.59,0,0,1,2,9.86C99.78,348.59,107.82,350.5,119.82,350.06Z" style="opacity:0.2"></path></g><path d="M93.26,337.12s4.1,8.93.71,22.76-.09,35.57,5,49.31,4.62,26.19,5.26,29.14-.66,8.78-.43,12.83,7,10.87,8.36,13.11,11.65,2.59,14.22,2.68,3-2.47,1.22-3.63-5.61-7.89-5.61-7.89-5.79-13-6.38-17.45-2.65-30.53-1.73-36,4.13-35.8,5.13-43.83,1.75-19.38,1.75-19.38Z" style="fill:none;stroke:#263238;stroke-linecap:round;stroke-linejoin:round"></path><path d="M127.55,463.32a10.17,10.17,0,0,1-2.06-2.29c-4.92-.24-10.84-.8-12.81-2.61-2.31-2.11-7.79-12.16-8.6-13.66a45,45,0,0,0-.33,6.4c.23,4,7,10.87,8.36,13.11s11.65,2.59,14.22,2.68S129.34,464.48,127.55,463.32Z" style="fill:#FC3175;stroke:#263238;stroke-linecap:round;stroke-linejoin:round"></path><path d="M88.64,236.5s-12.65,38-11.72,54.38,10.32,48.76,10.32,48.76,21.09,5.62,36.09,5.62a93.88,93.88,0,0,0,28.13-4.69s7.5-53,4.22-71.72A81.77,81.77,0,0,0,142.55,237Z" style="fill:#263238;stroke:#263238;stroke-linecap:round;stroke-linejoin:round"></path><path d="M99.43,171.11s12.18-5.39,18.28-5.39,19.45,10.31,21.56,12.19,9.61,23.2,10.78,29.06-7.5,31.64-7.5,31.64-15.7,3.28-27.42,2.82-16.88-1.88-16.88-1.88-4.68-23.44-7-37.27-4.92-23-2.81-26.48S99.43,171.11,99.43,171.11Z" style="fill:#fff"></path><g style="clip-path:url(#freepik--clip-path-3--inject-19)"><path d="M142.55,238.61s8.68-25.78,7.5-31.64-8.67-27.19-10.78-29.06c-.64-.58-2.34-1.94-4.56-3.55l-1.51,2.19S141,199,141.26,207.71c.25,8.13-7,29.7-8,32.48C138.66,239.43,142.55,238.61,142.55,238.61Z" style="opacity:0.30000000000000004"></path></g><path d="M99.43,171.11s12.18-5.39,18.28-5.39,19.45,10.31,21.56,12.19,9.61,23.2,10.78,29.06-7.5,31.64-7.5,31.64-15.7,3.28-27.42,2.82-16.88-1.88-16.88-1.88-4.68-23.44-7-37.27-4.92-23-2.81-26.48S99.43,171.11,99.43,171.11Z" style="fill:none;stroke:#263238;stroke-linecap:round;stroke-linejoin:round"></path><path d="M128.72,169.23s12.19,21.8,15.71,35.4,9.37,70.55,11.95,73.13a26,26,0,0,0,5.86,4.22s-7-38.44-7-49.93,1.88-56.49.7-59.07-5.15-1.17-13.36-2.11S128.72,169.23,128.72,169.23Z" style="fill:#919191;stroke:#263238;stroke-linecap:round;stroke-linejoin:round"></path><path d="M108.69,164.52h0l-39,14.79s1.4,45.47,1.87,51.33,2.82,8.91,6.1,11.25,4.45-.46,4.45-.46-6.56,24.61-10.55,33-1.87,8.91-1.87,8.91,15.23,6.56,26.25,3.05,14.3-11.49,14.3-11.49L104.11,203s0-20.63,1.17-25.32S108.69,164.52,108.69,164.52Z" style="fill:#919191;stroke:#263238;stroke-linecap:round;stroke-linejoin:round"></path><path d="M81.2,253.71s11.66.33,18.65-2.33v4.33a111.72,111.72,0,0,1-15.65,1" style="fill:none;stroke:#263238;stroke-linecap:round;stroke-linejoin:round"></path><path d="M77.87,179.42s10.33,7,13.66,18" style="fill:none;stroke:#263238;stroke-linecap:round;stroke-linejoin:round"></path><path d="M108.69,164.52a20,20,0,0,0-2.85,2.86c-1.34,1.67-5,9.39-7.21,11.73s-1,2.85-.16,2.69,8.88-3,10.39-3.69a36.74,36.74,0,0,1,3.86-1.34l12.07,11.9,3.36-12.07s12.57,1,14.08,1.17,2.68-.67,1.51-.67-10.9-4.86-12.24-5.53-3.19-4.7-7.21-7.38S111.55,160.67,108.69,164.52Z" style="fill:#fff;stroke:#263238;stroke-linecap:round;stroke-linejoin:round"></path><path d="M125.63,168.55l-.84,20.12S112.55,173.24,111,171.4a14.28,14.28,0,0,1-2.18-5.2l1.34-17.44s7.88,12.75,9.9,14.09S125.46,166.87,125.63,168.55Z" style="fill:#fff;stroke:#263238;stroke-linecap:round;stroke-linejoin:round"></path><path d="M120.1,162.85c-2-1.34-9.9-14.09-9.9-14.09l-1,13.06c1.54,3.11,13.37,10.07,15.34,10.39a6.14,6.14,0,0,0,.93.1l.16-3.76C125.46,166.87,122.11,164.19,120.1,162.85Z" style="fill:#263238;stroke:#263238;stroke-linecap:round;stroke-linejoin:round"></path><path d="M140.05,127.63s-17.94,10.57-23.31,13.08l-3,.84s-3.86-5.53-5.71-4.36-2.85,4.19-1.84,6.88a11.85,11.85,0,0,0,4,4.69s.17,8.05,1.35,11.07S125,170.06,127,170.39s3.86,0,4.87-1.84,7.37-9.39,10.22-19.79S143.24,129.31,140.05,127.63Z" style="fill:#fff;stroke:#263238;stroke-linecap:round;stroke-linejoin:round"></path><polyline points="136.03 144.57 136.53 154.3 131.16 153.12" style="fill:none;stroke:#263238;stroke-linecap:round;stroke-linejoin:round"></polyline><path d="M124.46,154.3s1.17,1.5,6,3.18" style="fill:none;stroke:#263238;stroke-linecap:round;stroke-linejoin:round"></path><path d="M123.62,143.4s1.34,2.85,6.2,1.84" style="fill:none;stroke:#263238;stroke-linecap:round;stroke-linejoin:round"></path><path d="M137.87,147.25a2.91,2.91,0,0,0,3.52,1.18" style="fill:none;stroke:#263238;stroke-linecap:round;stroke-linejoin:round"></path><path d="M125,138.7a10.06,10.06,0,0,1,7.88,0" style="fill:none;stroke:#263238;stroke-linecap:round;stroke-linejoin:round"></path><path d="M142.73,142.56c-.67-1.85-3.68-2.52-3.68-2.52" style="fill:none;stroke:#263238;stroke-linecap:round;stroke-linejoin:round"></path><path d="M173.23,215.2l-15,3.37s-18.61-.81-20-.27-.13,6.07-.13,6.07a41.91,41.91,0,0,1-6.07,0c-2.29-.27-3.37.14-2.83,1.62s2.83,2.83,5,2.83a46.13,46.13,0,0,0,6.6-.94s5.53,2,7.56,2,5-1.75,5-1.75,3.64.13,5.53.27,4.31-2.3,4.31-2.3l14.7-.4Z" style="fill:#fff;stroke:#263238;stroke-linecap:round;stroke-linejoin:round"></path><path d="M135.74,217.36s-3.51.27-3.51,1.35,2.84,9.17,2.84,9.17l5.66.54s.81-.27.13-1.35a15.9,15.9,0,0,0-2.69-2.7l.13-6.07Z" style="fill:#fff;stroke:#263238;stroke-linecap:round;stroke-linejoin:round"></path><path d="M141.52,216.41s-6.11-.53-6.34.16,1,11,1,11,6.18,1.33,7,1.27a1.14,1.14,0,0,0,.68-1.93,16,16,0,0,0-3.24-1.94Z" style="fill:#fff;stroke:#263238;stroke-linecap:round;stroke-linejoin:round"></path><path d="M145.05,215.74s-6.07-1-6.34-.27.27,11.06.27,11.06,6.07,1.75,6.87,1.75a1.15,1.15,0,0,0,.81-1.89,16.1,16.1,0,0,0-3.1-2.15Z" style="fill:#fff;stroke:#263238;stroke-linecap:round;stroke-linejoin:round"></path><path d="M160.69,219.78s-15.11-5.66-15.91-5.93-1.35.14-1.35.68S141,225,141.81,225.72s5.66,2.16,5.66,2.16,1.35-.95,1.49-1.35-1.49-1.49-1.49-1.49l.27-3,3.51,1.21" style="fill:#fff;stroke:#263238;stroke-linecap:round;stroke-linejoin:round"></path><path d="M162.17,217.49s3.38,4,1.76,8.23h3.5s1.35-6.74-1.75-8.63Z" style="fill:#263238;stroke:#263238;stroke-linecap:round;stroke-linejoin:round"></path><path d="M167.43,215.47s2.39,3.12,3,13.59c.12,1.94,25.29-1.45,32.3-2.8s9.71-4,10.25-9.85-5.94-11.73-10.79-13.75S167.43,215.47,167.43,215.47Z" style="fill:#919191;stroke:#263238;stroke-linecap:round;stroke-linejoin:round"></path><rect x="98.8" y="132.66" width="13.75" height="29.85" rx="1.95" transform="translate(-54.72 62.59) rotate(-26.48)" style="fill:#FC3175;stroke:#263238;stroke-linecap:round;stroke-linejoin:round"></rect><path d="M96.45,179.11l2.35-9.55-5-15.77s4.53-11.57,5.37-12.74,3-2.35,3.85-2,.84,1.51-.33,2.18a5.35,5.35,0,0,0-1.85,2.34l-2.51,8.56L99.47,154l3.19-9.73s9.22-1.17,9.72-1.17,2.52.17,1.51,1.51a3.8,3.8,0,0,1-2.34,1.51h3.85s1.34.67.5,1.68-6.53,2.51-6.53,2.51l-2.18,6.88,4.19-4.87,4.19-.67s2.85.67,2.35,1.85-3,.5-3,.5l-2.52,1.34-3.85,7v8.72c0,2.18-3.86,10.07-3.86,10.07Z" style="fill:#fff;stroke:#263238;stroke-linecap:round;stroke-linejoin:round"></path><polyline points="111.55 146.08 105.84 147.42 102.83 157.15" style="fill:none;stroke:#263238;stroke-linecap:round;stroke-linejoin:round"></polyline><path d="M94.5,176l15.24,5.16s-12.08,53.32-14,58.2c-3.06,7.88-13.91,6.25-18.37,4.85s-7-10.08-5.86-13.6S94.5,176,94.5,176Z" style="fill:#919191;stroke:#263238;stroke-linecap:round;stroke-linejoin:round"></path></g></svg>